<svg width="171.375" height="25.25" viewBox="0 0 171.375 25.25" xmlns="http://www.w3.org/2000/svg"><g id="svgGroup" stroke-linecap="round" fill-rule="evenodd" font-size="9pt" stroke="#ffffff" stroke-width="0.25mm" fill="#ffffff" style="stroke:#ffffff;stroke-width:0.25mm;fill:#ffffff"><path d="M 15.088 19.05 L 3.963 4.45 L 3.963 15.15 Q 3.963 16.1 4.013 16.613 A 1.934 1.934 0 0 0 4.069 16.93 Q 4.146 17.217 4.313 17.4 A 1.283 1.283 0 0 0 4.537 17.576 Q 4.655 17.65 4.803 17.716 A 3.195 3.195 0 0 0 5.088 17.825 Q 5.613 18 6.588 18.1 Q 6.638 18.5 6.588 18.9 Q 5.838 18.9 4.925 18.875 A 81.005 81.005 0 0 0 4.281 18.86 Q 3.778 18.85 3.388 18.85 A 39.994 39.994 0 0 0 2.878 18.854 Q 2.42 18.859 1.85 18.875 A 72.307 72.307 0 0 1 1.036 18.893 Q 0.652 18.899 0.31 18.9 A 43.239 43.239 0 0 1 0.213 18.9 Q 0.145 18.56 0.2 18.179 A 2.615 2.615 0 0 1 0.213 18.1 A 32.677 32.677 0 0 0 0.638 18.038 Q 1.238 17.947 1.613 17.863 Q 2.113 17.75 2.338 17.513 Q 2.563 17.275 2.625 16.8 A 5.777 5.777 0 0 0 2.658 16.469 Q 2.683 16.118 2.687 15.636 A 21.663 21.663 0 0 0 2.688 15.475 L 2.688 5.225 A 26.011 26.011 0 0 0 2.681 4.642 Q 2.668 4.045 2.625 3.65 A 2.346 2.346 0 0 0 2.566 3.319 Q 2.523 3.152 2.457 3.019 A 1.017 1.017 0 0 0 2.3 2.788 Q 2.038 2.5 1.5 2.363 A 6.073 6.073 0 0 0 1.124 2.28 Q 0.666 2.194 0.013 2.125 Q -0.012 1.75 0.013 1.35 Q 0.788 1.35 1.663 1.375 Q 2.538 1.4 3.413 1.4 L 4.1 1.4 A 21.452 21.452 0 0 0 4.566 1.395 Q 4.848 1.389 5.088 1.375 L 15.238 14.725 L 15.238 5.125 Q 15.238 4.342 15.212 3.848 A 10.028 10.028 0 0 0 15.2 3.65 A 1.723 1.723 0 0 0 15.154 3.35 Q 15.113 3.189 15.04 3.065 A 0.803 0.803 0 0 0 14.888 2.875 Q 14.4 2.364 12.639 2.198 A 14.621 14.621 0 0 0 12.363 2.175 A 2.426 2.426 0 0 1 12.326 1.841 Q 12.318 1.599 12.363 1.375 Q 12.838 1.375 13.5 1.388 A 1144.919 1144.919 0 0 1 14.709 1.411 A 1048.837 1048.837 0 0 1 14.788 1.413 A 85.059 85.059 0 0 0 15.086 1.418 Q 15.513 1.425 15.813 1.425 A 37.193 37.193 0 0 0 16.144 1.423 Q 16.66 1.419 17.341 1.401 A 98.307 98.307 0 0 0 17.363 1.4 Q 18.288 1.375 19.013 1.375 Q 19.063 1.75 19.013 2.15 A 19.513 19.513 0 0 0 18.455 2.227 Q 17.919 2.31 17.566 2.403 A 3.411 3.411 0 0 0 17.288 2.488 Q 16.763 2.675 16.638 3.175 A 2.955 2.955 0 0 0 16.58 3.485 Q 16.513 3.974 16.513 4.8 L 16.513 18.925 A 3.748 3.748 0 0 1 16.339 18.955 Q 16.144 18.985 15.876 19.009 A 12.738 12.738 0 0 1 15.838 19.013 A 10.829 10.829 0 0 1 15.485 19.038 Q 15.27 19.05 15.088 19.05 Z M 50.613 16.275 L 50.613 11.225 A 7.808 7.808 0 0 0 50.576 10.442 Q 50.495 9.639 50.233 9.133 A 2.034 2.034 0 0 0 50.15 8.988 A 1.387 1.387 0 0 0 49.495 8.449 Q 49.246 8.343 48.928 8.294 A 4.011 4.011 0 0 0 48.313 8.25 Q 47.588 8.25 46.913 8.513 A 3.509 3.509 0 0 0 46.353 8.795 Q 46.086 8.958 45.805 9.183 A 7.511 7.511 0 0 0 45.463 9.475 L 45.463 16.025 A 13.558 13.558 0 0 0 45.47 16.478 Q 45.491 17.106 45.575 17.425 A 0.941 0.941 0 0 0 45.673 17.665 A 0.647 0.647 0 0 0 46.05 17.963 Q 46.413 18.075 47.188 18.125 Q 47.313 18.5 47.188 18.9 Q 46.563 18.9 45.813 18.875 Q 45.063 18.85 44.138 18.85 A 58.525 58.525 0 0 0 43.314 18.855 Q 42.928 18.861 42.585 18.872 A 33.889 33.889 0 0 0 42.488 18.875 Q 41.763 18.9 41.013 18.9 Q 40.938 18.5 41.013 18.125 A 13.316 13.316 0 0 0 41.409 18.096 Q 41.963 18.047 42.263 17.963 Q 42.663 17.85 42.788 17.475 Q 42.89 17.168 42.908 16.561 A 9.341 9.341 0 0 0 42.913 16.275 L 42.913 4.225 A 36.081 36.081 0 0 0 42.911 3.88 Q 42.906 3.391 42.888 3.063 Q 42.869 2.733 42.751 2.51 A 0.856 0.856 0 0 0 42.663 2.375 A 1 1 0 0 0 42.269 2.056 A 1.329 1.329 0 0 0 42.088 1.988 A 2.707 2.707 0 0 0 41.872 1.934 Q 41.506 1.856 40.888 1.8 Q 40.813 1.475 40.888 1.125 Q 41.888 1 42.913 0.738 A 14.707 14.707 0 0 0 44.105 0.375 A 18.757 18.757 0 0 0 45.088 0 L 45.513 0.15 Q 45.488 0.7 45.475 1.388 Q 45.463 2.075 45.463 2.9 L 45.463 8.45 Q 46.42 7.556 47.35 7.125 A 4.891 4.891 0 0 1 47.675 6.988 A 6.578 6.578 0 0 1 48.806 6.666 A 5.232 5.232 0 0 1 49.763 6.575 Q 51.413 6.575 52.288 7.55 A 3.162 3.162 0 0 1 52.943 8.736 Q 53.094 9.218 53.141 9.8 A 6.827 6.827 0 0 1 53.163 10.35 L 53.163 16.025 A 13.558 13.558 0 0 0 53.17 16.478 Q 53.191 17.106 53.275 17.425 A 0.908 0.908 0 0 0 53.377 17.67 A 0.659 0.659 0 0 0 53.763 17.963 Q 54.138 18.075 54.963 18.125 Q 55.013 18.5 54.963 18.9 Q 54.213 18.9 53.5 18.875 A 36.544 36.544 0 0 0 52.932 18.86 Q 52.431 18.85 51.838 18.85 A 58.998 58.998 0 0 0 51.177 18.854 Q 50.655 18.859 50.225 18.875 Q 49.538 18.9 48.838 18.9 Q 48.788 18.5 48.838 18.125 A 11.231 11.231 0 0 0 49.2 18.096 Q 49.706 18.047 49.988 17.963 A 0.758 0.758 0 0 0 50.274 17.808 Q 50.405 17.693 50.474 17.513 A 0.945 0.945 0 0 0 50.488 17.475 Q 50.59 17.168 50.608 16.561 A 9.341 9.341 0 0 0 50.613 16.275 Z M 95.063 16.1 L 95.063 2.45 L 93.263 2.45 A 7.904 7.904 0 0 0 92.489 2.485 Q 92.1 2.524 91.776 2.604 A 3.154 3.154 0 0 0 91.175 2.813 Q 90.413 3.175 89.95 3.9 Q 89.488 4.625 89.038 5.75 Q 88.638 5.8 88.238 5.75 L 88.525 3.45 A 81.186 81.186 0 0 0 88.71 1.842 A 72.652 72.652 0 0 0 88.763 1.325 Q 90.388 1.425 92.363 1.438 A 630.93 630.93 0 0 0 95.409 1.449 A 703.574 703.574 0 0 0 96.463 1.45 A 678.345 678.345 0 0 0 99.596 1.443 A 602.401 602.401 0 0 0 100.6 1.438 Q 102.58 1.425 104.175 1.326 A 51.168 51.168 0 0 0 104.188 1.325 Q 104.288 2.325 104.388 3.438 A 65.124 65.124 0 0 0 104.566 5.155 A 73.301 73.301 0 0 0 104.638 5.75 Q 104.213 5.8 103.813 5.75 Q 103.451 4.875 103.09 4.246 A 7.456 7.456 0 0 0 102.863 3.875 A 3.031 3.031 0 0 0 102.075 3.048 A 2.865 2.865 0 0 0 101.65 2.8 Q 100.913 2.45 99.588 2.45 L 97.813 2.45 L 97.813 15.775 A 19.585 19.585 0 0 0 97.817 16.228 Q 97.828 16.691 97.863 17 Q 97.913 17.45 98.15 17.65 Q 98.372 17.837 98.845 17.926 A 3.411 3.411 0 0 0 98.913 17.938 Q 99.438 18.025 100.363 18.1 Q 100.438 18.5 100.363 18.9 Q 99.838 18.9 99.1 18.888 Q 98.363 18.875 97.638 18.863 Q 97.139 18.854 96.747 18.851 A 48.989 48.989 0 0 0 96.413 18.85 A 43.267 43.267 0 0 0 96.16 18.851 Q 95.772 18.853 95.259 18.862 A 123.01 123.01 0 0 0 95.225 18.862 Q 94.513 18.875 93.775 18.888 Q 93.268 18.896 92.861 18.899 A 52.958 52.958 0 0 1 92.513 18.9 A 2.928 2.928 0 0 1 92.488 18.516 Q 92.487 18.339 92.507 18.153 A 3.864 3.864 0 0 1 92.513 18.1 A 42.202 42.202 0 0 0 93.092 18.038 Q 93.894 17.947 94.288 17.863 Q 94.613 17.793 94.785 17.622 A 0.62 0.62 0 0 0 94.938 17.375 Q 95.063 17 95.063 16.1 Z M 78.013 16.275 L 78.013 11.225 A 7.808 7.808 0 0 0 77.976 10.442 Q 77.895 9.639 77.633 9.133 A 2.034 2.034 0 0 0 77.55 8.988 A 1.387 1.387 0 0 0 76.895 8.449 Q 76.646 8.343 76.328 8.294 A 4.011 4.011 0 0 0 75.713 8.25 Q 74.988 8.25 74.313 8.513 A 3.41 3.41 0 0 0 73.789 8.774 Q 73.535 8.928 73.266 9.138 A 7.709 7.709 0 0 0 72.838 9.5 L 72.838 16.025 A 13.558 13.558 0 0 0 72.845 16.478 Q 72.866 17.106 72.95 17.425 A 0.908 0.908 0 0 0 73.052 17.67 A 0.659 0.659 0 0 0 73.438 17.963 Q 73.813 18.075 74.613 18.125 Q 74.663 18.5 74.613 18.9 A 43.272 43.272 0 0 1 73.527 18.886 A 49.188 49.188 0 0 1 73.15 18.875 Q 72.388 18.85 71.513 18.85 Q 70.713 18.85 69.938 18.875 Q 69.163 18.9 68.413 18.9 Q 68.338 18.5 68.413 18.125 A 13.316 13.316 0 0 0 68.809 18.096 Q 69.363 18.047 69.663 17.963 Q 70.063 17.85 70.188 17.475 Q 70.29 17.168 70.308 16.561 A 9.341 9.341 0 0 0 70.313 16.275 L 70.313 10.675 Q 70.313 9.887 70.255 9.425 A 3.462 3.462 0 0 0 70.225 9.225 A 1.068 1.068 0 0 0 70.125 8.924 A 0.807 0.807 0 0 0 69.75 8.563 A 1.929 1.929 0 0 0 69.498 8.465 Q 69.217 8.375 68.788 8.303 A 10.924 10.924 0 0 0 68.438 8.25 A 1.685 1.685 0 0 1 68.404 8.015 Q 68.388 7.797 68.438 7.6 A 23.529 23.529 0 0 0 70.988 6.952 A 19.619 19.619 0 0 0 72.388 6.45 L 72.813 6.6 L 72.813 8.475 Q 73.963 7.425 75.063 7 A 6.612 6.612 0 0 1 76.17 6.675 A 5.144 5.144 0 0 1 77.163 6.575 Q 78.813 6.575 79.688 7.55 A 3.162 3.162 0 0 1 80.343 8.736 Q 80.494 9.218 80.541 9.8 A 6.827 6.827 0 0 1 80.563 10.35 L 80.563 16.025 A 13.558 13.558 0 0 0 80.57 16.478 Q 80.591 17.106 80.675 17.425 A 0.908 0.908 0 0 0 80.777 17.67 A 0.659 0.659 0 0 0 81.163 17.963 Q 81.538 18.075 82.363 18.125 Q 82.413 18.5 82.363 18.9 Q 81.613 18.9 80.9 18.875 A 36.544 36.544 0 0 0 80.332 18.86 Q 79.831 18.85 79.238 18.85 A 58.998 58.998 0 0 0 78.577 18.854 Q 78.055 18.859 77.625 18.875 Q 76.938 18.9 76.238 18.9 Q 76.188 18.5 76.238 18.125 A 11.231 11.231 0 0 0 76.6 18.096 Q 77.106 18.047 77.388 17.963 A 0.758 0.758 0 0 0 77.674 17.808 Q 77.805 17.693 77.874 17.513 A 0.945 0.945 0 0 0 77.888 17.475 Q 77.99 17.168 78.008 16.561 A 9.341 9.341 0 0 0 78.013 16.275 Z M 156.063 9.375 L 151.788 19.35 A 13.162 13.162 0 0 1 151.713 19.526 Q 151.581 19.828 151.338 20.363 A 100.024 100.024 0 0 1 150.829 21.459 A 111.904 111.904 0 0 1 150.65 21.838 Q 150.288 22.6 150.038 23.1 A 9.372 9.372 0 0 1 149.688 23.729 Q 149.318 24.334 148.957 24.665 A 2.19 2.19 0 0 1 148.813 24.788 Q 148.213 25.25 147.538 25.25 Q 146.987 25.25 146.644 24.992 A 1.116 1.116 0 0 1 146.5 24.863 Q 146.138 24.475 146.138 23.95 A 1.422 1.422 0 0 1 146.331 23.249 Q 146.452 23.031 146.65 22.818 A 3.321 3.321 0 0 1 146.888 22.588 A 2.208 2.208 0 0 1 147.584 22.184 Q 148.206 21.951 149.13 21.928 A 8.279 8.279 0 0 1 149.338 21.925 Q 149.663 21.35 149.975 20.688 A 43.313 43.313 0 0 0 150.225 20.147 Q 150.336 19.903 150.458 19.629 A 89.534 89.534 0 0 0 150.713 19.05 Q 150.438 18.35 150.013 17.25 Q 149.588 16.15 149.05 14.813 A 176.524 176.524 0 0 1 148.1 12.395 A 194.542 194.542 0 0 1 147.963 12.038 A 549.995 549.995 0 0 0 146.953 9.419 A 499.733 499.733 0 0 0 146.888 9.25 A 4.969 4.969 0 0 0 146.714 8.84 Q 146.486 8.366 146.225 8.15 Q 145.863 7.85 144.838 7.75 A 1.723 1.723 0 0 1 144.801 7.441 Q 144.796 7.28 144.818 7.106 A 2.621 2.621 0 0 1 144.838 6.975 Q 145.563 6.975 146.313 7 Q 147.063 7.025 147.863 7.025 A 47.709 47.709 0 0 0 148.619 7.019 A 60.589 60.589 0 0 0 149.438 7 A 69.078 69.078 0 0 1 150.04 6.985 Q 150.513 6.975 150.888 6.975 Q 150.938 7.35 150.888 7.75 A 10.94 10.94 0 0 0 150.495 7.78 Q 149.955 7.831 149.701 7.924 A 1.017 1.017 0 0 0 149.7 7.925 Q 149.417 8.03 149.371 8.31 A 0.713 0.713 0 0 0 149.363 8.425 Q 149.363 8.775 149.613 9.5 A 107.888 107.888 0 0 0 150.253 11.206 A 85.636 85.636 0 0 0 150.875 12.775 Q 151.488 14.275 152.113 15.85 A 322.141 322.141 0 0 0 152.821 14.221 Q 153.2 13.345 153.525 12.575 A 145.245 145.245 0 0 0 154.451 10.33 A 162.098 162.098 0 0 0 154.763 9.55 A 7.731 7.731 0 0 0 154.883 9.211 Q 155.038 8.738 155.038 8.475 A 0.498 0.498 0 0 0 154.971 8.216 Q 154.911 8.115 154.798 8.043 A 0.822 0.822 0 0 0 154.663 7.975 Q 154.288 7.825 153.338 7.75 Q 153.263 7.35 153.338 6.975 A 33.975 33.975 0 0 1 154.542 6.997 A 37.118 37.118 0 0 1 154.625 7 A 35.038 35.038 0 0 0 155.487 7.021 A 42.109 42.109 0 0 0 156.038 7.025 A 22.736 22.736 0 0 0 156.559 7.019 A 28.991 28.991 0 0 0 157.125 7 A 29.509 29.509 0 0 1 157.684 6.981 A 21.439 21.439 0 0 1 158.188 6.975 Q 158.263 7.35 158.188 7.75 A 4.849 4.849 0 0 0 157.705 7.807 Q 157.044 7.922 156.763 8.213 A 2.439 2.439 0 0 0 156.499 8.541 Q 156.271 8.879 156.063 9.375 Z M 118.488 16.1 L 118.488 4.475 A 14.109 14.109 0 0 0 118.48 3.988 Q 118.463 3.52 118.414 3.215 A 2.273 2.273 0 0 0 118.363 2.975 A 0.779 0.779 0 0 0 117.917 2.456 A 1.19 1.19 0 0 0 117.725 2.388 A 4.168 4.168 0 0 0 117.429 2.321 Q 116.925 2.225 116.063 2.15 A 2.928 2.928 0 0 1 116.038 1.766 Q 116.037 1.589 116.057 1.403 A 3.864 3.864 0 0 1 116.063 1.35 Q 116.588 1.35 117.313 1.363 Q 118.038 1.375 118.75 1.388 A 107.232 107.232 0 0 0 119.091 1.393 Q 119.565 1.4 119.914 1.4 A 37.281 37.281 0 0 0 119.938 1.4 A 58.322 58.322 0 0 0 120.661 1.395 Q 121.155 1.389 121.725 1.375 A 118.33 118.33 0 0 1 122.205 1.364 Q 122.674 1.354 123.034 1.351 A 36.29 36.29 0 0 1 123.338 1.35 A 14.883 14.883 0 0 1 124.929 1.429 Q 126.559 1.605 127.573 2.172 A 3.944 3.944 0 0 1 127.863 2.35 A 3.198 3.198 0 0 1 129.301 4.671 A 4.395 4.395 0 0 1 129.338 5.25 Q 129.338 8.158 126.044 9.347 A 9.894 9.894 0 0 1 125.413 9.55 L 125.413 9.575 A 7.282 7.282 0 0 1 127.082 9.889 A 6.369 6.369 0 0 1 127.875 10.2 A 4.58 4.58 0 0 1 129.346 11.28 A 4.414 4.414 0 0 1 129.663 11.675 A 3.58 3.58 0 0 1 130.254 13.096 A 4.945 4.945 0 0 1 130.338 14.025 A 4.826 4.826 0 0 1 130.121 15.501 A 4.01 4.01 0 0 1 129.263 16.988 Q 128.188 18.175 126.588 18.6 A 9.559 9.559 0 0 1 125.578 18.793 A 11.253 11.253 0 0 1 125.088 18.85 Q 124.288 18.925 123.388 18.925 Q 122.513 18.925 121.575 18.888 A 52.088 52.088 0 0 0 120.795 18.862 Q 120.32 18.85 119.913 18.85 A 34.15 34.15 0 0 0 119.692 18.851 Q 119.444 18.852 119.109 18.857 A 129.68 129.68 0 0 0 118.788 18.863 Q 118.063 18.875 117.313 18.888 A 118.814 118.814 0 0 1 116.953 18.893 Q 116.454 18.9 116.087 18.9 A 41.308 41.308 0 0 1 116.063 18.9 A 2.928 2.928 0 0 1 116.038 18.516 Q 116.037 18.339 116.057 18.153 A 3.864 3.864 0 0 1 116.063 18.1 A 37.893 37.893 0 0 0 116.608 18.038 Q 117.115 17.977 117.451 17.919 A 5.991 5.991 0 0 0 117.738 17.862 A 1.166 1.166 0 0 0 117.995 17.774 A 0.68 0.68 0 0 0 118.363 17.363 Q 118.488 16.975 118.488 16.1 Z M 167.563 19.2 L 167.163 19.025 L 167.063 17.3 A 7.884 7.884 0 0 1 166.29 18.038 Q 165.851 18.401 165.403 18.645 A 4.724 4.724 0 0 1 165.275 18.713 A 4.332 4.332 0 0 1 163.471 19.171 A 5.109 5.109 0 0 1 163.263 19.175 A 4.837 4.837 0 0 1 161.662 18.917 A 4.326 4.326 0 0 1 160.55 18.338 Q 159.388 17.5 158.763 16.15 A 6.853 6.853 0 0 1 158.138 13.323 A 7.885 7.885 0 0 1 158.138 13.225 A 7.326 7.326 0 0 1 158.493 10.919 A 6.693 6.693 0 0 1 158.925 9.9 Q 159.713 8.4 161.15 7.488 A 5.841 5.841 0 0 1 163.58 6.632 A 7.422 7.422 0 0 1 164.513 6.575 A 8.362 8.362 0 0 1 165.403 6.624 A 9.634 9.634 0 0 1 165.713 6.663 A 8.506 8.506 0 0 1 166.596 6.836 A 10.037 10.037 0 0 1 167.013 6.95 L 167.013 3.75 A 6.436 6.436 0 0 0 167.001 3.345 Q 166.977 2.969 166.905 2.716 A 1.463 1.463 0 0 0 166.863 2.588 A 0.907 0.907 0 0 0 166.405 2.094 A 1.277 1.277 0 0 0 166.275 2.038 Q 165.895 1.896 165.183 1.821 A 11.239 11.239 0 0 0 164.963 1.8 Q 164.888 1.475 164.963 1.125 A 17.061 17.061 0 0 0 166.734 0.805 A 19.03 19.03 0 0 0 167.013 0.738 A 13.436 13.436 0 0 0 168.582 0.237 A 15.693 15.693 0 0 0 169.163 0 L 169.588 0.15 Q 169.564 0.663 169.552 1.308 A 63.154 63.154 0 0 0 169.55 1.4 Q 169.538 2.1 169.538 2.925 L 169.538 15.325 A 19.812 19.812 0 0 0 169.542 15.77 Q 169.553 16.235 169.587 16.552 A 4.047 4.047 0 0 0 169.613 16.75 A 1.072 1.072 0 0 0 169.699 17.041 A 0.773 0.773 0 0 0 170.063 17.413 A 1.969 1.969 0 0 0 170.299 17.509 Q 170.677 17.64 171.338 17.75 Q 171.413 18.075 171.338 18.425 Q 170.338 18.575 169.388 18.75 Q 168.438 18.925 167.563 19.2 Z M 27.881 18.994 A 2.472 2.472 0 0 0 28.713 19.125 Q 29.413 19.125 30.1 18.825 A 3.469 3.469 0 0 0 30.833 18.385 A 4.765 4.765 0 0 0 31.413 17.85 Q 31.388 17.725 31.35 17.575 Q 31.313 17.425 31.213 17.3 A 11.444 11.444 0 0 1 30.86 17.409 Q 30.197 17.6 29.838 17.6 A 1.002 1.002 0 0 1 29.659 17.585 Q 29.265 17.514 29.169 17.102 A 1.33 1.33 0 0 1 29.138 16.8 A 31.746 31.746 0 0 1 29.138 16.669 Q 29.139 16.257 29.152 15.689 A 106.632 106.632 0 0 1 29.163 15.225 Q 29.188 14.25 29.2 13.163 Q 29.213 12.075 29.238 11.113 A 112.099 112.099 0 0 0 29.242 10.914 Q 29.257 10.318 29.261 9.873 A 35.79 35.79 0 0 0 29.263 9.55 A 3.37 3.37 0 0 0 29.212 8.957 A 2.467 2.467 0 0 0 28.775 7.913 Q 28.288 7.25 27.5 6.913 A 4.041 4.041 0 0 0 27.046 6.749 A 4.446 4.446 0 0 0 25.788 6.575 Q 25.366 6.575 24.88 6.646 A 9.321 9.321 0 0 0 24.088 6.8 Q 23.138 7.025 22.263 7.413 A 5.904 5.904 0 0 0 21.511 7.809 A 4.3 4.3 0 0 0 20.825 8.338 Q 20.596 8.556 20.461 8.785 A 1.336 1.336 0 0 0 20.263 9.475 A 1.285 1.285 0 0 0 20.263 9.489 A 1.036 1.036 0 0 0 20.575 10.238 Q 20.888 10.55 21.438 10.55 Q 22.063 10.55 22.5 10.138 A 2.733 2.733 0 0 0 22.743 9.876 A 3.013 3.013 0 0 0 23.188 9.125 A 3.546 3.546 0 0 0 23.309 8.787 A 2.884 2.884 0 0 0 23.438 7.95 Q 23.708 7.83 24.051 7.782 A 3.518 3.518 0 0 1 24.538 7.75 Q 25.438 7.75 26.075 8.238 A 1.549 1.549 0 0 1 26.623 8.998 A 1.924 1.924 0 0 1 26.713 9.6 Q 26.713 10.3 26.7 10.925 Q 26.688 11.55 26.688 12.15 Q 23.006 12.615 21.34 13.815 A 2.965 2.965 0 0 0 19.963 16.3 A 3.616 3.616 0 0 0 19.999 16.824 A 2.496 2.496 0 0 0 20.85 18.413 A 3.061 3.061 0 0 0 21.868 18.996 A 3.536 3.536 0 0 0 23.013 19.175 Q 24.255 19.175 25.465 18.408 A 7.58 7.58 0 0 0 26.638 17.475 A 3.016 3.016 0 0 0 26.815 17.984 Q 27.163 18.739 27.881 18.994 Z M 64.156 18.994 A 2.472 2.472 0 0 0 64.988 19.125 Q 65.688 19.125 66.375 18.825 A 3.469 3.469 0 0 0 67.108 18.385 A 4.765 4.765 0 0 0 67.688 17.85 Q 67.663 17.725 67.625 17.575 Q 67.588 17.425 67.488 17.3 A 11.444 11.444 0 0 1 67.135 17.409 Q 66.472 17.6 66.113 17.6 A 1.002 1.002 0 0 1 65.934 17.585 Q 65.54 17.514 65.444 17.102 A 1.33 1.33 0 0 1 65.413 16.8 A 31.746 31.746 0 0 1 65.413 16.669 Q 65.414 16.257 65.427 15.689 A 106.632 106.632 0 0 1 65.438 15.225 Q 65.463 14.25 65.475 13.163 Q 65.488 12.075 65.513 11.113 A 112.099 112.099 0 0 0 65.517 10.914 Q 65.532 10.318 65.536 9.873 A 35.79 35.79 0 0 0 65.538 9.55 A 3.37 3.37 0 0 0 65.487 8.957 A 2.467 2.467 0 0 0 65.05 7.913 Q 64.563 7.25 63.775 6.913 A 4.041 4.041 0 0 0 63.321 6.749 A 4.446 4.446 0 0 0 62.063 6.575 Q 61.641 6.575 61.155 6.646 A 9.321 9.321 0 0 0 60.363 6.8 Q 59.413 7.025 58.538 7.413 A 5.904 5.904 0 0 0 57.786 7.809 A 4.3 4.3 0 0 0 57.1 8.338 Q 56.871 8.556 56.736 8.785 A 1.336 1.336 0 0 0 56.538 9.475 A 1.285 1.285 0 0 0 56.538 9.489 A 1.036 1.036 0 0 0 56.85 10.238 Q 57.163 10.55 57.713 10.55 Q 58.338 10.55 58.775 10.138 A 2.733 2.733 0 0 0 59.018 9.876 A 3.013 3.013 0 0 0 59.463 9.125 A 3.546 3.546 0 0 0 59.584 8.787 A 2.884 2.884 0 0 0 59.713 7.95 Q 59.983 7.83 60.326 7.782 A 3.518 3.518 0 0 1 60.813 7.75 Q 61.713 7.75 62.35 8.238 A 1.549 1.549 0 0 1 62.898 8.998 A 1.924 1.924 0 0 1 62.988 9.6 Q 62.988 10.3 62.975 10.925 Q 62.963 11.55 62.963 12.15 Q 59.281 12.615 57.615 13.815 A 2.965 2.965 0 0 0 56.238 16.3 A 3.616 3.616 0 0 0 56.274 16.824 A 2.496 2.496 0 0 0 57.125 18.413 A 3.061 3.061 0 0 0 58.143 18.996 A 3.536 3.536 0 0 0 59.288 19.175 Q 60.53 19.175 61.74 18.408 A 7.58 7.58 0 0 0 62.913 17.475 A 3.016 3.016 0 0 0 63.09 17.984 Q 63.438 18.739 64.156 18.994 Z M 33.788 8.2 L 31.888 8.2 A 1.958 1.958 0 0 1 31.856 7.978 Q 31.835 7.734 31.888 7.525 Q 34.363 6.475 35.613 4.1 Q 35.813 4.1 36.013 4.113 Q 36.184 4.123 36.319 4.143 A 2.401 2.401 0 0 1 36.363 4.15 Q 36.338 4.8 36.325 5.525 Q 36.313 6.25 36.288 7.05 L 40.088 7.05 Q 40.163 7.6 40.088 8.2 L 36.288 8.2 Q 36.238 9.95 36.225 11.888 Q 36.213 13.825 36.213 15.775 Q 36.213 17.39 37.548 17.717 A 3.222 3.222 0 0 0 38.313 17.8 Q 39.213 17.8 39.988 17.325 Q 40.213 17.625 40.263 18.075 Q 38.788 19.175 36.938 19.175 A 5.118 5.118 0 0 1 35.98 19.091 Q 35.427 18.985 34.989 18.748 A 2.759 2.759 0 0 1 34.563 18.463 Q 33.688 17.75 33.688 16.4 A 238.81 238.81 0 0 1 33.709 13.184 A 214.725 214.725 0 0 1 33.725 12.15 A 792.695 792.695 0 0 0 33.774 9.159 A 706.646 706.646 0 0 0 33.788 8.2 Z M 136.528 18.99 A 7.145 7.145 0 0 0 138.188 19.175 Q 140.063 19.175 141.463 18.338 Q 142.863 17.5 143.65 16.038 A 6.376 6.376 0 0 0 144.16 14.789 A 7.279 7.279 0 0 0 144.438 12.75 A 7.845 7.845 0 0 0 144.399 11.965 A 6.353 6.353 0 0 0 143.688 9.575 Q 142.938 8.175 141.588 7.375 A 5.525 5.525 0 0 0 140.019 6.751 A 7.036 7.036 0 0 0 138.413 6.575 A 7.862 7.862 0 0 0 137.487 6.628 A 6.249 6.249 0 0 0 135.138 7.375 Q 133.713 8.175 132.925 9.625 A 6.263 6.263 0 0 0 132.311 11.307 A 8.158 8.158 0 0 0 132.138 13.025 A 7.88 7.88 0 0 0 132.197 14.005 A 6.225 6.225 0 0 0 132.888 16.213 Q 133.638 17.6 135 18.388 A 5.653 5.653 0 0 0 136.528 18.99 Z M 134.963 12.725 A 12.616 12.616 0 0 0 135.053 14.284 Q 135.151 15.07 135.356 15.72 A 5.463 5.463 0 0 0 135.8 16.763 A 3.128 3.128 0 0 0 136.51 17.64 Q 137.239 18.25 138.313 18.25 A 2.86 2.86 0 0 0 139.519 18.003 Q 140.139 17.719 140.585 17.106 A 3.686 3.686 0 0 0 140.763 16.838 A 5.343 5.343 0 0 0 141.336 15.446 Q 141.509 14.795 141.574 14.022 A 11.648 11.648 0 0 0 141.613 13.05 A 12.203 12.203 0 0 0 141.517 11.469 Q 141.411 10.666 141.191 10.002 A 5.475 5.475 0 0 0 140.763 9.025 A 3.288 3.288 0 0 0 140.095 8.179 Q 139.36 7.525 138.288 7.525 A 2.947 2.947 0 0 0 137.089 7.761 Q 136.437 8.047 135.972 8.683 A 3.671 3.671 0 0 0 135.825 8.9 A 4.958 4.958 0 0 0 135.269 10.188 Q 135.096 10.794 135.021 11.521 A 11.705 11.705 0 0 0 134.963 12.725 Z M 167.038 16.15 L 167.038 9.075 A 3.763 3.763 0 0 0 166.063 8.127 A 3.302 3.302 0 0 0 164.213 7.6 A 3.733 3.733 0 0 0 163.127 7.749 A 2.779 2.779 0 0 0 161.613 8.863 A 4.423 4.423 0 0 0 161.014 10.151 Q 160.842 10.742 160.777 11.452 A 9.861 9.861 0 0 0 160.738 12.35 Q 160.738 13.65 161.088 14.85 A 4.84 4.84 0 0 0 161.586 16.005 A 4.062 4.062 0 0 0 162.238 16.825 A 2.694 2.694 0 0 0 163.65 17.537 A 3.856 3.856 0 0 0 164.363 17.6 A 3.028 3.028 0 0 0 166.709 16.568 A 4.06 4.06 0 0 0 167.038 16.15 Z M 121.238 10.425 L 121.238 15.975 L 121.238 17.025 A 11.967 11.967 0 0 0 121.24 17.299 Q 121.246 17.545 121.263 17.725 A 12.28 12.28 0 0 0 122.182 17.879 Q 122.64 17.937 123.05 17.947 A 7.088 7.088 0 0 0 123.238 17.95 A 6.202 6.202 0 0 0 124.408 17.846 Q 125.511 17.634 126.225 16.988 A 3.01 3.01 0 0 0 127.062 15.656 Q 127.222 15.161 127.269 14.558 A 6.63 6.63 0 0 0 127.288 14.05 A 5.319 5.319 0 0 0 127.191 12.998 Q 127.069 12.394 126.793 11.935 A 2.621 2.621 0 0 0 126.188 11.238 A 3.347 3.347 0 0 0 125.196 10.701 Q 124.206 10.35 122.713 10.35 Q 122.413 10.35 122.025 10.363 Q 121.638 10.375 121.238 10.425 Z M 121.238 2.5 L 121.238 9.325 Q 121.436 9.35 121.597 9.35 A 1.388 1.388 0 0 0 121.6 9.35 L 121.913 9.35 A 10.543 10.543 0 0 0 123.09 9.289 Q 124.29 9.154 125.006 8.717 A 2.489 2.489 0 0 0 125.325 8.488 Q 126.338 7.625 126.338 5.875 A 4.848 4.848 0 0 0 126.151 4.469 Q 125.682 2.923 124.032 2.518 A 5.555 5.555 0 0 0 122.713 2.375 Q 122.338 2.375 122 2.413 Q 121.685 2.448 121.294 2.493 A 162.763 162.763 0 0 0 121.238 2.5 Z M 26.638 16.8 L 26.688 13.05 A 15.312 15.312 0 0 0 25.627 13.223 Q 24.172 13.519 23.525 14.025 A 2.332 2.332 0 0 0 22.951 14.661 A 2.079 2.079 0 0 0 22.663 15.75 Q 22.663 16.625 23.125 17.088 Q 23.588 17.55 24.288 17.55 A 2.424 2.424 0 0 0 24.718 17.509 Q 24.992 17.459 25.3 17.35 Q 25.687 17.213 26.174 17.004 A 25.415 25.415 0 0 0 26.638 16.8 Z M 62.913 16.8 L 62.963 13.05 A 15.312 15.312 0 0 0 61.902 13.223 Q 60.447 13.519 59.8 14.025 A 2.332 2.332 0 0 0 59.226 14.661 A 2.079 2.079 0 0 0 58.938 15.75 Q 58.938 16.625 59.4 17.088 Q 59.863 17.55 60.563 17.55 A 2.424 2.424 0 0 0 60.993 17.509 Q 61.267 17.459 61.575 17.35 Q 61.962 17.213 62.449 17.004 A 25.415 25.415 0 0 0 62.913 16.8 Z M 104.345 16.548 A 1.889 1.889 0 0 0 104.188 17.325 A 1.807 1.807 0 0 0 104.713 18.638 A 2.083 2.083 0 0 0 104.737 18.662 A 1.712 1.712 0 0 0 105.988 19.175 A 2.38 2.38 0 0 0 106.27 19.159 A 1.702 1.702 0 0 0 107.35 18.625 Q 107.863 18.075 107.863 17.325 A 1.84 1.84 0 0 0 107.75 16.681 A 1.969 1.969 0 0 0 107.35 16.038 A 1.651 1.651 0 0 0 106.611 15.564 A 2.078 2.078 0 0 0 105.988 15.475 A 2.072 2.072 0 0 0 105.952 15.475 A 1.713 1.713 0 0 0 104.713 16.013 A 1.828 1.828 0 0 0 104.345 16.548 Z" vector-effect="non-scaling-stroke"/></g></svg>