<svg width="685.5" height="101" viewBox="0 0 685.5 101" xmlns="http://www.w3.org/2000/svg"><g id="svgGroup" stroke-linecap="round" fill-rule="evenodd" font-size="9pt" stroke="#fffbfb" stroke-width="0.25mm" fill="#b0a5a5" style="stroke:#fffbfb;stroke-width:0.25mm;fill:#b0a5a5"><path d="M 60.35 76.2 L 15.85 17.8 L 15.85 60.6 Q 15.85 63.732 15.986 65.675 A 28.425 28.425 0 0 0 16.05 66.45 A 7.737 7.737 0 0 0 16.275 67.72 Q 16.586 68.87 17.25 69.6 Q 17.956 70.306 19.211 70.863 A 12.78 12.78 0 0 0 20.35 71.3 Q 22.45 72 26.35 72.4 Q 26.55 74 26.35 75.6 Q 23.35 75.6 19.7 75.5 A 324.022 324.022 0 0 0 17.124 75.439 Q 15.113 75.4 13.55 75.4 A 159.975 159.975 0 0 0 11.513 75.414 Q 9.681 75.438 7.4 75.5 Q 3.75 75.6 0.85 75.6 Q 0.55 74.1 0.85 72.4 Q 3.817 71.988 5.697 71.61 A 33.771 33.771 0 0 0 6.45 71.45 A 9.267 9.267 0 0 0 7.567 71.129 Q 8.109 70.933 8.535 70.684 A 3.663 3.663 0 0 0 9.35 70.05 Q 10.25 69.1 10.5 67.2 Q 10.726 65.484 10.748 62.545 A 86.665 86.665 0 0 0 10.75 61.9 L 10.75 20.9 A 104.045 104.045 0 0 0 10.726 18.566 Q 10.679 16.517 10.546 15.061 A 27.435 27.435 0 0 0 10.5 14.6 A 9.385 9.385 0 0 0 10.266 13.275 Q 10.094 12.608 9.827 12.077 A 4.069 4.069 0 0 0 9.2 11.15 A 4.714 4.714 0 0 0 8.071 10.259 Q 7.209 9.759 6 9.45 A 24.291 24.291 0 0 0 4.495 9.121 Q 2.663 8.775 0.05 8.5 Q -0.05 7 0.05 5.4 Q 3.15 5.4 6.65 5.5 Q 10.15 5.6 13.65 5.6 L 16.4 5.6 Q 18.334 5.6 19.861 5.526 A 46.914 46.914 0 0 0 20.35 5.5 L 60.95 58.9 L 60.95 20.5 Q 60.95 17.368 60.848 15.391 A 40.116 40.116 0 0 0 60.8 14.6 Q 60.65 12.5 59.55 11.5 Q 57.599 9.456 50.556 8.793 A 58.482 58.482 0 0 0 49.45 8.7 Q 49.15 7 49.45 5.5 A 178.689 178.689 0 0 1 50.98 5.507 Q 51.662 5.513 52.417 5.524 A 342.03 342.03 0 0 1 54 5.55 Q 56.65 5.6 59.15 5.65 Q 61.65 5.7 63.25 5.7 A 148.758 148.758 0 0 0 64.575 5.694 Q 66.675 5.675 69.45 5.6 Q 72.63 5.514 75.219 5.502 A 178.159 178.159 0 0 1 76.05 5.5 Q 76.25 7 76.05 8.6 Q 72.357 9.062 70.263 9.612 A 13.643 13.643 0 0 0 69.15 9.95 A 4.581 4.581 0 0 0 67.847 10.65 A 3.65 3.65 0 0 0 66.55 12.7 A 11.819 11.819 0 0 0 66.32 13.939 Q 66.05 15.895 66.05 19.2 L 66.05 75.7 A 14.992 14.992 0 0 1 65.357 75.82 Q 64.574 75.938 63.504 76.036 A 50.835 50.835 0 0 1 63.35 76.05 Q 61.889 76.179 60.724 76.197 A 24.027 24.027 0 0 1 60.35 76.2 Z M 202.45 65.1 L 202.45 44.9 A 31.233 31.233 0 0 0 202.304 41.766 Q 201.93 38.07 200.6 35.95 A 5.548 5.548 0 0 0 197.98 33.796 Q 196.985 33.373 195.712 33.175 A 16.045 16.045 0 0 0 193.25 33 Q 190.35 33 187.65 34.05 Q 185.556 34.865 183.22 36.732 A 30.045 30.045 0 0 0 181.85 37.9 L 181.85 64.1 Q 181.85 68 182.3 69.7 A 3.765 3.765 0 0 0 182.691 70.661 A 2.588 2.588 0 0 0 184.2 71.85 Q 185.324 72.199 187.441 72.398 A 45.188 45.188 0 0 0 188.75 72.5 Q 189.211 73.883 188.822 75.351 A 5.917 5.917 0 0 1 188.75 75.6 Q 186.25 75.6 183.25 75.5 Q 180.25 75.4 176.55 75.4 A 234.103 234.103 0 0 0 173.257 75.422 Q 171.711 75.444 170.339 75.487 A 135.652 135.652 0 0 0 169.95 75.5 Q 167.05 75.6 164.05 75.6 Q 163.75 74 164.05 72.5 Q 166.744 72.342 168.308 72.026 A 10.218 10.218 0 0 0 169.05 71.85 A 3.357 3.357 0 0 0 170.095 71.365 Q 170.838 70.838 171.15 69.9 A 7.109 7.109 0 0 0 171.392 68.914 Q 171.584 67.838 171.633 66.245 A 37.363 37.363 0 0 0 171.65 65.1 L 171.65 16.9 Q 171.65 14 171.55 12.25 A 6.74 6.74 0 0 0 171.399 11.135 Q 171.175 10.156 170.65 9.5 Q 169.85 8.4 168.35 7.95 Q 167.21 7.608 165.032 7.353 A 57.51 57.51 0 0 0 163.55 7.2 Q 163.259 5.941 163.532 4.587 A 7.194 7.194 0 0 1 163.55 4.5 Q 167.55 4 171.65 2.95 A 58.826 58.826 0 0 0 176.421 1.5 A 75.026 75.026 0 0 0 180.35 0 L 182.05 0.6 Q 181.95 2.8 181.9 5.55 Q 181.85 8.3 181.85 11.6 L 181.85 33.8 A 35.849 35.849 0 0 1 185.464 30.821 Q 187.448 29.405 189.401 28.498 A 19.563 19.563 0 0 1 190.7 27.95 A 26.314 26.314 0 0 1 195.223 26.663 A 20.93 20.93 0 0 1 199.05 26.3 A 17.887 17.887 0 0 1 203.047 26.72 Q 205.919 27.378 207.971 29.068 A 10.872 10.872 0 0 1 209.15 30.2 A 12.646 12.646 0 0 1 211.773 34.945 Q 212.65 37.746 212.65 41.4 L 212.65 64.1 Q 212.65 68 213.1 69.7 A 3.632 3.632 0 0 0 213.508 70.681 A 2.635 2.635 0 0 0 215.05 71.85 A 9.726 9.726 0 0 0 216.005 72.077 Q 217 72.268 218.444 72.396 A 50.428 50.428 0 0 0 219.85 72.5 Q 220.05 74 219.85 75.6 Q 216.85 75.6 214 75.5 A 146.175 146.175 0 0 0 211.729 75.439 Q 209.725 75.4 207.35 75.4 A 235.992 235.992 0 0 0 204.709 75.414 Q 202.619 75.438 200.9 75.5 Q 198.15 75.6 195.35 75.6 Q 195.15 74 195.35 72.5 Q 197.86 72.338 199.321 72.012 A 9.063 9.063 0 0 0 199.95 71.85 A 3.032 3.032 0 0 0 201.096 71.234 Q 201.675 70.726 201.95 69.9 A 7.109 7.109 0 0 0 202.192 68.914 Q 202.384 67.838 202.433 66.245 A 37.363 37.363 0 0 0 202.45 65.1 Z M 380.25 64.4 L 380.25 9.8 L 373.05 9.8 A 31.616 31.616 0 0 0 369.957 9.942 Q 368.402 10.095 367.104 10.414 A 12.614 12.614 0 0 0 364.7 11.25 Q 361.65 12.7 359.8 15.6 A 32.381 32.381 0 0 0 358.42 18 Q 357.275 20.188 356.15 23 Q 355.344 23.101 354.538 23.1 A 12.888 12.888 0 0 1 352.95 23 L 354.1 13.8 Q 354.65 9.4 355.05 5.3 Q 361.55 5.7 369.45 5.75 Q 377.35 5.8 385.85 5.8 Q 394.45 5.8 402.4 5.75 Q 410.35 5.7 416.75 5.3 Q 417.15 9.3 417.55 13.75 Q 417.95 18.2 418.55 23 Q 416.85 23.2 415.25 23 Q 413.805 19.501 412.359 16.985 A 29.823 29.823 0 0 0 411.45 15.5 A 12.125 12.125 0 0 0 408.3 12.192 A 11.46 11.46 0 0 0 406.6 11.2 A 12.054 12.054 0 0 0 404.294 10.403 Q 401.828 9.8 398.35 9.8 L 391.25 9.8 L 391.25 63.1 A 78.341 78.341 0 0 0 391.27 64.911 Q 391.306 66.502 391.413 67.64 A 21.173 21.173 0 0 0 391.45 68 A 6.127 6.127 0 0 0 391.635 68.981 Q 391.782 69.505 392.021 69.908 A 2.685 2.685 0 0 0 392.6 70.6 A 3.709 3.709 0 0 0 393.389 71.097 Q 394.184 71.478 395.38 71.702 A 13.636 13.636 0 0 0 395.65 71.75 A 40.174 40.174 0 0 0 397.119 71.964 Q 398.906 72.194 401.45 72.4 Q 401.75 74 401.45 75.6 Q 400.006 75.6 398.161 75.576 A 425.787 425.787 0 0 1 396.4 75.55 Q 393.45 75.5 390.55 75.45 A 407.238 407.238 0 0 0 388.502 75.42 Q 387.701 75.41 386.988 75.405 A 195.973 195.973 0 0 0 385.65 75.4 Q 383.75 75.4 380.9 75.45 Q 378.05 75.5 375.1 75.55 Q 373.072 75.584 371.446 75.595 A 211.848 211.848 0 0 1 370.05 75.6 Q 369.863 74.194 370.027 72.612 A 15.465 15.465 0 0 1 370.05 72.4 Q 374.654 71.94 376.8 71.522 A 19.235 19.235 0 0 0 377.15 71.45 Q 378.451 71.171 379.138 70.489 A 2.478 2.478 0 0 0 379.75 69.5 A 6.796 6.796 0 0 0 379.98 68.555 Q 380.162 67.54 380.221 66.013 A 41.625 41.625 0 0 0 380.25 64.4 Z M 312.05 65.1 L 312.05 44.9 A 31.233 31.233 0 0 0 311.904 41.766 Q 311.53 38.07 310.2 35.95 A 5.548 5.548 0 0 0 307.58 33.796 Q 306.585 33.373 305.312 33.175 A 16.045 16.045 0 0 0 302.85 33 Q 299.95 33 297.25 34.05 Q 294.55 35.1 291.35 38 L 291.35 64.1 Q 291.35 68 291.8 69.7 A 3.632 3.632 0 0 0 292.208 70.681 A 2.635 2.635 0 0 0 293.75 71.85 Q 294.913 72.199 297.098 72.398 A 48.168 48.168 0 0 0 298.45 72.5 Q 298.65 74 298.45 75.6 A 173.088 173.088 0 0 1 294.109 75.544 A 196.739 196.739 0 0 1 292.6 75.5 Q 289.55 75.4 286.05 75.4 Q 282.85 75.4 279.75 75.5 Q 276.65 75.6 273.65 75.6 Q 273.35 74 273.65 72.5 Q 276.344 72.342 277.908 72.026 A 10.218 10.218 0 0 0 278.65 71.85 A 3.357 3.357 0 0 0 279.695 71.365 Q 280.438 70.838 280.75 69.9 A 7.109 7.109 0 0 0 280.992 68.914 Q 281.184 67.838 281.233 66.245 A 37.363 37.363 0 0 0 281.25 65.1 L 281.25 42.7 Q 281.25 39.547 281.021 37.702 A 13.847 13.847 0 0 0 280.9 36.9 A 4.271 4.271 0 0 0 280.5 35.695 A 3.228 3.228 0 0 0 279 34.25 A 7.715 7.715 0 0 0 277.992 33.859 Q 276.868 33.5 275.152 33.211 A 43.694 43.694 0 0 0 273.75 33 A 6.741 6.741 0 0 1 273.615 32.061 Q 273.553 31.188 273.75 30.4 A 94.116 94.116 0 0 0 283.953 27.806 A 78.475 78.475 0 0 0 289.55 25.8 L 291.25 26.4 L 291.25 33.9 A 37.891 37.891 0 0 1 294.954 30.9 Q 296.967 29.482 298.939 28.56 A 20.762 20.762 0 0 1 300.25 28 A 26.45 26.45 0 0 1 304.681 26.699 A 20.574 20.574 0 0 1 308.65 26.3 A 17.887 17.887 0 0 1 312.647 26.72 Q 315.519 27.378 317.571 29.068 A 10.872 10.872 0 0 1 318.75 30.2 A 12.646 12.646 0 0 1 321.373 34.945 Q 322.25 37.746 322.25 41.4 L 322.25 64.1 Q 322.25 68 322.7 69.7 A 3.632 3.632 0 0 0 323.108 70.681 A 2.635 2.635 0 0 0 324.65 71.85 A 9.726 9.726 0 0 0 325.605 72.077 Q 326.6 72.268 328.044 72.396 A 50.428 50.428 0 0 0 329.45 72.5 Q 329.65 74 329.45 75.6 Q 326.45 75.6 323.6 75.5 A 146.175 146.175 0 0 0 321.329 75.439 Q 319.325 75.4 316.95 75.4 A 235.992 235.992 0 0 0 314.309 75.414 Q 312.219 75.438 310.5 75.5 Q 307.75 75.6 304.95 75.6 Q 304.75 74 304.95 72.5 Q 307.46 72.338 308.921 72.012 A 9.063 9.063 0 0 0 309.55 71.85 A 3.032 3.032 0 0 0 310.696 71.234 Q 311.275 70.726 311.55 69.9 A 7.109 7.109 0 0 0 311.792 68.914 Q 311.984 67.838 312.033 66.245 A 37.363 37.363 0 0 0 312.05 65.1 Z M 624.25 37.5 L 607.15 77.4 Q 606.65 78.6 605.35 81.45 Q 604.05 84.3 602.6 87.35 Q 601.15 90.4 600.15 92.4 Q 597.95 96.712 595.828 98.662 A 8.762 8.762 0 0 1 595.25 99.15 A 9.287 9.287 0 0 1 592.934 100.478 A 7.653 7.653 0 0 1 590.15 101 A 7.551 7.551 0 0 1 588.513 100.833 Q 587.395 100.585 586.575 99.967 A 4.464 4.464 0 0 1 586 99.45 Q 584.55 97.9 584.55 95.8 Q 584.55 93.484 586.602 91.272 A 13.286 13.286 0 0 1 587.55 90.35 Q 590.363 87.865 596.518 87.71 A 33.115 33.115 0 0 1 597.35 87.7 A 72.461 72.461 0 0 0 599.193 84.213 A 84.57 84.57 0 0 0 599.9 82.75 A 173.246 173.246 0 0 0 600.901 80.587 Q 601.788 78.638 602.85 76.2 Q 601.75 73.4 600.05 69 Q 598.35 64.6 596.2 59.25 A 706.09 706.09 0 0 1 592.399 49.581 A 778.216 778.216 0 0 1 591.85 48.15 A 2200.08 2200.08 0 0 0 587.813 37.676 A 2009.055 2009.055 0 0 0 587.55 37 A 19.877 19.877 0 0 0 586.855 35.358 Q 586.095 33.779 585.245 32.917 A 4.635 4.635 0 0 0 584.9 32.6 Q 583.753 31.65 580.946 31.202 A 26.355 26.355 0 0 0 579.35 31 A 6.893 6.893 0 0 1 579.204 29.765 Q 579.184 29.121 579.271 28.424 A 10.484 10.484 0 0 1 579.35 27.9 Q 582.25 27.9 585.25 28 A 184.016 184.016 0 0 0 590.653 28.098 A 202.423 202.423 0 0 0 591.45 28.1 Q 594.35 28.1 597.75 28 A 276.312 276.312 0 0 1 600.159 27.939 Q 602.05 27.9 603.55 27.9 Q 603.75 29.4 603.55 31 A 43.76 43.76 0 0 0 601.978 31.119 Q 599.813 31.325 598.8 31.7 A 2.247 2.247 0 0 0 598.074 32.123 Q 597.599 32.548 597.485 33.24 A 2.85 2.85 0 0 0 597.45 33.7 A 5.953 5.953 0 0 0 597.525 34.578 Q 597.668 35.524 598.084 36.881 A 34.466 34.466 0 0 0 598.45 38 Q 601.05 45.1 603.5 51.1 Q 605.95 57.1 608.45 63.4 A 1288.576 1288.576 0 0 0 611.285 56.886 Q 612.798 53.381 614.1 50.3 A 580.979 580.979 0 0 0 617.803 41.319 A 648.402 648.402 0 0 0 619.05 38.2 A 30.923 30.923 0 0 0 619.531 36.844 Q 619.96 35.533 620.091 34.626 A 5.094 5.094 0 0 0 620.15 33.9 Q 620.15 32.782 619.193 32.174 A 3.289 3.289 0 0 0 618.65 31.9 Q 617.175 31.31 613.476 31.01 A 59.648 59.648 0 0 0 613.35 31 Q 613.05 29.4 613.35 27.9 Q 615.85 27.9 618.5 28 A 140.15 140.15 0 0 0 621.949 28.086 A 168.436 168.436 0 0 0 624.15 28.1 Q 626.15 28.1 628.5 28 Q 630.85 27.9 632.75 27.9 Q 633.05 29.4 632.75 31 A 19.397 19.397 0 0 0 630.819 31.228 Q 628.887 31.564 627.766 32.275 A 3.889 3.889 0 0 0 627.05 32.85 A 9.757 9.757 0 0 0 625.998 34.164 Q 625.083 35.514 624.25 37.5 Z M 473.95 64.4 L 473.95 17.9 Q 473.95 14.669 473.654 12.858 A 9.091 9.091 0 0 0 473.45 11.9 Q 472.95 10.1 470.9 9.55 Q 469.354 9.135 466.36 8.806 A 93.301 93.301 0 0 0 464.25 8.6 Q 464.063 7.194 464.227 5.612 A 15.465 15.465 0 0 1 464.25 5.4 Q 465.694 5.4 467.516 5.424 A 406.969 406.969 0 0 1 469.25 5.45 Q 472.15 5.5 475 5.55 Q 477.781 5.599 479.658 5.6 A 147.084 147.084 0 0 0 479.75 5.6 Q 482.414 5.6 485.78 5.526 A 408.014 408.014 0 0 0 486.9 5.5 A 473.269 473.269 0 0 1 488.822 5.456 Q 490.697 5.418 492.134 5.405 A 145.149 145.149 0 0 1 493.35 5.4 A 59.534 59.534 0 0 1 499.714 5.716 Q 507.209 6.525 511.45 9.4 A 12.792 12.792 0 0 1 517.202 18.685 A 17.581 17.581 0 0 1 517.35 21 A 15.285 15.285 0 0 1 510.427 34.251 Q 507.8 36.079 504.176 37.386 A 39.576 39.576 0 0 1 501.65 38.2 L 501.65 38.3 A 29.126 29.126 0 0 1 508.328 39.557 A 25.477 25.477 0 0 1 511.5 40.8 A 18.322 18.322 0 0 1 517.385 45.119 A 17.656 17.656 0 0 1 518.65 46.7 A 14.321 14.321 0 0 1 521.016 52.385 A 19.778 19.778 0 0 1 521.35 56.1 A 19.302 19.302 0 0 1 520.482 62.005 A 16.041 16.041 0 0 1 517.05 67.95 Q 512.75 72.7 506.35 74.4 A 38.235 38.235 0 0 1 502.311 75.173 A 45.01 45.01 0 0 1 500.35 75.4 A 69.197 69.197 0 0 1 495.761 75.671 A 81.997 81.997 0 0 1 493.55 75.7 Q 490.05 75.7 486.3 75.55 Q 483.077 75.421 480.482 75.403 A 119.197 119.197 0 0 0 479.65 75.4 Q 478.425 75.4 476.438 75.429 A 518.327 518.327 0 0 0 475.15 75.45 Q 472.25 75.5 469.25 75.55 Q 466.323 75.599 464.347 75.6 A 162.975 162.975 0 0 1 464.25 75.6 Q 464.063 74.194 464.227 72.612 A 15.465 15.465 0 0 1 464.25 72.4 Q 467.793 72.023 469.802 71.675 A 23.962 23.962 0 0 0 470.95 71.45 A 4.663 4.663 0 0 0 471.981 71.098 A 2.72 2.72 0 0 0 473.45 69.45 A 7.417 7.417 0 0 0 473.686 68.457 Q 473.95 66.943 473.95 64.4 Z M 670.25 76.8 L 668.65 76.1 L 668.25 69.2 Q 664.996 72.733 661.613 74.58 A 18.898 18.898 0 0 1 661.1 74.85 A 17.33 17.33 0 0 1 653.885 76.683 A 20.436 20.436 0 0 1 653.05 76.7 A 19.349 19.349 0 0 1 646.649 75.669 A 17.304 17.304 0 0 1 642.2 73.35 Q 637.55 70 635.05 64.6 Q 632.55 59.2 632.55 52.9 A 29.303 29.303 0 0 1 633.972 43.677 A 26.774 26.774 0 0 1 635.7 39.6 Q 638.85 33.6 644.6 29.95 Q 650.35 26.3 658.05 26.3 Q 660.35 26.3 662.85 26.65 A 34.023 34.023 0 0 1 666.382 27.344 A 40.15 40.15 0 0 1 668.05 27.8 L 668.05 15 A 25.744 25.744 0 0 0 668.003 13.379 Q 667.881 11.464 667.45 10.35 A 3.629 3.629 0 0 0 665.619 8.375 A 5.106 5.106 0 0 0 665.1 8.15 Q 663.578 7.585 660.733 7.284 A 44.955 44.955 0 0 0 659.85 7.2 Q 659.559 5.941 659.832 4.587 A 7.194 7.194 0 0 1 659.85 4.5 A 68.244 68.244 0 0 0 666.938 3.219 A 76.126 76.126 0 0 0 668.05 2.95 A 53.742 53.742 0 0 0 674.327 0.949 A 62.773 62.773 0 0 0 676.65 0 L 678.35 0.6 A 151.049 151.049 0 0 0 678.267 2.794 Q 678.232 3.948 678.207 5.231 A 252.996 252.996 0 0 0 678.2 5.6 Q 678.15 8.4 678.15 11.7 L 678.15 61.3 Q 678.15 65.1 678.45 67 A 4.289 4.289 0 0 0 678.795 68.164 A 3.092 3.092 0 0 0 680.25 69.65 Q 681.397 70.224 683.773 70.709 A 43.984 43.984 0 0 0 685.35 71 Q 685.641 72.259 685.368 73.613 A 7.194 7.194 0 0 1 685.35 73.7 Q 681.35 74.3 677.55 75 Q 673.75 75.7 670.25 76.8 Z M 111.525 75.978 A 9.888 9.888 0 0 0 114.85 76.5 Q 117.65 76.5 120.4 75.3 A 13.877 13.877 0 0 0 123.333 73.539 A 19.058 19.058 0 0 0 125.65 71.4 Q 125.55 70.9 125.4 70.3 Q 125.25 69.7 124.85 69.2 Q 121.15 70.4 119.35 70.4 Q 117.141 70.4 116.675 68.408 A 5.322 5.322 0 0 1 116.55 67.2 A 126.934 126.934 0 0 1 116.551 66.677 Q 116.561 64.389 116.65 60.9 Q 116.75 57 116.8 52.65 Q 116.85 48.3 116.95 44.45 Q 117.025 41.563 117.044 39.491 A 143.145 143.145 0 0 0 117.05 38.2 Q 117.05 34.3 115.1 31.65 Q 113.15 29 110 27.65 A 16.165 16.165 0 0 0 108.185 26.997 A 17.785 17.785 0 0 0 103.15 26.3 A 20.869 20.869 0 0 0 102.505 26.31 Q 99.747 26.395 96.35 27.2 Q 92.55 28.1 89.05 29.65 A 23.617 23.617 0 0 0 86.043 31.235 A 17.199 17.199 0 0 0 83.3 33.35 Q 82.386 34.223 81.843 35.138 A 5.343 5.343 0 0 0 81.05 37.9 A 5.147 5.147 0 0 0 81.05 37.956 A 4.143 4.143 0 0 0 82.3 40.95 A 4.018 4.018 0 0 0 82.313 40.963 Q 83.561 42.2 85.75 42.2 Q 88.25 42.2 90 40.55 Q 91.75 38.9 92.75 36.5 A 14.182 14.182 0 0 0 93.236 35.149 A 11.534 11.534 0 0 0 93.75 31.8 Q 94.833 31.319 96.205 31.127 A 14.072 14.072 0 0 1 98.15 31 A 12.25 12.25 0 0 1 99.516 31.074 A 9.448 9.448 0 0 1 104.3 32.95 Q 106.85 34.9 106.85 38.4 Q 106.85 41.2 106.8 43.7 Q 106.75 46.2 106.75 48.6 Q 79.85 52 79.85 65.2 Q 79.85 70.6 83.4 73.65 A 12.243 12.243 0 0 0 87.473 75.984 A 14.146 14.146 0 0 0 92.05 76.7 Q 97.022 76.7 101.858 73.63 A 30.32 30.32 0 0 0 106.55 69.9 Q 107.772 74.644 111.525 75.978 Z M 256.625 75.978 A 9.888 9.888 0 0 0 259.95 76.5 Q 262.75 76.5 265.5 75.3 A 13.877 13.877 0 0 0 268.433 73.539 A 19.058 19.058 0 0 0 270.75 71.4 Q 270.65 70.9 270.5 70.3 Q 270.35 69.7 269.95 69.2 Q 266.25 70.4 264.45 70.4 Q 262.241 70.4 261.775 68.408 A 5.322 5.322 0 0 1 261.65 67.2 A 126.934 126.934 0 0 1 261.651 66.677 Q 261.661 64.389 261.75 60.9 Q 261.85 57 261.9 52.65 Q 261.95 48.3 262.05 44.45 Q 262.125 41.563 262.144 39.491 A 143.145 143.145 0 0 0 262.15 38.2 Q 262.15 34.3 260.2 31.65 Q 258.25 29 255.1 27.65 A 16.165 16.165 0 0 0 253.285 26.997 A 17.785 17.785 0 0 0 248.25 26.3 A 20.869 20.869 0 0 0 247.605 26.31 Q 244.847 26.395 241.45 27.2 Q 237.65 28.1 234.15 29.65 A 23.617 23.617 0 0 0 231.143 31.235 A 17.199 17.199 0 0 0 228.4 33.35 Q 227.486 34.223 226.943 35.138 A 5.343 5.343 0 0 0 226.15 37.9 A 5.147 5.147 0 0 0 226.15 37.956 A 4.143 4.143 0 0 0 227.4 40.95 A 4.018 4.018 0 0 0 227.413 40.963 Q 228.661 42.2 230.85 42.2 Q 233.35 42.2 235.1 40.55 Q 236.85 38.9 237.85 36.5 A 14.182 14.182 0 0 0 238.336 35.149 A 11.534 11.534 0 0 0 238.85 31.8 Q 239.933 31.319 241.305 31.127 A 14.072 14.072 0 0 1 243.25 31 A 12.25 12.25 0 0 1 244.616 31.074 A 9.448 9.448 0 0 1 249.4 32.95 Q 251.95 34.9 251.95 38.4 Q 251.95 41.2 251.9 43.7 Q 251.85 46.2 251.85 48.6 Q 224.95 52 224.95 65.2 Q 224.95 70.6 228.5 73.65 A 12.243 12.243 0 0 0 232.573 75.984 A 14.146 14.146 0 0 0 237.15 76.7 Q 242.122 76.7 246.958 73.63 A 30.32 30.32 0 0 0 251.65 69.9 Q 252.872 74.644 256.625 75.978 Z M 135.15 32.8 L 127.55 32.8 Q 127.288 31.488 127.484 30.405 A 4.786 4.786 0 0 1 127.55 30.1 Q 137.45 25.9 142.45 16.4 Q 143.25 16.4 144.05 16.45 A 17.457 17.457 0 0 1 144.712 16.503 Q 145.012 16.534 145.277 16.573 A 9.606 9.606 0 0 1 145.45 16.6 Q 145.35 19.2 145.3 22.1 Q 145.25 25 145.15 28.2 L 160.35 28.2 Q 160.65 30.4 160.35 32.8 L 145.15 32.8 Q 144.95 39.8 144.9 47.55 Q 144.85 55.3 144.85 63.1 Q 144.85 71.2 153.25 71.2 Q 156.85 71.2 159.95 69.3 A 5.373 5.373 0 0 1 160.787 70.985 A 7.336 7.336 0 0 1 161.05 72.3 Q 155.15 76.7 147.75 76.7 A 20.471 20.471 0 0 1 143.92 76.363 Q 141.707 75.941 139.956 74.991 A 11.036 11.036 0 0 1 138.25 73.85 A 9.219 9.219 0 0 1 134.997 68.289 A 13.915 13.915 0 0 1 134.75 65.6 Q 134.75 56.8 134.9 48.6 Q 135.05 40.4 135.15 32.8 Z M 546.112 75.961 A 28.58 28.58 0 0 0 552.75 76.7 A 30.297 30.297 0 0 0 556.873 76.428 A 23.515 23.515 0 0 0 565.85 73.35 Q 571.45 70 574.6 64.15 A 25.505 25.505 0 0 0 576.64 59.158 A 29.115 29.115 0 0 0 577.75 51 A 31.38 31.38 0 0 0 577.596 47.86 A 25.413 25.413 0 0 0 574.75 38.3 Q 571.75 32.7 566.35 29.5 Q 560.95 26.3 553.65 26.3 A 31.45 31.45 0 0 0 549.947 26.513 A 24.997 24.997 0 0 0 540.55 29.5 Q 534.85 32.7 531.7 38.5 A 25.053 25.053 0 0 0 529.242 45.227 A 32.632 32.632 0 0 0 528.55 52.1 A 31.521 31.521 0 0 0 528.787 56.019 A 24.899 24.899 0 0 0 531.55 64.85 Q 534.55 70.4 540 73.55 A 22.613 22.613 0 0 0 546.112 75.961 Z M 539.85 50.9 A 50.465 50.465 0 0 0 540.211 57.136 Q 540.603 60.279 541.422 62.881 A 21.851 21.851 0 0 0 543.2 67.05 A 12.513 12.513 0 0 0 546.04 70.558 Q 548.958 73 553.25 73 Q 559.65 73 563.05 67.35 Q 565.723 62.908 566.294 56.087 A 46.591 46.591 0 0 0 566.45 52.2 A 48.811 48.811 0 0 0 566.066 45.877 Q 565.308 40.084 563.05 36.1 A 13.154 13.154 0 0 0 560.381 32.715 Q 557.533 30.182 553.417 30.103 A 13.878 13.878 0 0 0 553.15 30.1 A 11.786 11.786 0 0 0 548.356 31.043 Q 545.748 32.19 543.889 34.731 A 14.683 14.683 0 0 0 543.3 35.6 A 19.832 19.832 0 0 0 541.074 40.75 Q 539.85 45.062 539.85 50.9 Z M 668.15 64.6 L 668.15 36.3 A 15.054 15.054 0 0 0 664.253 32.507 A 13.209 13.209 0 0 0 656.85 30.4 A 14.932 14.932 0 0 0 652.508 30.997 A 11.117 11.117 0 0 0 646.45 35.45 Q 643.69 39.432 643.107 45.808 A 39.443 39.443 0 0 0 642.95 49.4 Q 642.95 54.6 644.35 59.4 Q 645.75 64.2 648.95 67.3 A 10.776 10.776 0 0 0 654.598 70.148 A 15.423 15.423 0 0 0 657.45 70.4 A 12.111 12.111 0 0 0 666.834 66.271 A 16.238 16.238 0 0 0 668.15 64.6 Z M 484.95 41.7 L 484.95 63.9 L 484.95 68.1 A 47.867 47.867 0 0 0 484.962 69.198 Q 484.984 70.178 485.05 70.9 A 49.121 49.121 0 0 0 488.728 71.515 Q 490.559 71.747 492.202 71.79 A 28.353 28.353 0 0 0 492.95 71.8 A 24.808 24.808 0 0 0 497.632 71.385 Q 502.045 70.537 504.9 67.95 Q 509.15 64.1 509.15 56.2 Q 509.15 48.5 504.75 44.95 Q 500.528 41.544 491.612 41.406 A 49.205 49.205 0 0 0 490.85 41.4 A 69.289 69.289 0 0 0 489.733 41.41 Q 489.162 41.419 488.529 41.437 A 118.462 118.462 0 0 0 488.1 41.45 Q 486.55 41.5 484.95 41.7 Z M 484.95 10 L 484.95 37.3 A 13.866 13.866 0 0 0 485.701 37.374 Q 486.064 37.4 486.39 37.4 A 8.335 8.335 0 0 0 486.4 37.4 L 487.65 37.4 A 42.174 42.174 0 0 0 492.358 37.157 Q 497.16 36.615 500.024 34.869 A 9.956 9.956 0 0 0 501.3 33.95 A 10.903 10.903 0 0 0 504.682 28.602 Q 505.35 26.344 505.35 23.5 A 19.393 19.393 0 0 0 504.606 17.875 Q 502.73 11.692 496.126 10.074 A 22.22 22.22 0 0 0 490.85 9.5 Q 489.35 9.5 488 9.65 A 398.731 398.731 0 0 0 486.657 9.802 Q 485.853 9.894 484.95 10 Z M 106.55 67.2 L 106.75 52.2 A 61.249 61.249 0 0 0 102.509 52.894 Q 96.688 54.075 94.1 56.1 A 9.329 9.329 0 0 0 91.803 58.645 A 8.316 8.316 0 0 0 90.65 63 Q 90.65 66.5 92.5 68.35 A 6.245 6.245 0 0 0 96.847 70.194 A 8.247 8.247 0 0 0 97.15 70.2 Q 98.95 70.2 101.2 69.4 A 50.985 50.985 0 0 0 103.007 68.716 Q 103.81 68.395 104.696 68.016 A 101.656 101.656 0 0 0 106.55 67.2 Z M 251.65 67.2 L 251.85 52.2 A 61.249 61.249 0 0 0 247.609 52.894 Q 241.788 54.075 239.2 56.1 A 9.329 9.329 0 0 0 236.903 58.645 A 8.316 8.316 0 0 0 235.75 63 Q 235.75 66.5 237.6 68.35 A 6.245 6.245 0 0 0 241.947 70.194 A 8.247 8.247 0 0 0 242.25 70.2 Q 244.05 70.2 246.3 69.4 A 50.985 50.985 0 0 0 248.107 68.716 Q 248.91 68.395 249.796 68.016 A 101.656 101.656 0 0 0 251.65 67.2 Z M 417.378 66.193 A 7.555 7.555 0 0 0 416.75 69.3 A 11.455 11.455 0 0 0 416.75 69.303 A 7.229 7.229 0 0 0 418.85 74.55 A 8.328 8.328 0 0 0 418.949 74.65 A 6.85 6.85 0 0 0 423.95 76.7 A 9.52 9.52 0 0 0 425.082 76.635 A 6.807 6.807 0 0 0 429.4 74.5 A 7.37 7.37 0 0 0 431.45 69.347 A 8.748 8.748 0 0 0 431.45 69.3 A 7.359 7.359 0 0 0 431 66.724 A 7.876 7.876 0 0 0 429.4 64.15 A 6.606 6.606 0 0 0 426.445 62.257 A 8.312 8.312 0 0 0 423.95 61.9 Q 420.95 61.9 418.85 64.05 A 7.313 7.313 0 0 0 417.378 66.193 Z" vector-effect="non-scaling-stroke"/></g></svg>