<svg width="1371" height="202" viewBox="0 0 1371 202" xmlns="http://www.w3.org/2000/svg"><g id="svgGroup" stroke-linecap="round" fill-rule="evenodd" font-size="9pt" stroke="#ffffff" stroke-width="0.25mm" fill="#ffffff" style="stroke:#ffffff;stroke-width:0.25mm;fill:#ffffff"><path d="M 120.7 152.4 L 31.7 35.6 L 31.7 121.2 Q 31.7 128.8 32.1 132.9 Q 32.392 135.894 33.537 137.875 A 7.666 7.666 0 0 0 34.5 139.2 A 10.266 10.266 0 0 0 36.298 140.609 Q 38.067 141.722 40.7 142.6 A 31.793 31.793 0 0 0 43.677 143.416 Q 46.823 144.133 51.225 144.64 A 119.401 119.401 0 0 0 52.7 144.8 Q 53.1 148 52.7 151.2 Q 46.7 151.2 39.4 151 Q 34.381 150.863 30.45 150.82 A 307.546 307.546 0 0 0 27.1 150.8 Q 22.1 150.8 14.8 151 A 578.462 578.462 0 0 1 8.286 151.144 Q 5.219 151.193 2.477 151.199 A 345.118 345.118 0 0 1 1.7 151.2 Q 1.156 148.481 1.598 145.434 A 20.921 20.921 0 0 1 1.7 144.8 A 261.424 261.424 0 0 0 5.1 144.306 Q 9.9 143.575 12.9 142.9 Q 16.9 142 18.7 140.1 A 7.233 7.233 0 0 0 20.021 138.084 Q 20.718 136.545 21 134.4 Q 21.452 130.968 21.495 125.09 A 173.331 173.331 0 0 0 21.5 123.8 L 21.5 41.8 A 208.09 208.09 0 0 0 21.451 37.132 Q 21.344 32.363 21 29.2 A 18.769 18.769 0 0 0 20.531 26.55 Q 20.188 25.215 19.655 24.153 A 8.138 8.138 0 0 0 18.4 22.3 Q 16.3 20 12 18.9 A 48.582 48.582 0 0 0 8.99 18.242 Q 5.325 17.55 0.1 17 Q -0.1 14 0.1 10.8 Q 6.3 10.8 13.3 11 Q 20.3 11.2 27.3 11.2 L 32.8 11.2 A 171.618 171.618 0 0 0 36.527 11.162 Q 38.222 11.125 39.722 11.052 A 93.828 93.828 0 0 0 40.7 11 L 121.9 117.8 L 121.9 41 A 323.74 323.74 0 0 0 121.881 37.412 Q 121.838 33.537 121.696 30.782 A 80.229 80.229 0 0 0 121.6 29.2 Q 121.397 26.357 120.324 24.523 A 6.424 6.424 0 0 0 119.1 23 A 10.54 10.54 0 0 0 116.036 20.888 Q 111.171 18.533 101.112 17.587 A 116.967 116.967 0 0 0 98.9 17.4 A 19.404 19.404 0 0 1 98.611 14.729 Q 98.541 12.793 98.9 11 A 357.379 357.379 0 0 1 101.961 11.014 Q 103.324 11.026 104.834 11.047 A 684.062 684.062 0 0 1 108 11.1 Q 113.3 11.2 118.3 11.3 Q 122.773 11.389 125.805 11.399 A 223.518 223.518 0 0 0 126.5 11.4 Q 131.44 11.4 138.724 11.205 A 820.832 820.832 0 0 0 138.9 11.2 A 604.218 604.218 0 0 1 145.069 11.063 Q 147.895 11.016 150.437 11.004 A 356.317 356.317 0 0 1 152.1 11 Q 152.5 14 152.1 17.2 A 156.105 156.105 0 0 0 147.638 17.819 Q 143.353 18.481 140.525 19.224 A 27.286 27.286 0 0 0 138.3 19.9 A 9.163 9.163 0 0 0 135.695 21.301 A 7.301 7.301 0 0 0 133.1 25.4 A 23.639 23.639 0 0 0 132.639 27.878 Q 132.273 30.537 132.155 34.443 A 132.16 132.16 0 0 0 132.1 38.4 L 132.1 151.4 Q 130.1 151.8 126.7 152.1 A 86.626 86.626 0 0 1 123.878 152.305 Q 122.163 152.4 120.7 152.4 Z M 404.9 130.2 L 404.9 89.8 A 62.466 62.466 0 0 0 404.607 83.533 Q 403.957 77.109 401.864 73.066 A 16.273 16.273 0 0 0 401.2 71.9 Q 398.401 67.437 391.425 66.35 A 32.09 32.09 0 0 0 386.5 66 Q 380.7 66 375.3 68.1 A 28.074 28.074 0 0 0 370.825 70.356 Q 368.689 71.666 366.441 73.464 A 60.089 60.089 0 0 0 363.7 75.8 L 363.7 128.2 A 108.461 108.461 0 0 0 363.756 131.825 Q 363.925 136.85 364.6 139.4 A 7.53 7.53 0 0 0 365.382 141.322 A 5.177 5.177 0 0 0 368.4 143.7 A 18.761 18.761 0 0 0 370.292 144.167 Q 373.044 144.713 377.5 145 Q 378.422 147.766 377.644 150.701 A 11.834 11.834 0 0 1 377.5 151.2 Q 372.5 151.2 366.5 151 Q 360.5 150.8 353.1 150.8 A 468.202 468.202 0 0 0 346.514 150.844 Q 343.423 150.888 340.677 150.974 A 271.405 271.405 0 0 0 339.9 151 Q 334.1 151.2 328.1 151.2 Q 327.5 148 328.1 145 A 106.525 106.525 0 0 0 331.275 144.769 Q 335.7 144.375 338.1 143.7 A 6.714 6.714 0 0 0 340.191 142.73 Q 341.663 141.683 342.29 139.829 A 7.242 7.242 0 0 0 342.3 139.8 Q 343.118 137.347 343.267 132.489 A 74.726 74.726 0 0 0 343.3 130.2 L 343.3 33.8 Q 343.3 28.612 343.14 25.264 A 82.189 82.189 0 0 0 343.1 24.5 A 13.481 13.481 0 0 0 342.797 22.271 Q 342.518 21.049 342.004 20.078 A 6.852 6.852 0 0 0 341.3 19 Q 339.7 16.8 336.7 15.9 Q 333.7 15 327.1 14.4 Q 326.519 11.881 327.064 9.175 A 14.388 14.388 0 0 1 327.1 9 Q 335.1 8 343.3 5.9 Q 351.5 3.8 360.7 0 L 364.1 1.2 A 308.327 308.327 0 0 0 363.93 5.721 Q 363.852 8.264 363.8 11.1 Q 363.7 16.6 363.7 23.2 L 363.7 67.6 Q 371.36 60.451 378.802 56.996 A 39.125 39.125 0 0 1 381.4 55.9 A 52.628 52.628 0 0 1 390.446 53.325 A 41.86 41.86 0 0 1 398.1 52.6 A 35.774 35.774 0 0 1 406.095 53.44 Q 413.597 55.159 418.3 60.4 Q 424.205 66.98 425.129 78.399 A 54.616 54.616 0 0 1 425.3 82.8 L 425.3 128.2 A 108.461 108.461 0 0 0 425.356 131.825 Q 425.525 136.85 426.2 139.4 A 7.263 7.263 0 0 0 427.017 141.362 A 5.269 5.269 0 0 0 430.1 143.7 A 19.451 19.451 0 0 0 432.01 144.155 Q 434 144.536 436.889 144.793 A 100.855 100.855 0 0 0 439.7 145 Q 440.1 148 439.7 151.2 Q 433.7 151.2 428 151 Q 424.081 150.863 419.264 150.82 A 512.329 512.329 0 0 0 414.7 150.8 Q 407.3 150.8 401.8 151 Q 396.3 151.2 390.7 151.2 Q 390.3 148 390.7 145 A 89.847 89.847 0 0 0 393.6 144.769 Q 396.622 144.475 398.641 144.025 A 18.126 18.126 0 0 0 399.9 143.7 A 6.064 6.064 0 0 0 402.192 142.468 Q 403.241 141.548 403.791 140.104 A 7.556 7.556 0 0 0 403.9 139.8 Q 404.718 137.347 404.867 132.489 A 74.726 74.726 0 0 0 404.9 130.2 Z M 760.5 128.8 L 760.5 19.6 L 746.1 19.6 A 63.231 63.231 0 0 0 739.914 19.883 Q 736.803 20.19 734.208 20.829 A 25.229 25.229 0 0 0 729.4 22.5 Q 723.3 25.4 719.6 31.2 A 64.762 64.762 0 0 0 716.839 36 Q 715.408 38.734 713.993 41.957 A 131.62 131.62 0 0 0 712.3 46 Q 709.1 46.4 705.9 46 L 708.2 27.6 A 649.5 649.5 0 0 0 709.681 14.738 A 581.157 581.157 0 0 0 710.1 10.6 Q 723.1 11.4 738.9 11.5 A 5047.406 5047.406 0 0 0 763.275 11.594 A 5628.419 5628.419 0 0 0 771.7 11.6 A 5426.7 5426.7 0 0 0 796.769 11.544 A 4818.917 4818.917 0 0 0 804.8 11.5 Q 820.638 11.4 833.4 10.606 A 368.475 368.475 0 0 0 833.5 10.6 Q 834.3 18.6 835.1 27.5 Q 835.9 36.4 837.1 46 Q 833.7 46.4 830.5 46 Q 827.609 39.001 824.718 33.97 A 59.646 59.646 0 0 0 822.9 31 A 24.25 24.25 0 0 0 816.6 24.385 A 22.919 22.919 0 0 0 813.2 22.4 Q 807.3 19.6 796.7 19.6 L 782.5 19.6 L 782.5 126.2 A 156.681 156.681 0 0 0 782.539 129.821 Q 782.625 133.525 782.9 136 A 12.254 12.254 0 0 0 783.27 137.961 Q 783.565 139.01 784.042 139.815 A 5.37 5.37 0 0 0 785.2 141.2 A 7.419 7.419 0 0 0 786.778 142.194 Q 788.368 142.956 790.761 143.405 A 27.27 27.27 0 0 0 791.3 143.5 A 80.349 80.349 0 0 0 794.238 143.928 Q 797.31 144.323 801.499 144.683 A 288.923 288.923 0 0 0 802.9 144.8 Q 803.5 148 802.9 151.2 A 438.845 438.845 0 0 1 799.511 151.186 Q 796.488 151.163 792.8 151.1 Q 786.9 151 781.1 150.9 A 814.477 814.477 0 0 0 777.003 150.839 Q 773.8 150.8 771.3 150.8 Q 767.5 150.8 761.8 150.9 Q 756.1 151 750.2 151.1 A 827.491 827.491 0 0 1 746.014 151.161 Q 742.725 151.2 740.1 151.2 A 23.425 23.425 0 0 1 739.9 148.125 Q 739.898 146.513 740.1 144.8 A 337.621 337.621 0 0 0 744.738 144.306 Q 750.474 143.652 753.599 143.043 A 38.471 38.471 0 0 0 754.3 142.9 A 10.507 10.507 0 0 0 756.358 142.251 Q 758.773 141.18 759.5 139 Q 760.5 136 760.5 128.8 Z M 624.1 130.2 L 624.1 89.8 A 62.466 62.466 0 0 0 623.807 83.533 Q 623.157 77.109 621.064 73.066 A 16.273 16.273 0 0 0 620.4 71.9 Q 617.601 67.437 610.625 66.35 A 32.09 32.09 0 0 0 605.7 66 Q 599.9 66 594.5 68.1 A 27.28 27.28 0 0 0 590.309 70.195 Q 586.7 72.375 582.7 76 L 582.7 128.2 A 108.461 108.461 0 0 0 582.756 131.825 Q 582.925 136.85 583.6 139.4 A 7.263 7.263 0 0 0 584.417 141.362 A 5.269 5.269 0 0 0 587.5 143.7 A 19.986 19.986 0 0 0 589.456 144.167 Q 592.3 144.713 596.9 145 Q 597.3 148 596.9 151.2 Q 591.3 151.2 585.2 151 Q 579.1 150.8 572.1 150.8 Q 565.7 150.8 559.5 151 Q 553.3 151.2 547.3 151.2 Q 546.7 148 547.3 145 A 106.525 106.525 0 0 0 550.475 144.769 Q 554.9 144.375 557.3 143.7 A 6.714 6.714 0 0 0 559.391 142.73 Q 560.863 141.683 561.49 139.829 A 7.242 7.242 0 0 0 561.5 139.8 Q 562.318 137.347 562.467 132.489 A 74.726 74.726 0 0 0 562.5 130.2 L 562.5 85.4 Q 562.5 79.095 562.043 75.403 A 27.694 27.694 0 0 0 561.8 73.8 A 8.542 8.542 0 0 0 560.999 71.389 A 6.456 6.456 0 0 0 558 68.5 A 15.429 15.429 0 0 0 555.983 67.717 Q 553.737 67.001 550.303 66.423 A 87.389 87.389 0 0 0 547.5 66 A 13.482 13.482 0 0 1 547.229 64.122 Q 547.106 62.375 547.5 60.8 A 188.231 188.231 0 0 0 567.906 55.613 A 156.951 156.951 0 0 0 579.1 51.6 L 582.5 52.8 L 582.5 67.8 A 75.782 75.782 0 0 1 589.909 61.8 Q 593.934 58.964 597.879 57.12 A 41.523 41.523 0 0 1 600.5 56 A 52.899 52.899 0 0 1 609.362 53.398 A 41.149 41.149 0 0 1 617.3 52.6 A 35.774 35.774 0 0 1 625.295 53.44 Q 632.797 55.159 637.5 60.4 Q 643.405 66.98 644.329 78.399 A 54.616 54.616 0 0 1 644.5 82.8 L 644.5 128.2 A 108.461 108.461 0 0 0 644.556 131.825 Q 644.725 136.85 645.4 139.4 A 7.263 7.263 0 0 0 646.217 141.362 A 5.269 5.269 0 0 0 649.3 143.7 A 19.451 19.451 0 0 0 651.21 144.155 Q 653.2 144.536 656.089 144.793 A 100.855 100.855 0 0 0 658.9 145 Q 659.3 148 658.9 151.2 Q 652.9 151.2 647.2 151 Q 643.281 150.863 638.464 150.82 A 512.329 512.329 0 0 0 633.9 150.8 Q 626.5 150.8 621 151 Q 615.5 151.2 609.9 151.2 Q 609.5 148 609.9 145 A 89.847 89.847 0 0 0 612.8 144.769 Q 615.822 144.475 617.841 144.025 A 18.126 18.126 0 0 0 619.1 143.7 A 6.064 6.064 0 0 0 621.392 142.468 Q 622.441 141.548 622.991 140.104 A 7.556 7.556 0 0 0 623.1 139.8 Q 623.918 137.347 624.067 132.489 A 74.726 74.726 0 0 0 624.1 130.2 Z M 1248.5 75 L 1214.3 154.8 Q 1213.379 157.01 1211.101 162.019 A 849.036 849.036 0 0 1 1210.7 162.9 A 800.206 800.206 0 0 1 1206.631 171.675 A 894.976 894.976 0 0 1 1205.2 174.7 A 901.926 901.926 0 0 1 1203.806 177.619 Q 1201.8 181.8 1200.3 184.8 Q 1195.3 194.6 1190.5 198.3 A 18.573 18.573 0 0 1 1185.868 200.956 A 15.306 15.306 0 0 1 1180.3 202 Q 1175.892 202 1173.15 199.934 A 8.929 8.929 0 0 1 1172 198.9 Q 1169.1 195.8 1169.1 191.6 A 11.379 11.379 0 0 1 1170.647 185.99 Q 1171.62 184.251 1173.203 182.543 A 26.571 26.571 0 0 1 1175.1 180.7 A 17.663 17.663 0 0 1 1180.669 177.47 Q 1185.649 175.606 1193.036 175.421 A 66.23 66.23 0 0 1 1194.7 175.4 A 144.922 144.922 0 0 0 1198.386 168.426 A 169.142 169.142 0 0 0 1199.8 165.5 A 346.492 346.492 0 0 0 1201.802 161.173 Q 1202.688 159.224 1203.663 157.031 A 716.268 716.268 0 0 0 1205.7 152.4 Q 1203.732 147.391 1200.804 139.821 A 4952.787 4952.787 0 0 1 1200.1 138 Q 1196.7 129.2 1192.4 118.5 A 1412.181 1412.181 0 0 1 1184.798 99.163 A 1556.578 1556.578 0 0 1 1183.7 96.3 A 4400.131 4400.131 0 0 0 1175.626 75.353 A 4012.398 4012.398 0 0 0 1175.1 74 A 39.754 39.754 0 0 0 1173.71 70.716 Q 1171.884 66.925 1169.8 65.2 Q 1166.9 62.8 1158.7 62 Q 1158.194 59.638 1158.542 56.848 A 20.968 20.968 0 0 1 1158.7 55.8 Q 1164.5 55.8 1170.5 56 Q 1176.5 56.2 1182.9 56.2 Q 1188.7 56.2 1195.5 56 Q 1202.3 55.8 1207.1 55.8 Q 1207.5 58.8 1207.1 62 Q 1200.314 62.399 1197.611 63.396 A 8.469 8.469 0 0 0 1197.6 63.4 Q 1194.9 64.4 1194.9 67.4 A 11.906 11.906 0 0 0 1195.05 69.156 Q 1195.447 71.786 1196.9 76 Q 1202.1 90.2 1207 102.2 Q 1211.9 114.2 1216.9 126.8 A 2577.118 2577.118 0 0 0 1222.57 113.772 Q 1225.219 107.639 1227.543 102.154 A 1518.554 1518.554 0 0 0 1228.2 100.6 A 1161.956 1161.956 0 0 0 1235.606 82.638 A 1296.76 1296.76 0 0 0 1238.1 76.4 Q 1240.3 70.6 1240.3 67.8 A 3.983 3.983 0 0 0 1239.767 65.724 Q 1239.29 64.922 1238.386 64.348 A 6.578 6.578 0 0 0 1237.3 63.8 Q 1234.35 62.62 1226.951 62.02 A 119.296 119.296 0 0 0 1226.7 62 Q 1226.1 58.8 1226.7 55.8 A 271.798 271.798 0 0 1 1236.339 55.976 A 296.794 296.794 0 0 1 1237 56 Q 1242.3 56.2 1248.3 56.2 Q 1252.3 56.2 1257 56 Q 1261.7 55.8 1265.5 55.8 Q 1266.1 58.8 1265.5 62 A 38.795 38.795 0 0 0 1261.638 62.456 Q 1257.773 63.128 1255.531 64.55 A 7.778 7.778 0 0 0 1254.1 65.7 A 19.513 19.513 0 0 0 1251.995 68.328 Q 1250.166 71.028 1248.5 75 Z M 947.9 128.8 L 947.9 35.8 Q 947.9 29.338 947.308 25.717 A 18.183 18.183 0 0 0 946.9 23.8 A 6.233 6.233 0 0 0 943.338 19.65 A 9.523 9.523 0 0 0 941.8 19.1 Q 938.709 18.271 932.719 17.612 A 186.604 186.604 0 0 0 928.5 17.2 A 23.425 23.425 0 0 1 928.3 14.125 Q 928.298 12.513 928.5 10.8 A 433.462 433.462 0 0 1 931.875 10.814 Q 934.875 10.838 938.5 10.9 Q 944.3 11 950 11.1 A 857.791 857.791 0 0 0 952.731 11.144 Q 956.65 11.2 959.5 11.2 A 466.579 466.579 0 0 0 965.289 11.162 Q 968.255 11.125 971.559 11.052 A 816.023 816.023 0 0 0 973.8 11 Q 980.002 10.847 984.269 10.811 A 290.299 290.299 0 0 1 986.7 10.8 A 119.068 119.068 0 0 1 999.428 11.433 Q 1014.419 13.05 1022.9 18.8 A 25.585 25.585 0 0 1 1034.405 37.371 A 35.162 35.162 0 0 1 1034.7 42 A 30.57 30.57 0 0 1 1020.853 68.502 Q 1015.6 72.158 1008.353 74.773 A 79.153 79.153 0 0 1 1003.3 76.4 L 1003.3 76.6 Q 1014.1 77.4 1023 81.6 A 36.644 36.644 0 0 1 1034.77 90.238 A 35.312 35.312 0 0 1 1037.3 93.4 Q 1042.7 101 1042.7 112.2 A 38.605 38.605 0 0 1 1040.965 124.009 A 32.083 32.083 0 0 1 1034.1 135.9 Q 1025.5 145.4 1012.7 148.8 Q 1007.1 150.2 1000.7 150.8 A 138.393 138.393 0 0 1 991.522 151.341 A 163.993 163.993 0 0 1 987.1 151.4 A 353.715 353.715 0 0 1 976.319 151.231 A 392.552 392.552 0 0 1 972.6 151.1 A 416.694 416.694 0 0 0 966.363 150.895 Q 963.513 150.824 960.965 150.806 A 238.41 238.41 0 0 0 959.3 150.8 A 273.166 273.166 0 0 0 957.538 150.806 Q 954.65 150.825 950.3 150.9 Q 944.5 151 938.5 151.1 A 950.383 950.383 0 0 1 935.625 151.144 Q 931.5 151.2 928.5 151.2 A 23.425 23.425 0 0 1 928.3 148.125 Q 928.298 146.513 928.5 144.8 A 303.148 303.148 0 0 0 932.863 144.306 Q 936.919 143.815 939.604 143.349 A 47.924 47.924 0 0 0 941.9 142.9 A 9.325 9.325 0 0 0 943.962 142.196 A 5.44 5.44 0 0 0 946.9 138.9 A 14.834 14.834 0 0 0 947.372 136.913 Q 947.9 133.886 947.9 128.8 Z M 1340.5 153.6 L 1337.3 152.2 L 1336.5 138.4 A 63.069 63.069 0 0 1 1330.318 144.304 Q 1326.808 147.204 1323.225 149.16 A 37.798 37.798 0 0 1 1322.2 149.7 A 34.659 34.659 0 0 1 1307.771 153.366 A 40.873 40.873 0 0 1 1306.1 153.4 A 38.698 38.698 0 0 1 1293.298 151.339 A 34.608 34.608 0 0 1 1284.4 146.7 Q 1275.1 140 1270.1 129.2 A 54.826 54.826 0 0 1 1265.105 106.586 A 63.084 63.084 0 0 1 1265.1 105.8 A 58.606 58.606 0 0 1 1267.944 87.355 A 53.548 53.548 0 0 1 1271.4 79.2 Q 1277.7 67.2 1289.2 59.9 Q 1300.7 52.6 1316.1 52.6 A 66.899 66.899 0 0 1 1323.225 52.994 A 77.073 77.073 0 0 1 1325.7 53.3 Q 1330.7 54 1336.1 55.6 L 1336.1 30 A 51.488 51.488 0 0 0 1336.005 26.758 Q 1335.763 22.928 1334.9 20.7 Q 1333.7 17.6 1330.2 16.3 A 21.026 21.026 0 0 0 1327.813 15.59 Q 1325.214 14.964 1321.467 14.568 A 89.911 89.911 0 0 0 1319.7 14.4 Q 1319.119 11.881 1319.664 9.175 A 14.388 14.388 0 0 1 1319.7 9 Q 1327.7 8 1336.1 5.9 A 107.485 107.485 0 0 0 1348.653 1.899 A 125.546 125.546 0 0 0 1353.3 0 L 1356.7 1.2 A 302.102 302.102 0 0 0 1356.534 5.589 Q 1356.453 8.225 1356.4 11.2 Q 1356.3 16.8 1356.3 23.4 L 1356.3 122.6 Q 1356.3 128.753 1356.693 132.415 A 32.375 32.375 0 0 0 1356.9 134 A 8.579 8.579 0 0 0 1357.591 136.329 A 6.184 6.184 0 0 0 1360.5 139.3 A 15.749 15.749 0 0 0 1362.39 140.076 Q 1364.444 140.785 1367.545 141.419 A 87.969 87.969 0 0 0 1370.7 142 Q 1371.281 144.519 1370.736 147.225 A 14.388 14.388 0 0 1 1370.7 147.4 Q 1362.7 148.6 1355.1 150 Q 1347.5 151.4 1340.5 153.6 Z M 223.05 151.956 A 19.775 19.775 0 0 0 229.7 153 Q 235.3 153 240.8 150.6 A 27.753 27.753 0 0 0 246.666 147.078 A 38.117 38.117 0 0 0 251.3 142.8 Q 251.1 141.8 250.8 140.6 Q 250.5 139.4 249.7 138.4 A 91.55 91.55 0 0 1 246.877 139.268 Q 241.576 140.8 238.7 140.8 A 8.015 8.015 0 0 1 237.273 140.68 Q 234.12 140.11 233.349 136.815 A 10.643 10.643 0 0 1 233.1 134.4 A 253.87 253.87 0 0 1 233.102 133.354 Q 233.121 128.777 233.3 121.8 Q 233.5 114 233.6 105.3 Q 233.7 96.6 233.9 88.9 Q 234.1 81.2 234.1 76.4 A 26.961 26.961 0 0 0 233.7 71.66 A 19.737 19.737 0 0 0 230.2 63.3 Q 226.3 58 220 55.3 A 32.331 32.331 0 0 0 216.369 53.995 A 35.569 35.569 0 0 0 206.3 52.6 A 41.736 41.736 0 0 0 205.01 52.62 Q 202.193 52.707 199.044 53.17 A 74.565 74.565 0 0 0 192.7 54.4 Q 185.1 56.2 178.1 59.3 A 47.234 47.234 0 0 0 172.087 62.47 A 34.399 34.399 0 0 0 166.6 66.7 A 21.172 21.172 0 0 0 165.941 67.358 Q 164.568 68.79 163.686 70.276 A 10.687 10.687 0 0 0 162.1 75.8 A 10.294 10.294 0 0 0 162.101 75.912 A 8.286 8.286 0 0 0 164.6 81.9 A 8.008 8.008 0 0 0 164.625 81.925 Q 167.122 84.4 171.5 84.4 Q 176.5 84.4 180 81.1 A 21.864 21.864 0 0 0 181.946 79.008 A 24.105 24.105 0 0 0 185.5 73 A 28.364 28.364 0 0 0 186.472 70.297 A 23.069 23.069 0 0 0 187.5 63.6 A 15.445 15.445 0 0 1 188.637 63.149 Q 190.363 62.54 192.41 62.254 A 28.144 28.144 0 0 1 196.3 62 A 24.5 24.5 0 0 1 199.032 62.149 A 18.896 18.896 0 0 1 208.6 65.9 A 12.389 12.389 0 0 1 212.983 71.986 A 15.391 15.391 0 0 1 213.7 76.8 Q 213.7 82.4 213.6 87.4 Q 213.5 92.4 213.5 97.2 A 184.562 184.562 0 0 0 199.908 99.403 Q 180.752 103.297 170.723 110.516 A 23.719 23.719 0 0 0 159.7 130.4 A 28.926 28.926 0 0 0 159.993 134.594 A 19.966 19.966 0 0 0 166.8 147.3 A 24.486 24.486 0 0 0 174.946 151.969 A 28.291 28.291 0 0 0 184.1 153.4 A 32.453 32.453 0 0 0 191.366 152.572 Q 197.596 151.146 203.717 147.261 A 60.64 60.64 0 0 0 213.1 139.8 A 24.129 24.129 0 0 0 214.524 143.873 Q 217.303 149.913 223.05 151.956 Z M 513.25 151.956 A 19.775 19.775 0 0 0 519.9 153 Q 525.5 153 531 150.6 A 27.753 27.753 0 0 0 536.866 147.078 A 38.117 38.117 0 0 0 541.5 142.8 Q 541.3 141.8 541 140.6 Q 540.7 139.4 539.9 138.4 A 91.55 91.55 0 0 1 537.077 139.268 Q 531.776 140.8 528.9 140.8 A 8.015 8.015 0 0 1 527.473 140.68 Q 524.32 140.11 523.549 136.815 A 10.643 10.643 0 0 1 523.3 134.4 A 253.87 253.87 0 0 1 523.302 133.354 Q 523.321 128.777 523.5 121.8 Q 523.7 114 523.8 105.3 Q 523.9 96.6 524.1 88.9 Q 524.3 81.2 524.3 76.4 A 26.961 26.961 0 0 0 523.9 71.66 A 19.737 19.737 0 0 0 520.4 63.3 Q 516.5 58 510.2 55.3 A 32.331 32.331 0 0 0 506.569 53.995 A 35.569 35.569 0 0 0 496.5 52.6 A 41.736 41.736 0 0 0 495.21 52.62 Q 492.393 52.707 489.244 53.17 A 74.565 74.565 0 0 0 482.9 54.4 Q 475.3 56.2 468.3 59.3 A 47.234 47.234 0 0 0 462.287 62.47 A 34.399 34.399 0 0 0 456.8 66.7 A 21.172 21.172 0 0 0 456.141 67.358 Q 454.768 68.79 453.886 70.276 A 10.687 10.687 0 0 0 452.3 75.8 A 10.294 10.294 0 0 0 452.301 75.912 A 8.286 8.286 0 0 0 454.8 81.9 A 8.008 8.008 0 0 0 454.825 81.925 Q 457.322 84.4 461.7 84.4 Q 466.7 84.4 470.2 81.1 A 21.864 21.864 0 0 0 472.146 79.008 A 24.105 24.105 0 0 0 475.7 73 A 28.364 28.364 0 0 0 476.672 70.297 A 23.069 23.069 0 0 0 477.7 63.6 A 15.445 15.445 0 0 1 478.837 63.149 Q 480.563 62.54 482.61 62.254 A 28.144 28.144 0 0 1 486.5 62 A 24.5 24.5 0 0 1 489.232 62.149 A 18.896 18.896 0 0 1 498.8 65.9 A 12.389 12.389 0 0 1 503.183 71.986 A 15.391 15.391 0 0 1 503.9 76.8 Q 503.9 82.4 503.8 87.4 Q 503.7 92.4 503.7 97.2 A 184.562 184.562 0 0 0 490.108 99.403 Q 470.952 103.297 460.923 110.516 A 23.719 23.719 0 0 0 449.9 130.4 A 28.926 28.926 0 0 0 450.193 134.594 A 19.966 19.966 0 0 0 457 147.3 A 24.486 24.486 0 0 0 465.146 151.969 A 28.291 28.291 0 0 0 474.3 153.4 A 32.453 32.453 0 0 0 481.566 152.572 Q 487.796 151.146 493.917 147.261 A 60.64 60.64 0 0 0 503.3 139.8 A 24.129 24.129 0 0 0 504.724 143.873 Q 507.503 149.913 513.25 151.956 Z M 270.3 65.6 L 255.1 65.6 A 15.667 15.667 0 0 1 254.846 63.828 Q 254.712 62.221 254.969 60.809 A 9.571 9.571 0 0 1 255.1 60.2 Q 274.9 51.8 284.9 32.8 Q 286.5 32.8 288.1 32.9 Q 289.475 32.986 290.555 33.146 A 19.212 19.212 0 0 1 290.9 33.2 Q 290.7 38.4 290.6 44.2 Q 290.5 50 290.3 56.4 L 320.7 56.4 Q 321.3 60.8 320.7 65.6 L 290.3 65.6 Q 289.9 79.6 289.8 95.1 Q 289.7 110.6 289.7 126.2 A 22.414 22.414 0 0 0 290.562 132.709 Q 293.506 142.4 306.5 142.4 Q 313.7 142.4 319.9 138.6 Q 321.7 141 322.1 144.6 Q 310.3 153.4 295.5 153.4 Q 286.207 153.4 279.913 149.982 A 22.072 22.072 0 0 1 276.5 147.7 A 18.439 18.439 0 0 1 269.994 136.578 A 27.831 27.831 0 0 1 269.5 131.2 Q 269.5 113.6 269.8 97.2 Q 270.1 80.8 270.3 65.6 Z M 1105.5 153.4 Q 1090.9 153.4 1080 147.1 Q 1069.1 140.8 1063.1 129.7 Q 1057.1 118.6 1057.1 104.2 A 65.264 65.264 0 0 1 1058.484 90.454 A 50.105 50.105 0 0 1 1063.4 77 Q 1069.7 65.4 1081.1 59 A 49.995 49.995 0 0 1 1099.895 53.025 A 62.9 62.9 0 0 1 1107.3 52.6 A 56.292 56.292 0 0 1 1120.153 54.006 A 44.203 44.203 0 0 1 1132.7 59 Q 1143.5 65.4 1149.5 76.6 Q 1155.5 87.8 1155.5 102 A 58.231 58.231 0 0 1 1153.279 118.315 A 51.01 51.01 0 0 1 1149.2 128.3 Q 1142.9 140 1131.7 146.7 A 47.029 47.029 0 0 1 1113.746 152.855 A 60.594 60.594 0 0 1 1105.5 153.4 Z M 1079.7 101.8 A 100.931 100.931 0 0 0 1080.421 114.272 Q 1081.898 126.105 1086.4 134.1 A 25.027 25.027 0 0 0 1092.081 141.116 Q 1097.916 146 1106.5 146 A 22.878 22.878 0 0 0 1116.152 144.026 Q 1121.113 141.749 1124.679 136.848 A 29.489 29.489 0 0 0 1126.1 134.7 A 42.743 42.743 0 0 0 1130.688 123.567 Q 1132.9 115.236 1132.9 104.4 Q 1132.9 90.173 1129.527 80.014 A 43.802 43.802 0 0 0 1126.1 72.2 A 26.307 26.307 0 0 0 1120.762 65.43 Q 1115.066 60.363 1106.834 60.205 A 27.757 27.757 0 0 0 1106.3 60.2 A 23.573 23.573 0 0 0 1096.712 62.086 Q 1091.496 64.379 1087.777 69.462 A 29.366 29.366 0 0 0 1086.6 71.2 Q 1081.498 79.333 1080.169 92.168 A 93.637 93.637 0 0 0 1079.7 101.8 Z M 1336.3 129.2 L 1336.3 72.6 A 30.108 30.108 0 0 0 1328.506 65.015 A 26.419 26.419 0 0 0 1313.7 60.8 A 29.864 29.864 0 0 0 1305.016 61.993 A 22.234 22.234 0 0 0 1292.9 70.9 Q 1287.38 78.864 1286.213 91.615 A 78.886 78.886 0 0 0 1285.9 98.8 Q 1285.9 109.2 1288.7 118.8 A 38.717 38.717 0 0 0 1292.691 128.04 A 32.496 32.496 0 0 0 1297.9 134.6 A 21.552 21.552 0 0 0 1309.196 140.296 A 30.846 30.846 0 0 0 1314.9 140.8 A 24.221 24.221 0 0 0 1333.668 132.542 A 32.477 32.477 0 0 0 1336.3 129.2 Z M 969.9 83.4 L 969.9 127.8 L 969.9 136.2 Q 969.9 138.484 969.99 140.227 A 40.733 40.733 0 0 0 970.1 141.8 Q 978.9 143.6 985.9 143.6 A 49.616 49.616 0 0 0 995.263 142.771 Q 1004.089 141.073 1009.8 135.9 A 24.08 24.08 0 0 0 1016.494 125.245 Q 1017.778 121.291 1018.149 116.467 A 53.037 53.037 0 0 0 1018.3 112.4 A 42.548 42.548 0 0 0 1017.524 103.988 Q 1015.688 94.892 1009.5 89.9 Q 1001.057 83.088 983.224 82.812 A 98.413 98.413 0 0 0 981.7 82.8 Q 979.638 82.8 977.058 82.874 A 236.926 236.926 0 0 0 976.2 82.9 Q 973.1 83 969.9 83.4 Z M 969.9 20 L 969.9 74.6 Q 971.5 74.8 972.8 74.8 L 975.3 74.8 Q 994.5 74.8 1002.6 67.9 A 21.806 21.806 0 0 0 1009.363 57.203 Q 1010.439 53.569 1010.649 49.177 A 45.572 45.572 0 0 0 1010.7 47 Q 1010.7 24.668 992.252 20.147 A 44.44 44.44 0 0 0 981.7 19 A 53.876 53.876 0 0 0 977.542 19.155 A 46.433 46.433 0 0 0 976 19.3 A 797.526 797.526 0 0 0 973.315 19.603 Q 971.706 19.788 969.9 20 Z M 213.1 134.4 L 213.5 104.4 Q 199.204 106.265 191.85 109.941 A 21.532 21.532 0 0 0 188.2 112.2 A 18.659 18.659 0 0 0 183.606 117.29 A 16.631 16.631 0 0 0 181.3 126 Q 181.3 131.152 183.304 134.517 A 11.129 11.129 0 0 0 185 136.7 A 12.49 12.49 0 0 0 193.693 140.389 A 16.493 16.493 0 0 0 194.3 140.4 A 19.393 19.393 0 0 0 197.747 140.071 Q 199.391 139.774 201.186 139.208 A 35.639 35.639 0 0 0 202.4 138.8 Q 205.494 137.7 209.391 136.033 A 203.314 203.314 0 0 0 213.1 134.4 Z M 503.3 134.4 L 503.7 104.4 Q 489.404 106.265 482.05 109.941 A 21.532 21.532 0 0 0 478.4 112.2 A 18.659 18.659 0 0 0 473.806 117.29 A 16.631 16.631 0 0 0 471.5 126 Q 471.5 131.152 473.504 134.517 A 11.129 11.129 0 0 0 475.2 136.7 A 12.49 12.49 0 0 0 483.893 140.389 A 16.493 16.493 0 0 0 484.5 140.4 A 19.393 19.393 0 0 0 487.947 140.071 Q 489.591 139.774 491.386 139.208 A 35.639 35.639 0 0 0 492.6 138.8 Q 495.694 137.7 499.591 136.033 A 203.314 203.314 0 0 0 503.3 134.4 Z M 834.756 132.387 A 15.109 15.109 0 0 0 833.5 138.6 Q 833.5 144.8 837.7 149.1 A 16.659 16.659 0 0 0 837.898 149.299 A 13.699 13.699 0 0 0 847.9 153.4 A 19.04 19.04 0 0 0 850.164 153.269 A 13.614 13.614 0 0 0 858.8 149 Q 862.9 144.6 862.9 138.6 A 14.717 14.717 0 0 0 861.999 133.448 A 15.751 15.751 0 0 0 858.8 128.3 A 13.211 13.211 0 0 0 852.89 124.514 A 16.625 16.625 0 0 0 847.9 123.8 A 16.571 16.571 0 0 0 847.62 123.802 A 13.701 13.701 0 0 0 837.7 128.1 A 14.626 14.626 0 0 0 834.756 132.387 Z" vector-effect="non-scaling-stroke"/></g></svg>