<svg width="274.2" height="40.4" viewBox="0 0 274.2 40.4" xmlns="http://www.w3.org/2000/svg"><g id="svgGroup" stroke-linecap="round" fill-rule="evenodd" font-size="9pt" stroke="#ffffff" stroke-width="0.25mm" fill="#ffffff" style="stroke:#ffffff;stroke-width:0.25mm;fill:#ffffff"><path d="M 24.14 30.48 L 6.34 7.12 L 6.34 24.24 Q 6.34 25.493 6.394 26.27 A 11.37 11.37 0 0 0 6.42 26.58 A 3.095 3.095 0 0 0 6.51 27.088 Q 6.584 27.361 6.707 27.575 A 1.533 1.533 0 0 0 6.9 27.84 Q 7.3 28.24 8.14 28.52 A 6.359 6.359 0 0 0 8.735 28.683 Q 9.365 28.827 10.245 28.928 A 23.88 23.88 0 0 0 10.54 28.96 Q 10.62 29.6 10.54 30.24 Q 9.34 30.24 7.88 30.2 Q 6.42 30.16 5.42 30.16 Q 4.733 30.16 3.828 30.179 A 133.779 133.779 0 0 0 2.96 30.2 A 115.69 115.69 0 0 1 1.657 30.229 Q 1.044 30.239 0.495 30.24 A 69.023 69.023 0 0 1 0.34 30.24 Q 0.22 29.64 0.34 28.96 Q 1.527 28.795 2.279 28.644 A 13.508 13.508 0 0 0 2.58 28.58 A 3.707 3.707 0 0 0 3.027 28.452 Q 3.244 28.373 3.414 28.273 A 1.465 1.465 0 0 0 3.74 28.02 A 1.447 1.447 0 0 0 4.004 27.617 Q 4.144 27.309 4.2 26.88 A 9.243 9.243 0 0 0 4.252 26.35 Q 4.3 25.698 4.3 24.76 L 4.3 8.36 Q 4.3 6.76 4.2 5.84 Q 4.1 4.92 3.68 4.46 Q 3.26 4 2.4 3.78 Q 1.623 3.581 0.308 3.431 A 34.09 34.09 0 0 0 0.02 3.4 Q -0.02 2.8 0.02 2.16 Q 1.26 2.16 2.66 2.2 Q 4.06 2.24 5.46 2.24 L 6.56 2.24 Q 7.333 2.24 7.944 2.21 A 18.77 18.77 0 0 0 8.14 2.2 L 24.38 23.56 L 24.38 8.2 A 64.752 64.752 0 0 0 24.376 7.482 Q 24.365 6.47 24.32 5.84 Q 24.279 5.271 24.065 4.905 A 1.285 1.285 0 0 0 23.82 4.6 Q 23.04 3.782 20.222 3.517 A 23.394 23.394 0 0 0 19.78 3.48 A 4.356 4.356 0 0 1 19.779 3.475 Q 19.72 3.138 19.72 2.82 A 3.154 3.154 0 0 1 19.78 2.2 A 71.478 71.478 0 0 1 20.392 2.203 Q 20.665 2.205 20.967 2.209 A 136.805 136.805 0 0 1 21.6 2.22 Q 22.66 2.24 23.66 2.26 Q 24.555 2.278 25.161 2.28 A 44.72 44.72 0 0 0 25.3 2.28 Q 26.288 2.28 27.745 2.241 A 164.16 164.16 0 0 0 27.78 2.24 Q 29.052 2.206 30.087 2.201 A 71.285 71.285 0 0 1 30.42 2.2 Q 30.5 2.8 30.42 3.44 Q 28.5 3.68 27.66 3.98 A 1.833 1.833 0 0 0 27.139 4.26 A 1.46 1.46 0 0 0 26.62 5.08 A 4.728 4.728 0 0 0 26.528 5.576 Q 26.42 6.358 26.42 7.68 L 26.42 30.28 A 5.997 5.997 0 0 1 26.143 30.328 Q 25.808 30.379 25.34 30.42 A 17.325 17.325 0 0 1 24.776 30.461 Q 24.518 30.475 24.289 30.479 A 9.612 9.612 0 0 1 24.14 30.48 Z M 80.98 26.04 L 80.98 17.96 A 12.493 12.493 0 0 0 80.921 16.707 Q 80.791 15.422 80.373 14.613 A 3.255 3.255 0 0 0 80.24 14.38 Q 79.68 13.487 78.285 13.27 A 6.418 6.418 0 0 0 77.3 13.2 Q 76.14 13.2 75.06 13.62 A 5.615 5.615 0 0 0 74.165 14.071 Q 73.738 14.333 73.288 14.693 A 12.018 12.018 0 0 0 72.74 15.16 L 72.74 25.64 A 21.693 21.693 0 0 0 72.751 26.365 Q 72.775 27.061 72.847 27.519 A 3.603 3.603 0 0 0 72.92 27.88 A 1.506 1.506 0 0 0 73.076 28.264 A 1.035 1.035 0 0 0 73.68 28.74 Q 74.13 28.88 74.976 28.959 A 18.076 18.076 0 0 0 75.5 29 Q 75.7 29.6 75.5 30.24 Q 74.5 30.24 73.3 30.2 Q 72.1 30.16 70.62 30.16 Q 69.14 30.16 67.98 30.2 Q 66.82 30.24 65.62 30.24 Q 65.5 29.6 65.62 29 Q 66.698 28.937 67.323 28.81 A 4.087 4.087 0 0 0 67.62 28.74 A 1.343 1.343 0 0 0 68.038 28.546 Q 68.335 28.335 68.46 27.96 A 2.843 2.843 0 0 0 68.557 27.566 Q 68.634 27.135 68.653 26.498 A 14.945 14.945 0 0 0 68.66 26.04 L 68.66 6.76 Q 68.66 5.6 68.62 4.9 A 2.696 2.696 0 0 0 68.559 4.454 Q 68.504 4.21 68.401 4.016 A 1.37 1.37 0 0 0 68.26 3.8 Q 67.94 3.36 67.34 3.18 Q 66.74 3 65.42 2.88 Q 65.3 2.36 65.42 1.8 Q 67.02 1.6 68.66 1.18 Q 70.3 0.76 72.14 0 L 72.82 0.24 A 61.665 61.665 0 0 0 72.786 1.144 Q 72.771 1.621 72.761 2.149 A 99.801 99.801 0 0 0 72.76 2.22 Q 72.74 3.32 72.74 4.64 L 72.74 13.52 Q 74.272 12.09 75.76 11.399 A 7.825 7.825 0 0 1 76.28 11.18 A 10.526 10.526 0 0 1 78.089 10.665 A 8.372 8.372 0 0 1 79.62 10.52 Q 82.26 10.52 83.66 12.08 A 5.059 5.059 0 0 1 84.709 13.978 Q 84.95 14.748 85.026 15.68 A 10.923 10.923 0 0 1 85.06 16.56 L 85.06 25.64 A 21.693 21.693 0 0 0 85.071 26.365 Q 85.095 27.061 85.167 27.519 A 3.603 3.603 0 0 0 85.24 27.88 A 1.453 1.453 0 0 0 85.403 28.272 A 1.054 1.054 0 0 0 86.02 28.74 A 3.89 3.89 0 0 0 86.402 28.831 Q 86.8 28.907 87.378 28.959 A 20.171 20.171 0 0 0 87.94 29 Q 88.02 29.6 87.94 30.24 Q 86.74 30.24 85.6 30.2 Q 84.46 30.16 82.94 30.16 Q 81.923 30.16 81.085 30.179 A 52.684 52.684 0 0 0 80.36 30.2 Q 79.26 30.24 78.14 30.24 Q 78.06 29.6 78.14 29 A 17.969 17.969 0 0 0 78.72 28.954 Q 79.324 28.895 79.728 28.805 A 3.625 3.625 0 0 0 79.98 28.74 A 1.213 1.213 0 0 0 80.438 28.494 Q 80.67 28.29 80.78 27.96 A 2.843 2.843 0 0 0 80.877 27.566 Q 80.954 27.135 80.973 26.498 A 14.945 14.945 0 0 0 80.98 26.04 Z M 152.1 25.76 L 152.1 3.92 L 149.22 3.92 A 12.646 12.646 0 0 0 147.983 3.977 Q 147.361 4.038 146.842 4.166 A 5.046 5.046 0 0 0 145.88 4.5 Q 144.66 5.08 143.92 6.24 Q 143.18 7.4 142.46 9.2 Q 141.82 9.28 141.18 9.2 L 141.64 5.52 A 129.901 129.901 0 0 0 141.936 2.948 A 116.233 116.233 0 0 0 142.02 2.12 Q 144.62 2.28 147.78 2.3 A 1009.498 1009.498 0 0 0 152.655 2.319 A 1125.47 1125.47 0 0 0 154.34 2.32 A 1085.363 1085.363 0 0 0 159.354 2.309 A 963.926 963.926 0 0 0 160.96 2.3 Q 164.128 2.28 166.68 2.121 A 67.674 67.674 0 0 0 166.7 2.12 Q 166.86 3.72 167.02 5.5 Q 167.18 7.28 167.42 9.2 Q 166.74 9.28 166.1 9.2 Q 165.522 7.8 164.944 6.794 A 11.929 11.929 0 0 0 164.58 6.2 A 4.85 4.85 0 0 0 163.32 4.877 A 4.584 4.584 0 0 0 162.64 4.48 A 4.822 4.822 0 0 0 161.718 4.161 Q 160.762 3.928 159.427 3.92 A 15.828 15.828 0 0 0 159.34 3.92 L 156.5 3.92 L 156.5 25.24 A 31.336 31.336 0 0 0 156.508 25.964 Q 156.523 26.601 156.565 27.056 A 8.471 8.471 0 0 0 156.58 27.2 A 2.451 2.451 0 0 0 156.654 27.592 Q 156.713 27.802 156.808 27.963 A 1.074 1.074 0 0 0 157.04 28.24 Q 157.395 28.539 158.152 28.681 A 5.454 5.454 0 0 0 158.26 28.7 A 16.07 16.07 0 0 0 158.848 28.786 Q 159.462 28.865 160.3 28.937 A 57.765 57.765 0 0 0 160.58 28.96 Q 160.7 29.6 160.58 30.24 A 87.772 87.772 0 0 1 159.902 30.237 Q 159.6 30.235 159.264 30.231 A 170.307 170.307 0 0 1 158.56 30.22 Q 157.38 30.2 156.22 30.18 A 162.901 162.901 0 0 0 155.401 30.168 Q 155.08 30.164 154.795 30.162 A 78.385 78.385 0 0 0 154.26 30.16 Q 153.518 30.16 152.415 30.179 A 194.757 194.757 0 0 0 152.36 30.18 Q 151.22 30.2 150.04 30.22 A 165.504 165.504 0 0 1 149.203 30.232 Q 148.874 30.236 148.578 30.238 A 84.735 84.735 0 0 1 148.02 30.24 A 4.685 4.685 0 0 1 147.98 29.625 Q 147.98 29.303 148.02 28.96 Q 149.862 28.776 150.72 28.609 A 7.694 7.694 0 0 0 150.86 28.58 A 2.101 2.101 0 0 0 151.272 28.45 Q 151.502 28.348 151.655 28.196 A 0.991 0.991 0 0 0 151.9 27.8 A 2.718 2.718 0 0 0 151.992 27.422 Q 152.1 26.818 152.1 25.76 Z M 124.82 26.04 L 124.82 17.96 A 12.493 12.493 0 0 0 124.761 16.707 Q 124.631 15.422 124.213 14.613 A 3.255 3.255 0 0 0 124.08 14.38 Q 123.52 13.487 122.125 13.27 A 6.418 6.418 0 0 0 121.14 13.2 Q 119.98 13.2 118.9 13.62 A 5.456 5.456 0 0 0 118.062 14.039 Q 117.656 14.284 117.225 14.621 A 12.335 12.335 0 0 0 116.54 15.2 L 116.54 25.64 Q 116.54 26.84 116.647 27.519 A 3.603 3.603 0 0 0 116.72 27.88 A 1.453 1.453 0 0 0 116.883 28.272 A 1.054 1.054 0 0 0 117.5 28.74 Q 117.965 28.88 118.839 28.959 A 19.268 19.268 0 0 0 119.38 29 Q 119.46 29.6 119.38 30.24 Q 118.26 30.24 117.04 30.2 Q 115.82 30.16 114.42 30.16 Q 113.14 30.16 111.9 30.2 Q 110.66 30.24 109.46 30.24 Q 109.34 29.6 109.46 29 Q 110.538 28.937 111.163 28.81 A 4.087 4.087 0 0 0 111.46 28.74 A 1.343 1.343 0 0 0 111.878 28.546 Q 112.175 28.335 112.3 27.96 A 2.843 2.843 0 0 0 112.397 27.566 Q 112.474 27.135 112.493 26.498 A 14.945 14.945 0 0 0 112.5 26.04 L 112.5 17.08 Q 112.5 15.52 112.36 14.76 A 1.708 1.708 0 0 0 112.2 14.278 A 1.291 1.291 0 0 0 111.6 13.7 Q 110.98 13.4 109.5 13.2 Q 109.38 12.64 109.5 12.16 Q 112.94 11.48 115.82 10.32 L 116.5 10.56 L 116.5 13.56 A 15.156 15.156 0 0 1 117.982 12.36 Q 118.787 11.793 119.576 11.424 A 8.305 8.305 0 0 1 120.1 11.2 Q 121.86 10.52 123.46 10.52 Q 126.1 10.52 127.5 12.08 A 5.059 5.059 0 0 1 128.549 13.978 Q 128.79 14.748 128.866 15.68 A 10.923 10.923 0 0 1 128.9 16.56 L 128.9 25.64 A 21.693 21.693 0 0 0 128.911 26.365 Q 128.935 27.061 129.007 27.519 A 3.603 3.603 0 0 0 129.08 27.88 A 1.453 1.453 0 0 0 129.243 28.272 A 1.054 1.054 0 0 0 129.86 28.74 A 3.89 3.89 0 0 0 130.242 28.831 Q 130.64 28.907 131.218 28.959 A 20.171 20.171 0 0 0 131.78 29 Q 131.86 29.6 131.78 30.24 Q 130.58 30.24 129.44 30.2 Q 128.3 30.16 126.78 30.16 Q 125.763 30.16 124.925 30.179 A 52.684 52.684 0 0 0 124.2 30.2 Q 123.1 30.24 121.98 30.24 Q 121.9 29.6 121.98 29 A 17.969 17.969 0 0 0 122.56 28.954 Q 123.164 28.895 123.568 28.805 A 3.625 3.625 0 0 0 123.82 28.74 A 1.213 1.213 0 0 0 124.278 28.494 Q 124.51 28.29 124.62 27.96 A 2.843 2.843 0 0 0 124.717 27.566 Q 124.794 27.135 124.813 26.498 A 14.945 14.945 0 0 0 124.82 26.04 Z M 249.7 15 L 242.86 30.96 Q 242.66 31.44 242.14 32.58 A 160.043 160.043 0 0 1 241.326 34.335 A 178.969 178.969 0 0 1 241.04 34.94 Q 240.489 36.099 240.1 36.879 A 62.11 62.11 0 0 1 240.06 36.96 A 14.996 14.996 0 0 1 239.501 37.966 Q 238.79 39.128 238.1 39.66 A 3.715 3.715 0 0 1 237.174 40.191 A 3.061 3.061 0 0 1 236.06 40.4 A 3.02 3.02 0 0 1 235.405 40.333 Q 234.79 40.197 234.4 39.78 Q 233.82 39.16 233.82 38.32 Q 233.82 37.394 234.641 36.509 A 5.314 5.314 0 0 1 235.02 36.14 A 3.533 3.533 0 0 1 236.134 35.494 Q 237.13 35.121 238.607 35.084 A 13.246 13.246 0 0 1 238.94 35.08 A 28.984 28.984 0 0 0 239.677 33.685 A 33.829 33.829 0 0 0 239.96 33.1 Q 240.304 32.371 240.733 31.406 A 143.249 143.249 0 0 0 241.14 30.48 Q 240.7 29.36 240.02 27.6 Q 239.34 25.84 238.48 23.7 A 282.436 282.436 0 0 1 236.96 19.833 A 311.277 311.277 0 0 1 236.74 19.26 A 880.04 880.04 0 0 0 235.125 15.071 A 805.215 805.215 0 0 0 235.02 14.8 A 7.951 7.951 0 0 0 234.742 14.143 Q 234.377 13.385 233.96 13.04 A 1.764 1.764 0 0 0 233.55 12.795 Q 233.102 12.596 232.378 12.481 A 10.542 10.542 0 0 0 231.74 12.4 A 2.757 2.757 0 0 1 231.681 11.906 Q 231.674 11.649 231.708 11.37 A 4.193 4.193 0 0 1 231.74 11.16 Q 232.9 11.16 234.1 11.2 Q 235.3 11.24 236.58 11.24 Q 237.74 11.24 239.1 11.2 Q 240.035 11.173 240.781 11.164 A 55.634 55.634 0 0 1 241.42 11.16 Q 241.5 11.76 241.42 12.4 Q 240.063 12.48 239.522 12.679 A 1.714 1.714 0 0 0 239.52 12.68 Q 238.98 12.88 238.98 13.48 Q 238.98 14.04 239.38 15.2 Q 240.42 18.04 241.4 20.44 Q 242.38 22.84 243.38 25.36 A 515.426 515.426 0 0 0 244.514 22.754 Q 245.119 21.353 245.64 20.12 A 232.39 232.39 0 0 0 247.121 16.528 A 259.344 259.344 0 0 0 247.62 15.28 Q 247.958 14.388 248.037 13.85 A 2.038 2.038 0 0 0 248.06 13.56 A 0.797 0.797 0 0 0 247.953 13.145 Q 247.807 12.899 247.46 12.76 Q 246.86 12.52 245.34 12.4 Q 245.22 11.76 245.34 11.16 A 54.359 54.359 0 0 1 247.268 11.195 A 59.295 59.295 0 0 1 247.4 11.2 Q 248.46 11.24 249.66 11.24 Q 250.46 11.24 251.4 11.2 Q 252.34 11.16 253.1 11.16 Q 253.22 11.76 253.1 12.4 A 7.759 7.759 0 0 0 252.328 12.491 Q 251.27 12.675 250.82 13.14 Q 250.4 13.574 250.02 14.311 A 9.581 9.581 0 0 0 249.7 15 Z M 189.58 25.76 L 189.58 7.16 Q 189.58 5.868 189.462 5.143 A 3.637 3.637 0 0 0 189.38 4.76 A 1.247 1.247 0 0 0 188.668 3.93 A 1.905 1.905 0 0 0 188.36 3.82 A 6.668 6.668 0 0 0 187.886 3.714 Q 187.345 3.61 186.544 3.522 A 37.321 37.321 0 0 0 185.7 3.44 A 4.685 4.685 0 0 1 185.66 2.825 Q 185.66 2.503 185.7 2.16 A 86.695 86.695 0 0 1 186.375 2.163 Q 186.675 2.165 187.006 2.169 A 162.779 162.779 0 0 1 187.7 2.18 Q 188.86 2.2 190 2.22 A 171.598 171.598 0 0 0 190.546 2.229 Q 191.305 2.24 191.863 2.24 A 59.243 59.243 0 0 0 191.9 2.24 A 93.314 93.314 0 0 0 193.058 2.232 Q 193.849 2.223 194.76 2.2 Q 196 2.169 196.854 2.162 A 58.062 58.062 0 0 1 197.34 2.16 A 23.814 23.814 0 0 1 199.886 2.287 Q 202.494 2.568 204.117 3.475 A 6.311 6.311 0 0 1 204.58 3.76 A 5.117 5.117 0 0 1 206.881 7.474 A 7.032 7.032 0 0 1 206.94 8.4 Q 206.94 13.48 200.66 15.28 L 200.66 15.32 A 11.651 11.651 0 0 1 203.331 15.823 A 10.191 10.191 0 0 1 204.6 16.32 A 7.329 7.329 0 0 1 206.954 18.048 A 7.063 7.063 0 0 1 207.46 18.68 A 5.728 5.728 0 0 1 208.407 20.954 A 7.911 7.911 0 0 1 208.54 22.44 A 7.721 7.721 0 0 1 208.193 24.802 A 6.417 6.417 0 0 1 206.82 27.18 Q 205.1 29.08 202.54 29.76 Q 201.42 30.04 200.14 30.16 A 27.679 27.679 0 0 1 198.304 30.268 A 32.799 32.799 0 0 1 197.42 30.28 Q 196.02 30.28 194.52 30.22 A 83.339 83.339 0 0 0 193.273 30.179 Q 192.703 30.165 192.193 30.161 A 47.685 47.685 0 0 0 191.86 30.16 Q 191.22 30.16 190.06 30.18 Q 188.9 30.2 187.7 30.22 Q 186.529 30.24 185.739 30.24 A 65.644 65.644 0 0 1 185.7 30.24 A 4.685 4.685 0 0 1 185.66 29.625 Q 185.66 29.303 185.7 28.96 Q 187.58 28.76 188.38 28.58 A 1.865 1.865 0 0 0 188.792 28.439 A 1.088 1.088 0 0 0 189.38 27.78 A 2.967 2.967 0 0 0 189.474 27.383 Q 189.551 26.945 189.572 26.292 A 16.479 16.479 0 0 0 189.58 25.76 Z M 268.1 30.72 L 267.46 30.44 L 267.3 27.68 A 12.614 12.614 0 0 1 266.064 28.861 Q 265.362 29.441 264.645 29.832 A 7.56 7.56 0 0 1 264.44 29.94 A 6.932 6.932 0 0 1 261.554 30.673 A 8.175 8.175 0 0 1 261.22 30.68 Q 258.74 30.68 256.88 29.34 Q 255.02 28 254.02 25.84 A 10.965 10.965 0 0 1 253.021 21.317 A 12.619 12.619 0 0 1 253.02 21.16 A 11.721 11.721 0 0 1 253.589 17.471 A 10.71 10.71 0 0 1 254.28 15.84 Q 255.54 13.44 257.84 11.98 A 9.346 9.346 0 0 1 261.729 10.611 A 11.875 11.875 0 0 1 263.22 10.52 Q 264.14 10.52 265.14 10.66 A 13.609 13.609 0 0 1 266.553 10.938 A 16.06 16.06 0 0 1 267.22 11.12 L 267.22 6 A 10.298 10.298 0 0 0 267.201 5.352 Q 267.163 4.75 267.048 4.346 A 2.341 2.341 0 0 0 266.98 4.14 A 1.452 1.452 0 0 0 266.248 3.35 A 2.043 2.043 0 0 0 266.04 3.26 A 4.205 4.205 0 0 0 265.563 3.118 Q 265.043 2.993 264.293 2.914 A 17.983 17.983 0 0 0 263.94 2.88 Q 263.82 2.36 263.94 1.8 A 27.298 27.298 0 0 0 266.775 1.288 A 30.452 30.452 0 0 0 267.22 1.18 A 21.497 21.497 0 0 0 269.731 0.38 A 25.109 25.109 0 0 0 270.66 0 L 271.34 0.24 A 60.421 60.421 0 0 0 271.307 1.118 Q 271.293 1.579 271.283 2.092 A 101.349 101.349 0 0 0 271.28 2.24 Q 271.26 3.36 271.26 4.68 L 271.26 24.52 Q 271.26 25.751 271.339 26.483 A 6.475 6.475 0 0 0 271.38 26.8 A 1.716 1.716 0 0 0 271.518 27.266 A 1.237 1.237 0 0 0 272.1 27.86 A 3.15 3.15 0 0 0 272.478 28.015 Q 272.889 28.157 273.509 28.284 A 17.594 17.594 0 0 0 274.14 28.4 Q 274.26 28.92 274.14 29.48 Q 272.54 29.72 271.02 30 Q 269.5 30.28 268.1 30.72 Z M 44.61 30.391 A 3.955 3.955 0 0 0 45.94 30.6 Q 47.06 30.6 48.16 30.12 A 5.551 5.551 0 0 0 49.333 29.416 A 7.623 7.623 0 0 0 50.26 28.56 Q 50.22 28.36 50.16 28.12 Q 50.1 27.88 49.94 27.68 A 18.31 18.31 0 0 1 49.375 27.854 Q 48.678 28.055 48.191 28.124 A 3.257 3.257 0 0 1 47.74 28.16 A 1.603 1.603 0 0 1 47.455 28.136 Q 46.824 28.022 46.67 27.363 A 2.129 2.129 0 0 1 46.62 26.88 A 50.746 50.746 0 0 1 46.62 26.671 Q 46.624 25.755 46.66 24.36 Q 46.7 22.8 46.72 21.06 Q 46.74 19.32 46.78 17.78 Q 46.82 16.24 46.82 15.28 A 5.392 5.392 0 0 0 46.74 14.332 A 3.947 3.947 0 0 0 46.04 12.66 Q 45.26 11.6 44 11.06 A 6.466 6.466 0 0 0 43.274 10.799 A 7.114 7.114 0 0 0 41.26 10.52 A 8.347 8.347 0 0 0 41.002 10.524 Q 40.439 10.541 39.809 10.634 A 14.913 14.913 0 0 0 38.54 10.88 Q 37.02 11.24 35.62 11.86 A 9.447 9.447 0 0 0 34.417 12.494 A 6.88 6.88 0 0 0 33.32 13.34 Q 32.954 13.689 32.737 14.055 A 2.137 2.137 0 0 0 32.42 15.16 A 2.06 2.06 0 0 0 32.42 15.182 A 1.657 1.657 0 0 0 32.92 16.38 A 1.619 1.619 0 0 0 32.925 16.385 Q 33.248 16.705 33.728 16.818 A 2.493 2.493 0 0 0 34.3 16.88 Q 35.3 16.88 36 16.22 A 4.373 4.373 0 0 0 36.389 15.802 A 4.821 4.821 0 0 0 37.1 14.6 A 5.673 5.673 0 0 0 37.294 14.059 A 4.614 4.614 0 0 0 37.5 12.72 Q 38.22 12.4 39.26 12.4 A 4.9 4.9 0 0 1 39.806 12.43 A 3.779 3.779 0 0 1 41.72 13.18 A 2.478 2.478 0 0 1 42.597 14.397 A 3.078 3.078 0 0 1 42.74 15.36 Q 42.74 16.48 42.72 17.48 Q 42.7 18.48 42.7 19.44 A 36.912 36.912 0 0 0 39.982 19.881 Q 36.15 20.659 34.145 22.103 A 4.744 4.744 0 0 0 31.94 26.08 A 5.785 5.785 0 0 0 31.999 26.919 A 3.993 3.993 0 0 0 33.36 29.46 Q 34.78 30.68 36.82 30.68 A 6.491 6.491 0 0 0 38.273 30.514 Q 39.519 30.229 40.743 29.452 A 12.128 12.128 0 0 0 42.62 27.96 Q 43.109 29.858 44.61 30.391 Z M 102.65 30.391 A 3.955 3.955 0 0 0 103.98 30.6 Q 105.1 30.6 106.2 30.12 A 5.551 5.551 0 0 0 107.373 29.416 A 7.623 7.623 0 0 0 108.3 28.56 Q 108.26 28.36 108.2 28.12 Q 108.14 27.88 107.98 27.68 A 18.31 18.31 0 0 1 107.415 27.854 Q 106.718 28.055 106.231 28.124 A 3.257 3.257 0 0 1 105.78 28.16 A 1.603 1.603 0 0 1 105.495 28.136 Q 104.864 28.022 104.71 27.363 A 2.129 2.129 0 0 1 104.66 26.88 A 50.746 50.746 0 0 1 104.66 26.671 Q 104.664 25.755 104.7 24.36 Q 104.74 22.8 104.76 21.06 Q 104.78 19.32 104.82 17.78 Q 104.86 16.24 104.86 15.28 A 5.392 5.392 0 0 0 104.78 14.332 A 3.947 3.947 0 0 0 104.08 12.66 Q 103.3 11.6 102.04 11.06 A 6.466 6.466 0 0 0 101.314 10.799 A 7.114 7.114 0 0 0 99.3 10.52 A 8.347 8.347 0 0 0 99.042 10.524 Q 98.479 10.541 97.849 10.634 A 14.913 14.913 0 0 0 96.58 10.88 Q 95.06 11.24 93.66 11.86 A 9.447 9.447 0 0 0 92.457 12.494 A 6.88 6.88 0 0 0 91.36 13.34 Q 90.994 13.689 90.777 14.055 A 2.137 2.137 0 0 0 90.46 15.16 A 2.06 2.06 0 0 0 90.46 15.182 A 1.657 1.657 0 0 0 90.96 16.38 A 1.619 1.619 0 0 0 90.965 16.385 Q 91.288 16.705 91.768 16.818 A 2.493 2.493 0 0 0 92.34 16.88 Q 93.34 16.88 94.04 16.22 A 4.373 4.373 0 0 0 94.429 15.802 A 4.821 4.821 0 0 0 95.14 14.6 A 5.673 5.673 0 0 0 95.334 14.059 A 4.614 4.614 0 0 0 95.54 12.72 Q 96.26 12.4 97.3 12.4 A 4.9 4.9 0 0 1 97.846 12.43 A 3.779 3.779 0 0 1 99.76 13.18 A 2.478 2.478 0 0 1 100.637 14.397 A 3.078 3.078 0 0 1 100.78 15.36 Q 100.78 16.48 100.76 17.48 Q 100.74 18.48 100.74 19.44 A 36.912 36.912 0 0 0 98.022 19.881 Q 94.19 20.659 92.185 22.103 A 4.744 4.744 0 0 0 89.98 26.08 A 5.785 5.785 0 0 0 90.039 26.919 A 3.993 3.993 0 0 0 91.4 29.46 Q 92.82 30.68 94.86 30.68 A 6.491 6.491 0 0 0 96.313 30.514 Q 97.559 30.229 98.783 29.452 A 12.128 12.128 0 0 0 100.66 27.96 Q 101.149 29.858 102.65 30.391 Z M 54.06 13.12 L 51.02 13.12 A 3.133 3.133 0 0 1 50.969 12.766 Q 50.937 12.374 51.02 12.04 Q 54.98 10.36 56.98 6.56 Q 57.3 6.56 57.62 6.58 A 6.983 6.983 0 0 1 57.885 6.601 Q 58.045 6.618 58.18 6.64 Q 58.14 7.68 58.12 8.84 Q 58.1 10 58.06 11.28 L 64.14 11.28 Q 64.26 12.16 64.14 13.12 L 58.06 13.12 Q 57.98 15.92 57.96 19.02 Q 57.94 22.12 57.94 25.24 A 4.483 4.483 0 0 0 58.112 26.542 Q 58.701 28.48 61.3 28.48 Q 62.74 28.48 63.98 27.72 A 2.149 2.149 0 0 1 64.315 28.394 A 2.934 2.934 0 0 1 64.42 28.92 Q 62.06 30.68 59.1 30.68 Q 56.7 30.68 55.3 29.54 A 3.688 3.688 0 0 1 53.999 27.316 A 5.566 5.566 0 0 1 53.9 26.24 A 382.1 382.1 0 0 1 53.934 21.095 A 343.521 343.521 0 0 1 53.96 19.44 A 1268.329 1268.329 0 0 0 54.039 14.655 A 1130.55 1130.55 0 0 0 54.06 13.12 Z M 218.445 30.384 A 11.432 11.432 0 0 0 221.1 30.68 A 12.119 12.119 0 0 0 222.749 30.571 A 9.406 9.406 0 0 0 226.34 29.34 Q 228.58 28 229.84 25.66 A 10.202 10.202 0 0 0 230.656 23.663 A 11.646 11.646 0 0 0 231.1 20.4 A 12.552 12.552 0 0 0 231.038 19.144 A 10.165 10.165 0 0 0 229.9 15.32 Q 228.7 13.08 226.54 11.8 Q 224.38 10.52 221.46 10.52 A 12.58 12.58 0 0 0 219.979 10.605 A 9.999 9.999 0 0 0 216.22 11.8 Q 213.94 13.08 212.68 15.4 A 10.021 10.021 0 0 0 211.697 18.091 A 13.053 13.053 0 0 0 211.42 20.84 A 12.609 12.609 0 0 0 211.515 22.408 A 9.96 9.96 0 0 0 212.62 25.94 Q 213.82 28.16 216 29.42 A 9.045 9.045 0 0 0 218.445 30.384 Z M 215.94 20.36 A 20.186 20.186 0 0 0 216.084 22.854 Q 216.38 25.221 217.28 26.82 Q 218.62 29.2 221.3 29.2 A 4.576 4.576 0 0 0 223.23 28.805 Q 224.223 28.35 224.936 27.37 A 5.898 5.898 0 0 0 225.22 26.94 Q 226.289 25.163 226.518 22.435 A 18.636 18.636 0 0 0 226.58 20.88 Q 226.58 16.84 225.22 14.44 A 5.261 5.261 0 0 0 224.152 13.086 Q 222.976 12.04 221.26 12.04 A 4.715 4.715 0 0 0 219.342 12.417 Q 218.299 12.876 217.555 13.892 A 5.873 5.873 0 0 0 217.32 14.24 Q 216.3 15.867 216.034 18.434 A 18.727 18.727 0 0 0 215.94 20.36 Z M 267.26 25.84 L 267.26 14.52 A 6.022 6.022 0 0 0 265.701 13.003 A 5.284 5.284 0 0 0 262.74 12.16 Q 259.98 12.16 258.58 14.18 Q 257.476 15.773 257.243 18.323 A 15.777 15.777 0 0 0 257.18 19.76 Q 257.18 21.84 257.74 23.76 A 7.743 7.743 0 0 0 258.538 25.608 A 6.499 6.499 0 0 0 259.58 26.92 A 4.31 4.31 0 0 0 261.839 28.059 A 6.169 6.169 0 0 0 262.98 28.16 Q 265.66 28.16 267.26 25.84 Z M 193.98 16.68 L 193.98 25.56 L 193.98 27.24 Q 193.98 27.92 194.02 28.36 Q 195.594 28.682 196.881 28.716 A 11.341 11.341 0 0 0 197.18 28.72 Q 199.468 28.72 200.994 27.87 A 5.199 5.199 0 0 0 201.96 27.18 A 4.816 4.816 0 0 0 203.299 25.049 Q 203.66 23.937 203.66 22.48 A 8.51 8.51 0 0 0 203.505 20.798 Q 203.31 19.831 202.869 19.096 A 4.194 4.194 0 0 0 201.9 17.98 A 5.355 5.355 0 0 0 200.313 17.122 Q 198.832 16.596 196.645 16.562 A 19.683 19.683 0 0 0 196.34 16.56 A 27.717 27.717 0 0 0 195.893 16.564 Q 195.665 16.568 195.412 16.575 A 47.374 47.374 0 0 0 195.24 16.58 Q 194.62 16.6 193.98 16.68 Z M 193.98 4 L 193.98 14.92 Q 194.297 14.96 194.556 14.96 A 3.556 3.556 0 0 0 194.56 14.96 L 195.06 14.96 Q 198.349 14.96 200.01 13.947 A 3.982 3.982 0 0 0 200.52 13.58 A 4.361 4.361 0 0 0 201.873 11.441 Q 202.088 10.714 202.13 9.835 A 9.114 9.114 0 0 0 202.14 9.4 A 7.757 7.757 0 0 0 201.842 7.15 Q 200.826 3.8 196.34 3.8 A 10.775 10.775 0 0 0 195.508 3.831 A 9.287 9.287 0 0 0 195.2 3.86 A 159.516 159.516 0 0 0 194.663 3.921 Q 194.341 3.958 193.98 4 Z M 42.62 26.88 L 42.7 20.88 Q 39.841 21.253 38.37 21.988 A 4.306 4.306 0 0 0 37.64 22.44 A 3.732 3.732 0 0 0 36.721 23.458 A 3.326 3.326 0 0 0 36.26 25.2 A 4.232 4.232 0 0 0 36.338 26.038 Q 36.437 26.527 36.661 26.903 A 2.226 2.226 0 0 0 37 27.34 A 2.498 2.498 0 0 0 38.739 28.078 A 3.299 3.299 0 0 0 38.86 28.08 A 3.879 3.879 0 0 0 39.549 28.014 Q 39.988 27.935 40.48 27.76 Q 41.099 27.54 41.878 27.207 A 40.663 40.663 0 0 0 42.62 26.88 Z M 100.66 26.88 L 100.74 20.88 Q 97.881 21.253 96.41 21.988 A 4.306 4.306 0 0 0 95.68 22.44 A 3.732 3.732 0 0 0 94.761 23.458 A 3.326 3.326 0 0 0 94.3 25.2 A 4.232 4.232 0 0 0 94.378 26.038 Q 94.477 26.527 94.701 26.903 A 2.226 2.226 0 0 0 95.04 27.34 A 2.498 2.498 0 0 0 96.779 28.078 A 3.299 3.299 0 0 0 96.9 28.08 A 3.879 3.879 0 0 0 97.589 28.014 Q 98.028 27.935 98.52 27.76 Q 99.139 27.54 99.918 27.207 A 40.663 40.663 0 0 0 100.66 26.88 Z M 166.951 26.477 A 3.022 3.022 0 0 0 166.7 27.72 Q 166.7 28.96 167.54 29.82 Q 168.38 30.68 169.58 30.68 Q 170.94 30.68 171.76 29.8 Q 172.58 28.92 172.58 27.72 Q 172.58 26.56 171.76 25.66 A 2.642 2.642 0 0 0 170.578 24.903 A 3.325 3.325 0 0 0 169.58 24.76 A 3.314 3.314 0 0 0 169.524 24.76 A 2.74 2.74 0 0 0 167.54 25.62 A 2.925 2.925 0 0 0 166.951 26.477 Z" vector-effect="non-scaling-stroke"/></g></svg>