<svg width="342.75" height="50.5" viewBox="0 0 342.75 50.5" xmlns="http://www.w3.org/2000/svg"><g id="svgGroup" stroke-linecap="round" fill-rule="evenodd" font-size="9pt" stroke="#ffffff" stroke-width="0.25mm" fill="#ffffff" style="stroke:#ffffff;stroke-width:0.25mm;fill:#ffffff"><path d="M 30.175 38.1 L 7.925 8.9 L 7.925 30.3 A 60.386 60.386 0 0 0 7.931 31.195 Q 7.946 32.161 7.993 32.838 A 14.212 14.212 0 0 0 8.025 33.225 A 3.868 3.868 0 0 0 8.137 33.86 Q 8.23 34.201 8.384 34.469 A 1.916 1.916 0 0 0 8.625 34.8 Q 8.978 35.153 9.605 35.431 A 6.39 6.39 0 0 0 10.175 35.65 A 7.948 7.948 0 0 0 10.919 35.854 Q 11.706 36.033 12.806 36.16 A 29.85 29.85 0 0 0 13.175 36.2 Q 13.275 37 13.175 37.8 Q 11.675 37.8 9.85 37.75 A 162.011 162.011 0 0 0 8.562 37.72 Q 8.059 37.71 7.612 37.705 A 76.887 76.887 0 0 0 6.775 37.7 A 79.988 79.988 0 0 0 5.757 37.707 Q 5.299 37.713 4.784 37.724 A 167.209 167.209 0 0 0 3.7 37.75 A 144.614 144.614 0 0 1 2.071 37.786 Q 1.305 37.798 0.619 37.8 A 86.32 86.32 0 0 1 0.425 37.8 Q 0.289 37.12 0.4 36.358 A 5.23 5.23 0 0 1 0.425 36.2 A 65.354 65.354 0 0 0 1.275 36.077 Q 2.194 35.937 2.849 35.805 A 16.885 16.885 0 0 0 3.225 35.725 A 4.633 4.633 0 0 0 3.783 35.565 Q 4.362 35.355 4.675 35.025 A 1.808 1.808 0 0 0 5.005 34.521 Q 5.179 34.136 5.25 33.6 Q 5.375 32.65 5.375 30.95 L 5.375 10.45 Q 5.375 8.643 5.273 7.53 A 13.717 13.717 0 0 0 5.25 7.3 A 4.692 4.692 0 0 0 5.133 6.637 Q 4.961 5.97 4.6 5.575 A 2.357 2.357 0 0 0 4.035 5.129 Q 3.766 4.973 3.429 4.854 A 5.06 5.06 0 0 0 3 4.725 A 12.146 12.146 0 0 0 2.248 4.56 Q 1.46 4.412 0.385 4.289 A 42.606 42.606 0 0 0 0.025 4.25 Q -0.025 3.5 0.025 2.7 Q 1.575 2.7 3.325 2.75 Q 5.075 2.8 6.825 2.8 L 8.2 2.8 A 42.904 42.904 0 0 0 9.132 2.79 Q 9.556 2.781 9.931 2.763 A 23.457 23.457 0 0 0 10.175 2.75 L 30.475 29.45 L 30.475 10.25 A 80.934 80.934 0 0 0 30.47 9.353 Q 30.46 8.384 30.424 7.695 A 20.059 20.059 0 0 0 30.4 7.3 A 3.445 3.445 0 0 0 30.308 6.701 Q 30.226 6.379 30.081 6.131 A 1.606 1.606 0 0 0 29.775 5.75 A 2.635 2.635 0 0 0 29.009 5.222 Q 27.663 4.57 24.725 4.35 Q 24.575 3.5 24.725 2.75 A 89.345 89.345 0 0 1 25.49 2.754 Q 26.172 2.759 27 2.775 A 2289.47 2289.47 0 0 1 29.418 2.822 A 2094.669 2094.669 0 0 1 29.575 2.825 A 170.123 170.123 0 0 0 30.172 2.836 Q 30.905 2.848 31.451 2.85 A 55.901 55.901 0 0 0 31.625 2.85 Q 32.86 2.85 34.681 2.801 A 197.076 197.076 0 0 0 34.725 2.8 Q 36.575 2.75 38.025 2.75 Q 38.125 3.5 38.025 4.3 A 39.026 39.026 0 0 0 36.909 4.455 Q 35.363 4.694 34.575 4.975 A 2.291 2.291 0 0 0 33.924 5.325 A 1.825 1.825 0 0 0 33.275 6.35 A 5.91 5.91 0 0 0 33.16 6.969 Q 33.068 7.634 33.039 8.611 A 33.04 33.04 0 0 0 33.025 9.6 L 33.025 37.85 Q 32.525 37.95 31.675 38.025 A 21.656 21.656 0 0 1 30.97 38.076 Q 30.648 38.094 30.362 38.099 A 12.013 12.013 0 0 1 30.175 38.1 Z M 101.225 32.55 L 101.225 22.45 A 15.617 15.617 0 0 0 101.152 20.883 Q 100.989 19.277 100.466 18.266 A 4.068 4.068 0 0 0 100.3 17.975 A 2.774 2.774 0 0 0 98.99 16.898 Q 98.493 16.687 97.856 16.587 A 8.022 8.022 0 0 0 96.625 16.5 Q 95.175 16.5 93.825 17.025 A 7.018 7.018 0 0 0 92.706 17.589 Q 91.851 18.113 90.925 18.95 L 90.925 32.05 A 27.115 27.115 0 0 0 90.939 32.956 Q 90.968 33.826 91.058 34.399 A 4.504 4.504 0 0 0 91.15 34.85 A 1.882 1.882 0 0 0 91.345 35.33 A 1.294 1.294 0 0 0 92.1 35.925 A 4.69 4.69 0 0 0 92.573 36.042 Q 93.261 36.178 94.375 36.25 Q 94.625 37 94.375 37.8 Q 93.125 37.8 91.625 37.75 Q 90.125 37.7 88.275 37.7 Q 86.425 37.7 84.975 37.75 Q 83.525 37.8 82.025 37.8 Q 81.875 37 82.025 36.25 A 26.631 26.631 0 0 0 82.819 36.192 Q 83.619 36.121 84.154 36.013 A 5.109 5.109 0 0 0 84.525 35.925 A 1.678 1.678 0 0 0 85.048 35.682 Q 85.416 35.421 85.573 34.957 A 1.807 1.807 0 0 0 85.575 34.95 Q 85.825 34.2 85.825 32.55 L 85.825 8.45 Q 85.825 7.153 85.785 6.316 A 20.552 20.552 0 0 0 85.775 6.125 Q 85.737 5.466 85.501 5.02 A 1.713 1.713 0 0 0 85.325 4.75 A 1.999 1.999 0 0 0 84.538 4.113 A 2.658 2.658 0 0 0 84.175 3.975 A 5.414 5.414 0 0 0 83.744 3.867 Q 83.247 3.762 82.516 3.676 A 28.755 28.755 0 0 0 81.775 3.6 Q 81.625 2.95 81.775 2.25 Q 83.775 2 85.825 1.475 A 29.413 29.413 0 0 0 88.21 0.75 A 37.513 37.513 0 0 0 90.175 0 L 91.025 0.3 Q 90.977 1.365 90.952 2.687 A 124.745 124.745 0 0 0 90.95 2.775 A 145.864 145.864 0 0 0 90.931 4.219 A 191.614 191.614 0 0 0 90.925 5.8 L 90.925 16.9 A 17.924 17.924 0 0 1 92.732 15.41 Q 93.724 14.702 94.701 14.249 A 9.781 9.781 0 0 1 95.35 13.975 Q 97.525 13.15 99.525 13.15 Q 102.305 13.15 103.985 14.534 A 5.436 5.436 0 0 1 104.575 15.1 A 6.323 6.323 0 0 1 105.887 17.472 Q 106.188 18.435 106.282 19.6 A 13.654 13.654 0 0 1 106.325 20.7 L 106.325 32.05 A 27.115 27.115 0 0 0 106.339 32.956 Q 106.368 33.826 106.458 34.399 A 4.504 4.504 0 0 0 106.55 34.85 A 1.816 1.816 0 0 0 106.754 35.341 A 1.317 1.317 0 0 0 107.525 35.925 A 4.863 4.863 0 0 0 108.002 36.039 Q 108.5 36.134 109.222 36.198 A 25.214 25.214 0 0 0 109.925 36.25 Q 110.025 37 109.925 37.8 Q 108.425 37.8 107 37.75 A 73.087 73.087 0 0 0 105.864 37.72 Q 105.363 37.71 104.816 37.705 A 128.082 128.082 0 0 0 103.675 37.7 A 117.996 117.996 0 0 0 102.354 37.707 Q 101.832 37.713 101.356 37.724 A 65.852 65.852 0 0 0 100.45 37.75 Q 99.075 37.8 97.675 37.8 Q 97.575 37 97.675 36.25 A 22.462 22.462 0 0 0 98.4 36.192 Q 99.155 36.119 99.66 36.006 A 4.532 4.532 0 0 0 99.975 35.925 Q 100.725 35.7 100.975 34.95 Q 101.225 34.2 101.225 32.55 Z M 190.125 32.2 L 190.125 4.9 L 186.525 4.9 Q 183.875 4.9 182.35 5.625 Q 180.825 6.35 179.9 7.8 A 16.191 16.191 0 0 0 179.21 9 Q 178.852 9.684 178.498 10.489 A 32.905 32.905 0 0 0 178.075 11.5 Q 177.275 11.6 176.475 11.5 L 177.05 6.9 A 162.374 162.374 0 0 0 177.42 3.684 A 145.287 145.287 0 0 0 177.525 2.65 Q 180.775 2.85 184.725 2.875 A 1261.86 1261.86 0 0 0 190.819 2.898 A 1407.15 1407.15 0 0 0 192.925 2.9 A 1356.689 1356.689 0 0 0 199.192 2.886 A 1204.801 1204.801 0 0 0 201.2 2.875 Q 205.159 2.85 208.35 2.652 A 89.363 89.363 0 0 0 208.375 2.65 Q 208.575 4.65 208.775 6.875 A 130.249 130.249 0 0 0 209.131 10.311 A 146.621 146.621 0 0 0 209.275 11.5 Q 208.425 11.6 207.625 11.5 A 31.79 31.79 0 0 0 206.913 9.895 Q 206.546 9.13 206.18 8.493 A 14.911 14.911 0 0 0 205.725 7.75 A 6.063 6.063 0 0 0 204.15 6.096 A 5.73 5.73 0 0 0 203.3 5.6 A 6.027 6.027 0 0 0 202.147 5.201 Q 200.914 4.9 199.175 4.9 L 195.625 4.9 L 195.625 31.55 Q 195.625 32.95 195.707 33.82 A 10.589 10.589 0 0 0 195.725 34 A 3.064 3.064 0 0 0 195.817 34.49 Q 195.891 34.752 196.01 34.954 A 1.342 1.342 0 0 0 196.3 35.3 A 1.855 1.855 0 0 0 196.695 35.548 Q 197.092 35.739 197.69 35.851 A 6.817 6.817 0 0 0 197.825 35.875 Q 198.773 36.033 200.375 36.171 A 72.239 72.239 0 0 0 200.725 36.2 Q 200.875 37 200.725 37.8 A 109.712 109.712 0 0 1 199.878 37.796 Q 199.122 37.791 198.2 37.775 Q 196.725 37.75 195.275 37.725 A 203.618 203.618 0 0 0 194.251 37.71 Q 193.45 37.7 192.825 37.7 A 86.533 86.533 0 0 0 192.32 37.702 Q 191.545 37.706 190.519 37.724 A 236.169 236.169 0 0 0 190.45 37.725 Q 189.025 37.75 187.55 37.775 A 206.872 206.872 0 0 1 186.504 37.79 Q 186.092 37.795 185.723 37.798 A 105.933 105.933 0 0 1 185.025 37.8 Q 184.931 37.097 185.013 36.306 A 7.733 7.733 0 0 1 185.025 36.2 A 84.403 84.403 0 0 0 186.184 36.077 Q 187.788 35.894 188.575 35.725 A 2.627 2.627 0 0 0 189.089 35.563 Q 189.377 35.435 189.569 35.245 A 1.239 1.239 0 0 0 189.875 34.75 A 3.398 3.398 0 0 0 189.99 34.277 Q 190.081 33.77 190.11 33.007 A 20.812 20.812 0 0 0 190.125 32.2 Z M 156.025 32.55 L 156.025 22.45 A 15.617 15.617 0 0 0 155.952 20.883 Q 155.789 19.277 155.266 18.266 A 4.068 4.068 0 0 0 155.1 17.975 A 2.774 2.774 0 0 0 153.79 16.898 Q 153.293 16.687 152.656 16.587 A 8.022 8.022 0 0 0 151.425 16.5 Q 149.975 16.5 148.625 17.025 A 6.82 6.82 0 0 0 147.577 17.549 Q 147.07 17.855 146.531 18.276 A 15.419 15.419 0 0 0 145.675 19 L 145.675 32.05 A 27.115 27.115 0 0 0 145.689 32.956 Q 145.718 33.826 145.808 34.399 A 4.504 4.504 0 0 0 145.9 34.85 A 1.816 1.816 0 0 0 146.104 35.341 A 1.317 1.317 0 0 0 146.875 35.925 A 4.996 4.996 0 0 0 147.364 36.042 Q 147.853 36.135 148.549 36.199 A 24.083 24.083 0 0 0 149.225 36.25 Q 149.325 37 149.225 37.8 Q 147.825 37.8 146.3 37.75 Q 144.775 37.7 143.025 37.7 Q 141.425 37.7 139.875 37.75 Q 138.325 37.8 136.825 37.8 Q 136.675 37 136.825 36.25 A 26.631 26.631 0 0 0 137.619 36.192 Q 138.419 36.121 138.954 36.013 A 5.109 5.109 0 0 0 139.325 35.925 A 1.678 1.678 0 0 0 139.848 35.682 Q 140.216 35.421 140.373 34.957 A 1.807 1.807 0 0 0 140.375 34.95 Q 140.625 34.2 140.625 32.55 L 140.625 21.35 A 35.591 35.591 0 0 0 140.614 20.438 Q 140.59 19.488 140.511 18.851 A 6.924 6.924 0 0 0 140.45 18.45 A 2.136 2.136 0 0 0 140.25 17.847 A 1.614 1.614 0 0 0 139.5 17.125 A 3.857 3.857 0 0 0 138.996 16.929 Q 138.219 16.682 136.875 16.5 Q 136.725 15.8 136.875 15.2 Q 141.175 14.35 144.775 12.9 L 145.625 13.2 L 145.625 16.95 A 18.945 18.945 0 0 1 147.477 15.45 Q 148.483 14.741 149.47 14.28 A 10.381 10.381 0 0 1 150.125 14 A 13.225 13.225 0 0 1 152.341 13.349 A 10.287 10.287 0 0 1 154.325 13.15 Q 157.105 13.15 158.785 14.534 A 5.436 5.436 0 0 1 159.375 15.1 A 6.323 6.323 0 0 1 160.687 17.472 Q 160.988 18.435 161.082 19.6 A 13.654 13.654 0 0 1 161.125 20.7 L 161.125 32.05 A 27.115 27.115 0 0 0 161.139 32.956 Q 161.168 33.826 161.258 34.399 A 4.504 4.504 0 0 0 161.35 34.85 A 1.816 1.816 0 0 0 161.554 35.341 A 1.317 1.317 0 0 0 162.325 35.925 A 4.863 4.863 0 0 0 162.802 36.039 Q 163.3 36.134 164.022 36.198 A 25.214 25.214 0 0 0 164.725 36.25 Q 164.825 37 164.725 37.8 Q 163.225 37.8 161.8 37.75 A 73.087 73.087 0 0 0 160.664 37.72 Q 160.163 37.71 159.616 37.705 A 128.082 128.082 0 0 0 158.475 37.7 A 117.996 117.996 0 0 0 157.154 37.707 Q 156.632 37.713 156.156 37.724 A 65.852 65.852 0 0 0 155.25 37.75 Q 153.875 37.8 152.475 37.8 Q 152.375 37 152.475 36.25 A 22.462 22.462 0 0 0 153.2 36.192 Q 153.955 36.119 154.46 36.006 A 4.532 4.532 0 0 0 154.775 35.925 Q 155.525 35.7 155.775 34.95 Q 156.025 34.2 156.025 32.55 Z M 312.125 18.75 L 303.575 38.7 A 26.325 26.325 0 0 1 303.425 39.052 Q 303.163 39.656 302.675 40.725 A 200.051 200.051 0 0 1 301.658 42.919 A 223.731 223.731 0 0 1 301.3 43.675 A 225.466 225.466 0 0 1 300.952 44.405 Q 300.45 45.45 300.075 46.2 A 18.745 18.745 0 0 1 299.376 47.457 Q 298.488 48.91 297.625 49.575 A 4.643 4.643 0 0 1 296.467 50.239 A 3.827 3.827 0 0 1 295.075 50.5 A 3.775 3.775 0 0 1 294.256 50.417 Q 293.697 50.292 293.287 49.984 A 2.232 2.232 0 0 1 293 49.725 Q 292.275 48.95 292.275 47.9 Q 292.275 46.742 293.301 45.636 A 6.643 6.643 0 0 1 293.775 45.175 A 4.416 4.416 0 0 1 295.167 44.368 Q 296.55 43.85 298.675 43.85 A 36.23 36.23 0 0 0 299.596 42.106 A 42.285 42.285 0 0 0 299.95 41.375 Q 300.38 40.464 300.916 39.258 A 179.054 179.054 0 0 0 301.425 38.1 A 417.704 417.704 0 0 1 301.131 37.35 Q 300.663 36.15 300.025 34.5 A 337.958 337.958 0 0 0 299.119 32.181 A 456.437 456.437 0 0 0 298.1 29.625 Q 297.025 26.95 295.925 24.075 A 1100.02 1100.02 0 0 0 293.906 18.838 A 1001.678 1001.678 0 0 0 293.775 18.5 A 9.939 9.939 0 0 0 293.428 17.679 Q 293.047 16.89 292.622 16.459 A 2.317 2.317 0 0 0 292.45 16.3 A 2.205 2.205 0 0 0 291.937 15.994 Q 291.377 15.745 290.473 15.601 A 13.178 13.178 0 0 0 289.675 15.5 A 3.446 3.446 0 0 1 289.602 14.883 Q 289.588 14.441 289.675 13.95 Q 291.125 13.95 292.625 14 A 92.008 92.008 0 0 0 295.327 14.049 A 101.211 101.211 0 0 0 295.725 14.05 Q 297.175 14.05 298.875 14 A 138.156 138.156 0 0 1 300.08 13.97 Q 300.552 13.96 300.976 13.955 A 69.538 69.538 0 0 1 301.775 13.95 Q 301.875 14.7 301.775 15.5 Q 300.078 15.6 299.403 15.849 A 2.287 2.287 0 0 0 299.4 15.85 A 1.123 1.123 0 0 0 299.037 16.061 Q 298.799 16.274 298.743 16.62 A 1.425 1.425 0 0 0 298.725 16.85 A 2.977 2.977 0 0 0 298.762 17.289 Q 298.834 17.762 299.042 18.441 A 17.233 17.233 0 0 0 299.225 19 Q 300.525 22.55 301.75 25.55 Q 302.975 28.55 304.225 31.7 Q 305.825 28.05 307.05 25.15 A 290.488 290.488 0 0 0 308.902 20.659 A 324.184 324.184 0 0 0 309.525 19.1 Q 309.948 17.985 310.046 17.313 A 2.547 2.547 0 0 0 310.075 16.95 A 0.996 0.996 0 0 0 309.942 16.431 Q 309.759 16.124 309.325 15.95 Q 308.575 15.65 306.675 15.5 Q 306.525 14.7 306.675 13.95 A 67.95 67.95 0 0 1 309.085 13.994 A 74.236 74.236 0 0 1 309.25 14 A 70.075 70.075 0 0 0 310.975 14.043 A 84.218 84.218 0 0 0 312.075 14.05 Q 313.075 14.05 314.25 14 Q 315.425 13.95 316.375 13.95 Q 316.525 14.7 316.375 15.5 A 9.699 9.699 0 0 0 315.409 15.614 Q 314.443 15.782 313.883 16.138 A 1.944 1.944 0 0 0 313.525 16.425 Q 313 16.967 312.524 17.889 A 11.976 11.976 0 0 0 312.125 18.75 Z M 236.975 32.2 L 236.975 8.95 Q 236.975 7.334 236.827 6.429 A 4.546 4.546 0 0 0 236.725 5.95 A 1.558 1.558 0 0 0 235.834 4.913 A 2.381 2.381 0 0 0 235.45 4.775 A 8.336 8.336 0 0 0 234.858 4.642 Q 233.85 4.45 232.125 4.3 Q 232.031 3.597 232.113 2.806 A 7.733 7.733 0 0 1 232.125 2.7 A 108.366 108.366 0 0 1 232.969 2.704 Q 233.719 2.709 234.625 2.725 Q 236.075 2.75 237.5 2.775 A 214.469 214.469 0 0 0 238.183 2.786 Q 239.163 2.8 239.875 2.8 A 116.643 116.643 0 0 0 241.322 2.79 Q 242.064 2.781 242.89 2.763 A 204.005 204.005 0 0 0 243.45 2.75 A 236.61 236.61 0 0 1 244.411 2.728 Q 245.775 2.7 246.675 2.7 A 29.767 29.767 0 0 1 249.857 2.858 Q 253.605 3.263 255.725 4.7 A 6.396 6.396 0 0 1 258.601 9.343 A 8.79 8.79 0 0 1 258.675 10.5 A 7.643 7.643 0 0 1 255.213 17.126 Q 253.9 18.04 252.088 18.693 A 19.788 19.788 0 0 1 250.825 19.1 L 250.825 19.15 A 14.563 14.563 0 0 1 254.164 19.779 A 12.738 12.738 0 0 1 255.75 20.4 A 9.161 9.161 0 0 1 258.693 22.559 A 8.828 8.828 0 0 1 259.325 23.35 A 7.16 7.16 0 0 1 260.508 26.192 A 9.889 9.889 0 0 1 260.675 28.05 A 9.651 9.651 0 0 1 260.241 31.002 A 8.021 8.021 0 0 1 258.525 33.975 Q 256.375 36.35 253.175 37.2 Q 251.775 37.55 250.175 37.7 A 34.598 34.598 0 0 1 247.88 37.835 A 40.998 40.998 0 0 1 246.775 37.85 A 88.429 88.429 0 0 1 244.08 37.808 A 98.136 98.136 0 0 1 243.15 37.775 A 104.172 104.172 0 0 0 241.591 37.724 Q 240.641 37.7 239.825 37.7 A 68.298 68.298 0 0 0 239.384 37.702 Q 238.888 37.705 238.219 37.715 A 259.226 259.226 0 0 0 237.575 37.725 Q 236.125 37.75 234.625 37.775 A 237.629 237.629 0 0 1 233.906 37.786 Q 232.875 37.8 232.125 37.8 Q 232.031 37.097 232.113 36.306 A 7.733 7.733 0 0 1 232.125 36.2 A 75.786 75.786 0 0 0 233.216 36.077 Q 234.725 35.894 235.475 35.725 A 2.331 2.331 0 0 0 235.99 35.549 A 1.36 1.36 0 0 0 236.725 34.725 Q 236.925 34.106 236.965 32.865 A 20.598 20.598 0 0 0 236.975 32.2 Z M 335.125 38.4 L 334.325 38.05 L 334.125 34.6 A 15.767 15.767 0 0 1 332.579 36.076 Q 331.702 36.801 330.806 37.29 A 9.45 9.45 0 0 1 330.55 37.425 A 8.665 8.665 0 0 1 326.943 38.342 A 10.218 10.218 0 0 1 326.525 38.35 A 9.675 9.675 0 0 1 323.324 37.835 A 8.652 8.652 0 0 1 321.1 36.675 Q 318.775 35 317.525 32.3 A 13.707 13.707 0 0 1 316.276 26.646 A 15.77 15.77 0 0 1 316.275 26.45 A 14.652 14.652 0 0 1 316.986 21.839 A 13.387 13.387 0 0 1 317.85 19.8 Q 319.425 16.8 322.3 14.975 A 11.682 11.682 0 0 1 327.161 13.264 A 14.844 14.844 0 0 1 329.025 13.15 A 16.725 16.725 0 0 1 330.806 13.248 A 19.268 19.268 0 0 1 331.425 13.325 A 17.011 17.011 0 0 1 333.191 13.672 A 20.075 20.075 0 0 1 334.025 13.9 L 334.025 7.5 A 12.872 12.872 0 0 0 334.001 6.689 Q 333.941 5.732 333.725 5.175 Q 333.425 4.4 332.55 4.075 A 5.257 5.257 0 0 0 331.953 3.897 Q 331.155 3.705 329.925 3.6 Q 329.775 2.95 329.925 2.25 A 34.122 34.122 0 0 0 333.469 1.61 A 38.062 38.062 0 0 0 334.025 1.475 A 26.871 26.871 0 0 0 337.163 0.475 A 31.386 31.386 0 0 0 338.325 0 L 339.175 0.3 Q 339.125 1.4 339.1 2.8 Q 339.075 4.2 339.075 5.85 L 339.075 30.65 Q 339.075 32.55 339.225 33.5 A 2.145 2.145 0 0 0 339.398 34.082 A 1.546 1.546 0 0 0 340.125 34.825 A 3.937 3.937 0 0 0 340.598 35.019 Q 341.111 35.196 341.886 35.355 A 21.992 21.992 0 0 0 342.675 35.5 Q 342.825 36.15 342.675 36.85 Q 340.675 37.15 338.775 37.5 Q 336.875 37.85 335.125 38.4 Z M 55.763 37.989 A 4.944 4.944 0 0 0 57.425 38.25 Q 58.825 38.25 60.2 37.65 A 6.938 6.938 0 0 0 61.667 36.769 A 9.529 9.529 0 0 0 62.825 35.7 A 10.312 10.312 0 0 0 62.769 35.438 A 13.768 13.768 0 0 0 62.7 35.15 Q 62.625 34.85 62.425 34.6 A 22.887 22.887 0 0 1 61.719 34.817 Q 60.394 35.2 59.675 35.2 Q 58.57 35.2 58.337 34.204 A 2.661 2.661 0 0 1 58.275 33.6 Q 58.275 32.4 58.325 30.45 Q 58.375 28.5 58.4 26.325 A 311.058 311.058 0 0 1 58.431 24.213 A 259.125 259.125 0 0 1 58.475 22.225 A 224.198 224.198 0 0 0 58.485 21.827 Q 58.525 20.173 58.525 19.1 A 6.74 6.74 0 0 0 58.425 17.915 A 4.934 4.934 0 0 0 57.55 15.825 Q 56.575 14.5 55 13.825 A 8.083 8.083 0 0 0 54.092 13.499 A 8.892 8.892 0 0 0 51.575 13.15 A 10.434 10.434 0 0 0 51.252 13.155 Q 50.548 13.177 49.761 13.292 A 18.641 18.641 0 0 0 48.175 13.6 Q 46.275 14.05 44.525 14.825 A 11.809 11.809 0 0 0 43.022 15.617 A 8.6 8.6 0 0 0 41.65 16.675 A 5.292 5.292 0 0 0 41.485 16.839 Q 40.525 17.841 40.525 18.95 A 2.577 2.577 0 0 0 40.525 18.978 A 2.071 2.071 0 0 0 41.15 20.475 Q 41.555 20.88 42.16 21.023 A 3.116 3.116 0 0 0 42.875 21.1 Q 44.125 21.1 45 20.275 Q 45.875 19.45 46.375 18.25 A 7.091 7.091 0 0 0 46.618 17.574 A 5.767 5.767 0 0 0 46.875 15.9 A 3.861 3.861 0 0 1 47.159 15.787 Q 47.974 15.5 49.075 15.5 A 6.125 6.125 0 0 1 49.758 15.537 A 4.724 4.724 0 0 1 52.15 16.475 A 3.097 3.097 0 0 1 53.246 17.996 A 3.848 3.848 0 0 1 53.425 19.2 Q 53.425 20.6 53.4 21.85 Q 53.375 23.1 53.375 24.3 Q 46.013 25.231 42.681 27.629 A 5.93 5.93 0 0 0 39.925 32.6 A 7.231 7.231 0 0 0 39.998 33.648 A 4.991 4.991 0 0 0 41.7 36.825 Q 43.475 38.35 46.025 38.35 A 8.113 8.113 0 0 0 47.841 38.143 Q 49.399 37.786 50.929 36.815 A 15.16 15.16 0 0 0 53.275 34.95 A 6.032 6.032 0 0 0 53.631 35.968 Q 54.326 37.478 55.763 37.989 Z M 128.313 37.989 A 4.944 4.944 0 0 0 129.975 38.25 Q 131.375 38.25 132.75 37.65 A 6.938 6.938 0 0 0 134.217 36.769 A 9.529 9.529 0 0 0 135.375 35.7 A 10.312 10.312 0 0 0 135.319 35.438 A 13.768 13.768 0 0 0 135.25 35.15 Q 135.175 34.85 134.975 34.6 A 22.887 22.887 0 0 1 134.269 34.817 Q 132.944 35.2 132.225 35.2 Q 131.12 35.2 130.887 34.204 A 2.661 2.661 0 0 1 130.825 33.6 Q 130.825 32.4 130.875 30.45 Q 130.925 28.5 130.95 26.325 A 311.058 311.058 0 0 1 130.981 24.213 A 259.125 259.125 0 0 1 131.025 22.225 A 224.198 224.198 0 0 0 131.035 21.827 Q 131.075 20.173 131.075 19.1 A 6.74 6.74 0 0 0 130.975 17.915 A 4.934 4.934 0 0 0 130.1 15.825 Q 129.125 14.5 127.55 13.825 A 8.083 8.083 0 0 0 126.642 13.499 A 8.892 8.892 0 0 0 124.125 13.15 A 10.434 10.434 0 0 0 123.802 13.155 Q 123.098 13.177 122.311 13.292 A 18.641 18.641 0 0 0 120.725 13.6 Q 118.825 14.05 117.075 14.825 A 11.809 11.809 0 0 0 115.572 15.617 A 8.6 8.6 0 0 0 114.2 16.675 A 5.292 5.292 0 0 0 114.035 16.839 Q 113.075 17.841 113.075 18.95 A 2.577 2.577 0 0 0 113.075 18.978 A 2.071 2.071 0 0 0 113.7 20.475 Q 114.105 20.88 114.71 21.023 A 3.116 3.116 0 0 0 115.425 21.1 Q 116.675 21.1 117.55 20.275 Q 118.425 19.45 118.925 18.25 A 7.091 7.091 0 0 0 119.168 17.574 A 5.767 5.767 0 0 0 119.425 15.9 A 3.861 3.861 0 0 1 119.709 15.787 Q 120.524 15.5 121.625 15.5 A 6.125 6.125 0 0 1 122.308 15.537 A 4.724 4.724 0 0 1 124.7 16.475 A 3.097 3.097 0 0 1 125.796 17.996 A 3.848 3.848 0 0 1 125.975 19.2 Q 125.975 20.6 125.95 21.85 Q 125.925 23.1 125.925 24.3 Q 118.563 25.231 115.231 27.629 A 5.93 5.93 0 0 0 112.475 32.6 A 7.231 7.231 0 0 0 112.548 33.648 A 4.991 4.991 0 0 0 114.25 36.825 Q 116.025 38.35 118.575 38.35 A 8.113 8.113 0 0 0 120.391 38.143 Q 121.949 37.786 123.479 36.815 A 15.16 15.16 0 0 0 125.825 34.95 A 6.032 6.032 0 0 0 126.181 35.968 Q 126.876 37.478 128.313 37.989 Z M 67.575 16.4 L 63.775 16.4 A 3.917 3.917 0 0 1 63.711 15.957 Q 63.678 15.555 63.742 15.202 A 2.393 2.393 0 0 1 63.775 15.05 Q 68.725 12.95 71.225 8.2 Q 71.625 8.2 72.025 8.225 A 8.728 8.728 0 0 1 72.356 8.252 Q 72.506 8.267 72.639 8.286 A 4.803 4.803 0 0 1 72.725 8.3 A 119.8 119.8 0 0 0 72.681 9.638 A 140.98 140.98 0 0 0 72.65 11.05 Q 72.625 12.5 72.575 14.1 L 80.175 14.1 Q 80.325 15.2 80.175 16.4 L 72.575 16.4 Q 72.475 19.9 72.45 23.775 Q 72.425 27.65 72.425 31.55 A 5.604 5.604 0 0 0 72.641 33.177 Q 73.184 34.966 75.097 35.434 A 6.444 6.444 0 0 0 76.625 35.6 Q 78.425 35.6 79.975 34.65 A 2.686 2.686 0 0 1 80.393 35.493 A 3.668 3.668 0 0 1 80.525 36.15 Q 77.575 38.35 73.875 38.35 Q 71.552 38.35 69.978 37.495 A 5.518 5.518 0 0 1 69.125 36.925 A 4.61 4.61 0 0 1 67.498 34.144 A 6.958 6.958 0 0 1 67.375 32.8 A 477.624 477.624 0 0 1 67.417 26.369 A 429.415 429.415 0 0 1 67.45 24.3 A 1585.39 1585.39 0 0 0 67.548 18.319 A 1413.297 1413.297 0 0 0 67.575 16.4 Z M 273.056 37.98 A 14.29 14.29 0 0 0 276.375 38.35 A 15.149 15.149 0 0 0 278.436 38.214 A 11.757 11.757 0 0 0 282.925 36.675 Q 285.725 35 287.3 32.075 A 12.752 12.752 0 0 0 288.32 29.579 A 14.558 14.558 0 0 0 288.875 25.5 A 15.69 15.69 0 0 0 288.798 23.93 A 12.707 12.707 0 0 0 287.375 19.15 Q 285.875 16.35 283.175 14.75 A 11.051 11.051 0 0 0 280.038 13.502 A 14.073 14.073 0 0 0 276.825 13.15 A 15.725 15.725 0 0 0 274.974 13.256 A 12.499 12.499 0 0 0 270.275 14.75 Q 267.425 16.35 265.85 19.25 A 12.526 12.526 0 0 0 264.621 22.613 A 16.316 16.316 0 0 0 264.275 26.05 A 15.761 15.761 0 0 0 264.394 28.01 A 12.45 12.45 0 0 0 265.775 32.425 Q 267.275 35.2 270 36.775 A 11.306 11.306 0 0 0 273.056 37.98 Z M 270.711 31.44 A 10.925 10.925 0 0 0 271.6 33.525 A 6.257 6.257 0 0 0 273.02 35.279 Q 274.319 36.366 276.164 36.485 A 7.167 7.167 0 0 0 276.625 36.5 A 5.72 5.72 0 0 0 279.038 36.006 Q 280.536 35.319 281.525 33.675 Q 283.225 30.85 283.225 26.1 Q 283.225 21.05 281.525 18.05 A 6.577 6.577 0 0 0 280.191 16.357 Q 278.721 15.05 276.575 15.05 Q 273.639 15.05 271.944 17.365 A 7.341 7.341 0 0 0 271.65 17.8 A 9.916 9.916 0 0 0 270.537 20.375 Q 270.193 21.588 270.042 23.042 A 23.409 23.409 0 0 0 269.925 25.45 Q 269.925 28.944 270.711 31.44 Z M 334.075 32.3 L 334.075 18.15 A 7.527 7.527 0 0 0 332.126 16.254 A 6.605 6.605 0 0 0 328.425 15.2 A 7.466 7.466 0 0 0 326.254 15.498 A 5.558 5.558 0 0 0 323.225 17.725 A 8.846 8.846 0 0 0 322.029 20.303 Q 321.683 21.485 321.553 22.904 A 19.722 19.722 0 0 0 321.475 24.7 Q 321.475 27.3 322.175 29.7 A 9.679 9.679 0 0 0 323.173 32.01 A 8.124 8.124 0 0 0 324.475 33.65 A 5.388 5.388 0 0 0 327.299 35.074 A 7.712 7.712 0 0 0 328.725 35.2 A 6.055 6.055 0 0 0 333.417 33.135 A 8.119 8.119 0 0 0 334.075 32.3 Z M 242.475 20.85 L 242.475 31.95 L 242.475 34.05 Q 242.475 34.9 242.525 35.45 Q 244.493 35.853 246.101 35.895 A 14.176 14.176 0 0 0 246.475 35.9 Q 249.335 35.9 251.243 34.838 A 6.499 6.499 0 0 0 252.45 33.975 A 6.02 6.02 0 0 0 254.124 31.311 Q 254.575 29.921 254.575 28.1 A 10.637 10.637 0 0 0 254.381 25.997 Q 254.137 24.789 253.586 23.87 A 5.242 5.242 0 0 0 252.375 22.475 Q 250.264 20.772 245.806 20.703 A 24.604 24.604 0 0 0 245.425 20.7 A 34.644 34.644 0 0 0 244.867 20.705 Q 244.581 20.709 244.265 20.718 A 59.232 59.232 0 0 0 244.05 20.725 Q 243.275 20.75 242.475 20.85 Z M 242.475 5 L 242.475 18.65 A 6.933 6.933 0 0 0 242.851 18.687 Q 243.032 18.7 243.195 18.7 A 4.167 4.167 0 0 0 243.2 18.7 L 243.825 18.7 Q 247.937 18.7 250.012 17.434 A 4.978 4.978 0 0 0 250.65 16.975 A 5.451 5.451 0 0 0 252.341 14.301 Q 252.61 13.392 252.662 12.294 A 11.393 11.393 0 0 0 252.675 11.75 Q 252.675 6.167 248.063 5.037 A 11.11 11.11 0 0 0 245.425 4.75 A 13.469 13.469 0 0 0 244.386 4.789 A 11.608 11.608 0 0 0 244 4.825 A 199.372 199.372 0 0 0 243.329 4.901 Q 242.927 4.947 242.475 5 Z M 53.275 33.6 L 53.375 26.1 Q 49.801 26.566 47.962 27.485 A 5.383 5.383 0 0 0 47.05 28.05 Q 45.325 29.4 45.325 31.5 A 5.29 5.29 0 0 0 45.422 32.548 Q 45.546 33.159 45.826 33.629 A 2.782 2.782 0 0 0 46.25 34.175 Q 47.175 35.1 48.575 35.1 A 4.848 4.848 0 0 0 49.437 35.018 Q 49.848 34.944 50.297 34.802 A 8.91 8.91 0 0 0 50.6 34.7 A 25.492 25.492 0 0 0 51.504 34.358 Q 51.905 34.198 52.348 34.008 A 50.829 50.829 0 0 0 53.275 33.6 Z M 125.825 33.6 L 125.925 26.1 Q 122.351 26.566 120.512 27.485 A 5.383 5.383 0 0 0 119.6 28.05 Q 117.875 29.4 117.875 31.5 A 5.29 5.29 0 0 0 117.972 32.548 Q 118.096 33.159 118.376 33.629 A 2.782 2.782 0 0 0 118.8 34.175 Q 119.725 35.1 121.125 35.1 A 4.848 4.848 0 0 0 121.987 35.018 Q 122.398 34.944 122.847 34.802 A 8.91 8.91 0 0 0 123.15 34.7 A 25.492 25.492 0 0 0 124.054 34.358 Q 124.455 34.198 124.898 34.008 A 50.829 50.829 0 0 0 125.825 33.6 Z M 208.689 33.097 A 3.777 3.777 0 0 0 208.375 34.65 A 2.864 2.864 0 0 0 208.375 34.652 A 3.615 3.615 0 0 0 209.425 37.275 A 4.165 4.165 0 0 0 209.474 37.325 A 3.425 3.425 0 0 0 211.975 38.35 A 4.76 4.76 0 0 0 212.541 38.317 A 3.404 3.404 0 0 0 214.7 37.25 Q 215.725 36.15 215.725 34.65 A 3.679 3.679 0 0 0 215.5 33.362 A 3.938 3.938 0 0 0 214.7 32.075 A 3.303 3.303 0 0 0 213.223 31.129 A 4.156 4.156 0 0 0 211.975 30.95 A 4.143 4.143 0 0 0 211.905 30.951 A 3.425 3.425 0 0 0 209.425 32.025 A 3.657 3.657 0 0 0 208.689 33.097 Z" vector-effect="non-scaling-stroke"/></g></svg>