<svg width="2056.5" height="303.001" viewBox="0 0 2056.5 303.001" xmlns="http://www.w3.org/2000/svg"><g id="svgGroup" stroke-linecap="round" fill-rule="evenodd" font-size="9pt" stroke="#ffffff" stroke-width="0.25mm" fill="#ffffff" style="stroke:#ffffff;stroke-width:0.25mm;fill:#ffffff"><path d="M 181.05 228.6 L 47.55 53.4 L 47.55 181.8 Q 47.55 191.196 47.958 197.026 A 85.274 85.274 0 0 0 48.15 199.35 A 23.21 23.21 0 0 0 48.824 203.16 Q 49.378 205.208 50.306 206.812 A 11.498 11.498 0 0 0 51.75 208.8 Q 53.868 210.918 57.632 212.588 A 38.341 38.341 0 0 0 61.05 213.9 Q 66.741 215.797 76.838 216.96 A 179.096 179.096 0 0 0 79.05 217.2 Q 79.352 219.619 79.35 222.038 A 38.665 38.665 0 0 1 79.05 226.8 Q 70.05 226.8 59.1 226.5 A 972.053 972.053 0 0 0 51.373 226.317 Q 48.355 226.259 45.674 226.229 A 461.319 461.319 0 0 0 40.65 226.2 A 479.92 479.92 0 0 0 34.54 226.242 Q 31.792 226.277 28.707 226.342 A 1003.258 1003.258 0 0 0 22.2 226.5 A 867.691 867.691 0 0 1 12.429 226.715 Q 7.172 226.8 2.55 226.8 Q 1.734 222.722 2.397 218.151 A 31.381 31.381 0 0 1 2.55 217.2 Q 13.35 215.7 19.35 214.35 A 27.8 27.8 0 0 0 22.7 213.388 Q 26.173 212.132 28.05 210.15 Q 30.155 207.928 31.074 203.975 A 24.721 24.721 0 0 0 31.5 201.6 Q 32.177 196.453 32.243 187.636 A 259.996 259.996 0 0 0 32.25 185.7 L 32.25 62.7 A 312.135 312.135 0 0 0 32.177 55.698 Q 32.038 49.55 31.638 45.182 A 82.303 82.303 0 0 0 31.5 43.8 Q 30.75 36.9 27.6 33.45 Q 25.114 30.728 20.574 29.126 A 30.358 30.358 0 0 0 18 28.35 A 72.873 72.873 0 0 0 13.485 27.363 Q 7.988 26.325 0.15 25.5 Q -0.15 21 0.15 16.2 Q 9.45 16.2 19.95 16.5 Q 30.45 16.8 40.95 16.8 L 49.2 16.8 Q 55.95 16.8 61.05 16.5 L 182.85 176.7 L 182.85 61.5 Q 182.85 50.1 182.4 43.8 Q 182.095 39.536 180.485 36.784 A 9.636 9.636 0 0 0 178.65 34.5 A 15.809 15.809 0 0 0 174.054 31.332 Q 166.756 27.8 151.669 26.38 A 175.451 175.451 0 0 0 148.35 26.1 A 29.107 29.107 0 0 1 147.917 22.093 Q 147.812 19.189 148.35 16.5 A 536.057 536.057 0 0 1 152.941 16.521 Q 154.986 16.539 157.251 16.571 A 1026.093 1026.093 0 0 1 162 16.65 Q 169.95 16.8 177.45 16.95 Q 184.95 17.1 189.75 17.1 A 446.295 446.295 0 0 0 193.725 17.081 Q 200.025 17.025 208.35 16.8 A 906.324 906.324 0 0 1 217.603 16.595 Q 223.256 16.5 228.15 16.5 Q 228.75 21 228.15 25.8 Q 213.75 27.6 207.45 29.85 A 13.744 13.744 0 0 0 203.542 31.951 A 10.951 10.951 0 0 0 199.65 38.1 A 35.458 35.458 0 0 0 198.959 41.817 Q 198.15 47.686 198.15 57.6 L 198.15 227.1 A 44.976 44.976 0 0 1 196.07 227.46 Q 193.556 227.841 190.05 228.15 Q 184.95 228.6 181.05 228.6 Z M 607.35 195.3 L 607.35 134.7 A 93.7 93.7 0 0 0 606.911 125.299 Q 605.789 114.211 601.8 107.85 A 16.645 16.645 0 0 0 593.939 101.389 Q 590.955 100.12 587.137 99.525 A 48.135 48.135 0 0 0 579.75 99 Q 571.05 99 562.95 102.15 Q 556.667 104.594 549.661 110.196 A 90.133 90.133 0 0 0 545.55 113.7 L 545.55 192.3 Q 545.55 201.301 546.349 206.395 A 27.023 27.023 0 0 0 546.9 209.1 A 11.295 11.295 0 0 0 548.073 211.982 A 7.765 7.765 0 0 0 552.6 215.55 Q 556.95 216.9 566.25 217.5 Q 567.633 221.648 566.466 226.052 A 17.751 17.751 0 0 1 566.25 226.8 Q 558.75 226.8 549.75 226.5 Q 540.75 226.2 529.65 226.2 A 702.302 702.302 0 0 0 519.771 226.266 Q 514.472 226.341 509.85 226.5 Q 501.15 226.8 492.15 226.8 Q 491.25 222 492.15 217.5 Q 500.232 217.025 504.924 216.078 A 30.655 30.655 0 0 0 507.15 215.55 A 10.071 10.071 0 0 0 510.286 214.095 Q 512.495 212.525 513.435 209.744 A 10.87 10.87 0 0 0 513.45 209.7 A 21.326 21.326 0 0 0 514.175 206.742 Q 514.753 203.514 514.9 198.734 A 112.088 112.088 0 0 0 514.95 195.3 L 514.95 50.7 Q 514.95 42.918 514.71 37.896 A 123.284 123.284 0 0 0 514.65 36.75 Q 514.35 31.5 511.95 28.5 A 11.996 11.996 0 0 0 507.231 24.676 A 15.948 15.948 0 0 0 505.05 23.85 Q 501.631 22.824 495.095 22.058 A 172.528 172.528 0 0 0 490.65 21.6 Q 489.75 17.7 490.65 13.5 Q 502.65 12 514.95 8.85 A 176.477 176.477 0 0 0 529.262 4.499 A 225.079 225.079 0 0 0 541.05 0 L 546.15 1.8 A 462.492 462.492 0 0 0 545.895 8.581 Q 545.785 12.158 545.71 16.12 A 750.077 750.077 0 0 0 545.7 16.65 Q 545.55 24.9 545.55 34.8 L 545.55 101.4 Q 557.04 90.676 568.203 85.494 A 58.687 58.687 0 0 1 572.1 83.85 A 78.941 78.941 0 0 1 585.669 79.988 A 62.789 62.789 0 0 1 597.15 78.9 A 53.662 53.662 0 0 1 609.142 80.16 Q 617.758 82.135 623.913 87.205 A 32.617 32.617 0 0 1 627.45 90.6 Q 637.95 102.3 637.95 124.2 L 637.95 192.3 Q 637.95 201.301 638.749 206.395 A 27.023 27.023 0 0 0 639.3 209.1 A 10.895 10.895 0 0 0 640.525 212.043 A 7.904 7.904 0 0 0 645.15 215.55 A 29.177 29.177 0 0 0 648.015 216.232 Q 652.357 217.064 659.55 217.5 Q 660.15 222 659.55 226.8 Q 650.55 226.8 642 226.5 A 438.521 438.521 0 0 0 635.187 226.317 Q 632.181 226.259 628.897 226.229 A 768.493 768.493 0 0 0 622.05 226.2 A 707.97 707.97 0 0 0 614.126 226.242 Q 610.991 226.277 608.135 226.342 A 395.109 395.109 0 0 0 602.7 226.5 Q 594.45 226.8 586.05 226.8 Q 585.45 222 586.05 217.5 Q 593.579 217.014 597.962 216.037 A 27.189 27.189 0 0 0 599.85 215.55 Q 604.35 214.2 605.85 209.7 A 21.326 21.326 0 0 0 606.575 206.742 Q 607.153 203.514 607.3 198.734 A 112.088 112.088 0 0 0 607.35 195.3 Z M 1140.75 193.2 L 1140.75 29.4 L 1119.15 29.4 A 94.847 94.847 0 0 0 1109.872 29.825 Q 1100.391 30.759 1094.1 33.75 Q 1084.95 38.1 1079.4 46.8 Q 1075.151 53.461 1070.989 62.936 A 197.431 197.431 0 0 0 1068.45 69 A 38.663 38.663 0 0 1 1063.65 69.3 A 38.663 38.663 0 0 1 1058.85 69 L 1062.3 41.4 Q 1063.95 28.2 1065.15 15.9 Q 1084.65 17.1 1108.35 17.25 Q 1132.05 17.4 1157.55 17.4 Q 1183.35 17.4 1207.2 17.25 A 907.806 907.806 0 0 0 1229.803 16.84 Q 1240.528 16.505 1250.099 15.909 A 557.779 557.779 0 0 0 1250.25 15.9 Q 1251.45 27.9 1252.65 41.25 Q 1253.85 54.6 1255.65 69 Q 1250.55 69.6 1245.75 69 A 190.739 190.739 0 0 0 1241.475 59.367 Q 1239.276 54.782 1237.078 50.955 A 89.469 89.469 0 0 0 1234.35 46.5 A 36.375 36.375 0 0 0 1224.901 36.577 A 34.379 34.379 0 0 0 1219.8 33.6 A 36.162 36.162 0 0 0 1212.883 31.209 Q 1205.484 29.4 1195.05 29.4 L 1173.75 29.4 L 1173.75 189.3 A 235.02 235.02 0 0 0 1173.809 194.732 Q 1173.938 200.288 1174.35 204 A 18.381 18.381 0 0 0 1174.905 206.942 Q 1175.347 208.515 1176.063 209.723 A 8.055 8.055 0 0 0 1177.8 211.8 A 11.128 11.128 0 0 0 1180.167 213.29 Q 1182.816 214.561 1186.95 215.25 A 120.523 120.523 0 0 0 1191.356 215.892 Q 1195.965 216.484 1202.249 217.025 A 433.401 433.401 0 0 0 1204.35 217.2 Q 1205.25 222 1204.35 226.8 A 658.254 658.254 0 0 1 1199.266 226.779 Q 1196.999 226.761 1194.482 226.729 A 1277.366 1277.366 0 0 1 1189.2 226.65 Q 1180.35 226.5 1171.65 226.35 Q 1165.669 226.247 1160.964 226.215 A 587.916 587.916 0 0 0 1156.95 226.2 Q 1151.388 226.2 1143.112 226.343 A 1445.737 1445.737 0 0 0 1142.7 226.35 Q 1134.15 226.5 1125.3 226.65 A 1241.205 1241.205 0 0 1 1119.021 226.741 Q 1116.554 226.771 1114.337 226.785 A 635.543 635.543 0 0 1 1110.15 226.8 A 35.138 35.138 0 0 1 1109.85 222.187 Q 1109.848 220.07 1110.08 217.835 A 46.392 46.392 0 0 1 1110.15 217.2 Q 1125.15 215.7 1131.45 214.35 A 15.761 15.761 0 0 0 1134.536 213.376 Q 1138.16 211.77 1139.25 208.5 Q 1140.389 205.084 1140.663 198.039 A 124.875 124.875 0 0 0 1140.75 193.2 Z M 936.15 195.3 L 936.15 134.7 A 93.7 93.7 0 0 0 935.711 125.299 Q 934.589 114.211 930.6 107.85 A 16.645 16.645 0 0 0 922.739 101.389 Q 919.755 100.12 915.937 99.525 A 48.135 48.135 0 0 0 908.55 99 Q 899.85 99 891.75 102.15 Q 883.65 105.3 874.05 114 L 874.05 192.3 Q 874.05 201.301 874.849 206.395 A 27.023 27.023 0 0 0 875.4 209.1 A 10.895 10.895 0 0 0 876.625 212.043 A 7.904 7.904 0 0 0 881.25 215.55 Q 884.739 216.597 891.295 217.193 A 144.503 144.503 0 0 0 895.35 217.5 Q 895.95 222 895.35 226.8 A 519.265 519.265 0 0 1 882.328 226.631 A 590.21 590.21 0 0 1 877.8 226.5 Q 868.65 226.2 858.15 226.2 Q 848.55 226.2 839.25 226.5 Q 829.95 226.8 820.95 226.8 Q 820.05 222 820.95 217.5 Q 829.032 217.025 833.724 216.078 A 30.655 30.655 0 0 0 835.95 215.55 A 10.071 10.071 0 0 0 839.086 214.095 Q 841.295 212.525 842.235 209.744 A 10.87 10.87 0 0 0 842.25 209.7 A 21.326 21.326 0 0 0 842.975 206.742 Q 843.553 203.514 843.7 198.734 A 112.088 112.088 0 0 0 843.75 195.3 L 843.75 128.1 Q 843.75 118.642 843.064 113.105 A 41.541 41.541 0 0 0 842.7 110.7 A 12.813 12.813 0 0 0 841.499 107.084 A 9.684 9.684 0 0 0 837 102.75 A 23.144 23.144 0 0 0 833.975 101.576 Q 830.605 100.501 825.455 99.634 A 131.083 131.083 0 0 0 821.25 99 A 20.223 20.223 0 0 1 820.844 96.183 Q 820.659 93.563 821.25 91.2 A 282.347 282.347 0 0 0 851.859 83.419 A 235.426 235.426 0 0 0 868.65 77.4 L 873.75 79.2 L 873.75 101.7 A 113.672 113.672 0 0 1 884.863 92.7 Q 892.913 87.028 900.75 84 Q 913.95 78.9 925.95 78.9 A 53.662 53.662 0 0 1 937.942 80.16 Q 946.558 82.135 952.713 87.205 A 32.617 32.617 0 0 1 956.25 90.6 Q 966.75 102.3 966.75 124.2 L 966.75 192.3 Q 966.75 201.301 967.549 206.395 A 27.023 27.023 0 0 0 968.1 209.1 A 10.895 10.895 0 0 0 969.325 212.043 A 7.904 7.904 0 0 0 973.95 215.55 A 29.177 29.177 0 0 0 976.815 216.232 Q 981.157 217.064 988.35 217.5 Q 988.95 222 988.35 226.8 Q 979.35 226.8 970.8 226.5 A 438.521 438.521 0 0 0 963.987 226.317 Q 960.981 226.259 957.697 226.229 A 768.493 768.493 0 0 0 950.85 226.2 A 707.97 707.97 0 0 0 942.926 226.242 Q 939.791 226.277 936.935 226.342 A 395.109 395.109 0 0 0 931.5 226.5 Q 923.25 226.8 914.85 226.8 Q 914.25 222 914.85 217.5 Q 922.379 217.014 926.762 216.037 A 27.189 27.189 0 0 0 928.65 215.55 Q 933.15 214.2 934.65 209.7 A 21.326 21.326 0 0 0 935.375 206.742 Q 935.953 203.514 936.1 198.734 A 112.088 112.088 0 0 0 936.15 195.3 Z M 1872.75 112.5 L 1821.45 232.2 Q 1819.95 235.8 1816.05 244.35 Q 1812.15 252.9 1807.8 262.05 Q 1803.45 271.2 1800.45 277.2 Q 1793.85 290.136 1787.483 295.986 A 26.285 26.285 0 0 1 1785.75 297.45 A 27.86 27.86 0 0 1 1778.802 301.434 A 22.959 22.959 0 0 1 1770.45 303 Q 1763.838 303 1759.725 299.902 A 13.393 13.393 0 0 1 1758 298.35 Q 1753.65 293.7 1753.65 287.4 Q 1753.65 280.453 1759.805 273.815 A 39.857 39.857 0 0 1 1762.65 271.05 Q 1771.65 263.1 1792.05 263.1 A 217.383 217.383 0 0 0 1797.579 252.639 A 253.712 253.712 0 0 0 1799.7 248.25 A 519.739 519.739 0 0 0 1802.702 241.76 Q 1804.032 238.836 1805.494 235.546 A 1074.392 1074.392 0 0 0 1808.55 228.6 Q 1805.598 221.086 1801.206 209.731 A 7430.659 7430.659 0 0 1 1800.15 207 Q 1795.05 193.8 1788.6 177.75 A 2118.272 2118.272 0 0 1 1777.198 148.744 A 2334.905 2334.905 0 0 1 1775.55 144.45 A 6600.21 6600.21 0 0 0 1763.439 113.029 A 6021.45 6021.45 0 0 0 1762.65 111 Q 1759.482 102.553 1755.734 98.751 A 13.904 13.904 0 0 0 1754.7 97.8 Q 1751.258 94.951 1742.837 93.605 A 79.066 79.066 0 0 0 1738.05 93 A 20.678 20.678 0 0 1 1737.611 89.296 Q 1737.552 87.364 1737.813 85.272 A 31.452 31.452 0 0 1 1738.05 83.7 Q 1746.75 83.7 1755.75 84 A 552.047 552.047 0 0 0 1771.959 84.295 A 607.217 607.217 0 0 0 1774.35 84.3 Q 1783.05 84.3 1793.25 84 A 828.925 828.925 0 0 1 1800.478 83.817 Q 1803.314 83.759 1805.857 83.729 A 417.227 417.227 0 0 1 1810.65 83.7 Q 1811.25 88.2 1810.65 93 A 131.282 131.282 0 0 0 1805.934 93.356 Q 1799.455 93.973 1796.417 95.094 A 12.261 12.261 0 0 0 1796.4 95.1 Q 1793.006 96.357 1792.456 99.721 A 8.55 8.55 0 0 0 1792.35 101.1 Q 1792.35 105.3 1795.35 114 Q 1803.15 135.3 1810.5 153.3 Q 1817.85 171.3 1825.35 190.2 A 3865.694 3865.694 0 0 0 1833.856 170.658 Q 1837.828 161.458 1841.314 153.231 A 2277.878 2277.878 0 0 0 1842.3 150.9 Q 1849.65 133.5 1857.15 114.6 A 92.769 92.769 0 0 0 1858.594 110.531 Q 1860.45 104.85 1860.45 101.7 A 5.975 5.975 0 0 0 1859.651 98.587 Q 1858.935 97.383 1857.578 96.521 A 9.868 9.868 0 0 0 1855.95 95.7 Q 1851.525 93.93 1840.427 93.03 A 178.781 178.781 0 0 0 1840.05 93 Q 1839.15 88.2 1840.05 83.7 A 407.696 407.696 0 0 1 1854.508 83.964 A 445.111 445.111 0 0 1 1855.5 84 A 420.45 420.45 0 0 0 1865.848 84.258 A 505.304 505.304 0 0 0 1872.45 84.3 Q 1878.45 84.3 1885.5 84 Q 1892.55 83.7 1898.25 83.7 Q 1899.15 88.2 1898.25 93 Q 1888.194 93.718 1883.297 96.825 A 11.667 11.667 0 0 0 1881.15 98.55 A 29.27 29.27 0 0 0 1877.993 102.493 Q 1876.535 104.644 1875.146 107.334 A 71.858 71.858 0 0 0 1872.75 112.5 Z M 1421.85 193.2 L 1421.85 53.7 A 169.311 169.311 0 0 0 1421.756 47.85 Q 1421.475 39.75 1420.35 35.7 A 9.349 9.349 0 0 0 1415.007 29.475 A 14.284 14.284 0 0 0 1412.7 28.65 Q 1406.55 27 1392.75 25.8 A 35.138 35.138 0 0 1 1392.45 21.187 Q 1392.448 19.07 1392.68 16.835 A 46.392 46.392 0 0 1 1392.75 16.2 A 650.181 650.181 0 0 1 1397.813 16.221 Q 1400.063 16.239 1402.547 16.271 A 1220.906 1220.906 0 0 1 1407.75 16.35 Q 1416.45 16.5 1425 16.65 Q 1433.343 16.796 1438.973 16.8 A 441.242 441.242 0 0 0 1439.25 16.8 A 699.865 699.865 0 0 0 1447.933 16.743 Q 1453.866 16.669 1460.7 16.5 Q 1470.002 16.27 1476.403 16.216 A 435.447 435.447 0 0 1 1480.05 16.2 A 178.602 178.602 0 0 1 1499.142 17.149 Q 1518.708 19.26 1530.881 26.064 A 47.333 47.333 0 0 1 1534.35 28.2 A 38.377 38.377 0 0 1 1551.607 56.056 A 52.742 52.742 0 0 1 1552.05 63 A 45.855 45.855 0 0 1 1531.28 102.753 Q 1523.399 108.237 1512.529 112.159 A 118.729 118.729 0 0 1 1504.95 114.6 L 1504.95 114.9 A 87.379 87.379 0 0 1 1524.985 118.671 A 76.43 76.43 0 0 1 1534.5 122.4 A 54.966 54.966 0 0 1 1552.155 135.357 A 52.969 52.969 0 0 1 1555.95 140.1 A 42.963 42.963 0 0 1 1563.049 157.155 A 59.334 59.334 0 0 1 1564.05 168.3 A 57.907 57.907 0 0 1 1561.447 186.014 A 48.124 48.124 0 0 1 1551.15 203.85 Q 1538.25 218.1 1519.05 223.2 A 114.706 114.706 0 0 1 1506.933 225.52 A 135.031 135.031 0 0 1 1501.05 226.2 A 207.59 207.59 0 0 1 1487.283 227.012 A 245.99 245.99 0 0 1 1480.65 227.1 Q 1470.15 227.1 1458.9 226.65 Q 1449.232 226.263 1441.447 226.209 A 357.607 357.607 0 0 0 1438.95 226.2 Q 1434.15 226.2 1425.45 226.35 Q 1416.75 226.5 1407.75 226.65 Q 1398.968 226.796 1393.042 226.8 A 488.912 488.912 0 0 1 1392.75 226.8 A 35.138 35.138 0 0 1 1392.45 222.187 Q 1392.448 220.07 1392.68 217.835 A 46.392 46.392 0 0 1 1392.75 217.2 Q 1403.38 216.069 1409.406 215.024 A 71.886 71.886 0 0 0 1412.85 214.35 A 13.988 13.988 0 0 0 1415.943 213.294 A 8.16 8.16 0 0 0 1420.35 208.35 A 22.25 22.25 0 0 0 1421.058 205.37 Q 1421.631 202.086 1421.789 197.188 A 123.59 123.59 0 0 0 1421.85 193.2 Z M 2010.75 230.4 L 2005.95 228.3 L 2004.75 207.6 Q 1994.988 218.198 1984.838 223.741 A 56.697 56.697 0 0 1 1983.3 224.55 A 51.989 51.989 0 0 1 1961.656 230.049 A 61.308 61.308 0 0 1 1959.15 230.1 A 58.047 58.047 0 0 1 1939.946 227.008 A 51.912 51.912 0 0 1 1926.6 220.05 Q 1912.65 210 1905.15 193.8 A 82.239 82.239 0 0 1 1897.657 159.879 A 94.623 94.623 0 0 1 1897.65 158.7 A 87.909 87.909 0 0 1 1901.916 131.032 A 80.322 80.322 0 0 1 1907.1 118.8 Q 1916.55 100.8 1933.8 89.85 Q 1951.05 78.9 1974.15 78.9 Q 1981.05 78.9 1988.55 79.95 A 102.069 102.069 0 0 1 1999.146 82.032 A 120.45 120.45 0 0 1 2004.15 83.4 L 2004.15 45 A 77.231 77.231 0 0 0 2004.008 40.137 Q 2003.644 34.392 2002.35 31.05 A 10.888 10.888 0 0 0 1996.856 25.125 A 15.319 15.319 0 0 0 1995.3 24.45 Q 1990.735 22.754 1982.2 21.853 A 134.866 134.866 0 0 0 1979.55 21.6 Q 1978.65 17.7 1979.55 13.5 A 204.733 204.733 0 0 0 2000.814 9.658 A 228.379 228.379 0 0 0 2004.15 8.85 Q 2016.75 5.7 2029.95 0 L 2035.05 1.8 Q 2034.75 8.4 2034.6 16.8 Q 2034.45 25.2 2034.45 35.1 L 2034.45 183.9 A 237.747 237.747 0 0 0 2034.506 189.244 Q 2034.632 194.825 2035.04 198.622 A 48.562 48.562 0 0 0 2035.35 201 A 12.868 12.868 0 0 0 2036.386 204.493 A 9.276 9.276 0 0 0 2040.75 208.95 Q 2044.191 210.671 2051.318 212.128 A 131.953 131.953 0 0 0 2056.05 213 Q 2056.95 216.9 2056.05 221.1 Q 2044.05 222.9 2032.65 225 Q 2021.25 227.1 2010.75 230.4 Z M 334.575 227.934 A 29.663 29.663 0 0 0 344.55 229.5 Q 352.95 229.5 361.2 225.9 A 41.63 41.63 0 0 0 369.999 220.617 A 57.175 57.175 0 0 0 376.95 214.2 Q 376.65 212.7 376.2 210.9 Q 375.75 209.1 374.55 207.6 A 137.324 137.324 0 0 1 370.315 208.903 Q 362.364 211.2 358.05 211.2 A 12.023 12.023 0 0 1 355.91 211.021 Q 351.18 210.164 350.024 205.223 A 15.965 15.965 0 0 1 349.65 201.6 A 380.804 380.804 0 0 1 349.653 200.031 Q 349.674 195.085 349.819 188.269 A 1279.43 1279.43 0 0 1 349.95 182.7 Q 350.25 171 350.4 157.95 Q 350.55 144.9 350.85 133.35 A 1344.4 1344.4 0 0 0 350.91 130.962 Q 351.083 123.813 351.131 118.472 A 429.454 429.454 0 0 0 351.15 114.6 A 40.441 40.441 0 0 0 350.55 107.489 A 29.606 29.606 0 0 0 345.3 94.95 Q 339.45 87 330 82.95 A 48.496 48.496 0 0 0 324.554 80.992 A 53.354 53.354 0 0 0 309.45 78.9 A 62.604 62.604 0 0 0 307.515 78.93 Q 299.241 79.186 289.05 81.6 Q 277.65 84.3 267.15 88.95 A 70.851 70.851 0 0 0 258.13 93.705 A 51.598 51.598 0 0 0 249.9 100.05 A 31.757 31.757 0 0 0 248.911 101.037 Q 246.853 103.185 245.53 105.414 A 16.03 16.03 0 0 0 243.15 113.7 A 15.44 15.44 0 0 0 243.151 113.868 A 12.429 12.429 0 0 0 246.9 122.85 A 12.026 12.026 0 0 0 246.938 122.888 Q 249.36 125.288 252.962 126.137 A 18.695 18.695 0 0 0 257.25 126.6 Q 264.75 126.6 270 121.65 A 32.795 32.795 0 0 0 272.919 118.513 A 36.158 36.158 0 0 0 278.25 109.5 A 42.546 42.546 0 0 0 279.709 105.446 A 34.603 34.603 0 0 0 281.25 95.4 A 23.168 23.168 0 0 1 282.956 94.723 Q 285.544 93.81 288.615 93.381 A 42.217 42.217 0 0 1 294.45 93 Q 305.25 93 312.9 98.85 A 18.583 18.583 0 0 1 319.474 107.979 A 23.087 23.087 0 0 1 320.55 115.2 Q 320.55 123.6 320.4 131.1 Q 320.25 138.6 320.25 145.8 A 276.842 276.842 0 0 0 299.861 149.104 Q 271.128 154.946 256.084 165.775 A 35.579 35.579 0 0 0 239.55 195.6 A 43.389 43.389 0 0 0 239.989 201.89 A 29.949 29.949 0 0 0 250.2 220.95 A 36.73 36.73 0 0 0 262.419 227.953 A 42.437 42.437 0 0 0 276.15 230.1 Q 291.066 230.1 305.575 220.891 A 90.96 90.96 0 0 0 319.65 209.7 Q 323.316 223.931 334.575 227.934 Z M 769.875 227.934 A 29.663 29.663 0 0 0 779.85 229.5 Q 788.25 229.5 796.5 225.9 A 41.63 41.63 0 0 0 805.299 220.617 A 57.175 57.175 0 0 0 812.25 214.2 Q 811.95 212.7 811.5 210.9 Q 811.05 209.1 809.85 207.6 A 137.324 137.324 0 0 1 805.615 208.903 Q 797.664 211.2 793.35 211.2 A 12.023 12.023 0 0 1 791.21 211.021 Q 786.48 210.164 785.324 205.223 A 15.965 15.965 0 0 1 784.95 201.6 A 380.804 380.804 0 0 1 784.953 200.031 Q 784.974 195.085 785.119 188.269 A 1279.43 1279.43 0 0 1 785.25 182.7 Q 785.55 171 785.7 157.95 Q 785.85 144.9 786.15 133.35 A 1344.4 1344.4 0 0 0 786.21 130.962 Q 786.383 123.813 786.431 118.472 A 429.454 429.454 0 0 0 786.45 114.6 A 40.441 40.441 0 0 0 785.85 107.489 A 29.606 29.606 0 0 0 780.6 94.95 Q 774.75 87 765.3 82.95 A 48.496 48.496 0 0 0 759.854 80.992 A 53.354 53.354 0 0 0 744.75 78.9 A 62.604 62.604 0 0 0 742.815 78.93 Q 734.541 79.186 724.35 81.6 Q 712.95 84.3 702.45 88.95 A 70.851 70.851 0 0 0 693.43 93.705 A 51.598 51.598 0 0 0 685.2 100.05 A 31.757 31.757 0 0 0 684.211 101.037 Q 682.153 103.185 680.83 105.414 A 16.03 16.03 0 0 0 678.45 113.7 A 15.44 15.44 0 0 0 678.451 113.868 A 12.429 12.429 0 0 0 682.2 122.85 A 12.026 12.026 0 0 0 682.238 122.888 Q 684.66 125.288 688.262 126.137 A 18.695 18.695 0 0 0 692.55 126.6 Q 700.05 126.6 705.3 121.65 A 32.795 32.795 0 0 0 708.219 118.513 A 36.158 36.158 0 0 0 713.55 109.5 A 42.546 42.546 0 0 0 715.009 105.446 A 34.603 34.603 0 0 0 716.55 95.4 A 23.168 23.168 0 0 1 718.256 94.723 Q 720.844 93.81 723.915 93.381 A 42.217 42.217 0 0 1 729.75 93 Q 740.55 93 748.2 98.85 A 18.583 18.583 0 0 1 754.774 107.979 A 23.087 23.087 0 0 1 755.85 115.2 Q 755.85 123.6 755.7 131.1 Q 755.55 138.6 755.55 145.8 A 276.842 276.842 0 0 0 735.161 149.104 Q 706.428 154.946 691.384 165.775 A 35.579 35.579 0 0 0 674.85 195.6 A 43.389 43.389 0 0 0 675.289 201.89 A 29.949 29.949 0 0 0 685.5 220.95 A 36.73 36.73 0 0 0 697.719 227.953 A 42.437 42.437 0 0 0 711.45 230.1 Q 726.366 230.1 740.875 220.891 A 90.96 90.96 0 0 0 754.95 209.7 Q 758.616 223.931 769.875 227.934 Z M 405.45 98.4 L 382.65 98.4 A 23.5 23.5 0 0 1 382.269 95.741 Q 382.024 92.803 382.65 90.3 Q 412.35 77.7 427.35 49.2 Q 429.75 49.2 432.15 49.35 A 52.371 52.371 0 0 1 434.135 49.51 Q 435.037 49.601 435.832 49.719 A 28.818 28.818 0 0 1 436.35 49.8 Q 436.05 57.6 435.9 66.3 Q 435.75 75 435.45 84.6 L 481.05 84.6 Q 481.95 91.2 481.05 98.4 L 435.45 98.4 Q 434.85 119.4 434.7 142.65 Q 434.55 165.9 434.55 189.3 A 33.621 33.621 0 0 0 435.844 199.064 Q 439.104 209.796 450.58 212.604 A 38.664 38.664 0 0 0 459.75 213.6 Q 470.55 213.6 479.85 207.9 A 16.118 16.118 0 0 1 482.361 212.956 A 22.008 22.008 0 0 1 483.15 216.9 Q 465.45 230.1 443.25 230.1 A 61.413 61.413 0 0 1 431.761 229.09 Q 421.641 227.161 414.75 221.55 A 27.658 27.658 0 0 1 404.991 204.866 A 41.746 41.746 0 0 1 404.25 196.8 Q 404.25 170.4 404.7 145.8 Q 405.15 121.2 405.45 98.4 Z M 1638.337 227.883 A 85.739 85.739 0 0 0 1658.25 230.1 Q 1680.75 230.1 1697.55 220.05 Q 1714.35 210 1723.8 192.45 A 76.515 76.515 0 0 0 1729.919 177.473 A 87.346 87.346 0 0 0 1733.25 153 A 94.139 94.139 0 0 0 1732.788 143.579 A 76.24 76.24 0 0 0 1724.25 114.9 Q 1715.25 98.1 1699.05 88.5 Q 1682.85 78.9 1660.95 78.9 A 94.35 94.35 0 0 0 1649.842 79.538 A 74.992 74.992 0 0 0 1621.65 88.5 Q 1604.55 98.1 1595.1 115.5 Q 1585.65 132.9 1585.65 156.3 A 94.564 94.564 0 0 0 1586.362 168.058 A 74.698 74.698 0 0 0 1594.65 194.55 Q 1603.65 211.2 1620 220.65 A 67.838 67.838 0 0 0 1638.337 227.883 Z M 1624.267 188.642 A 65.552 65.552 0 0 0 1629.6 201.15 Q 1638.946 217.749 1656.983 218.912 A 43.002 43.002 0 0 0 1659.75 219 Q 1677.029 219 1687.019 205.272 A 44.234 44.234 0 0 0 1689.15 202.05 A 64.114 64.114 0 0 0 1696.032 185.351 Q 1698.106 177.54 1698.883 168.262 A 139.773 139.773 0 0 0 1699.35 156.6 A 146.432 146.432 0 0 0 1698.199 137.63 Q 1696.937 127.991 1694.291 120.021 A 65.703 65.703 0 0 0 1689.15 108.3 A 39.461 39.461 0 0 0 1681.143 98.145 Q 1672.599 90.545 1660.251 90.308 A 41.637 41.637 0 0 0 1659.45 90.3 A 35.359 35.359 0 0 0 1645.067 93.129 Q 1637.245 96.569 1631.666 104.193 A 44.049 44.049 0 0 0 1629.9 106.8 A 59.497 59.497 0 0 0 1623.223 122.25 Q 1619.55 135.186 1619.55 152.7 Q 1619.55 173.663 1624.267 188.642 Z M 2004.45 193.8 L 2004.45 108.9 A 45.162 45.162 0 0 0 1992.758 97.522 A 39.628 39.628 0 0 0 1970.55 91.2 A 44.796 44.796 0 0 0 1957.524 92.99 A 33.351 33.351 0 0 0 1939.35 106.35 Q 1931.071 118.296 1929.32 137.423 A 118.329 118.329 0 0 0 1928.85 148.2 Q 1928.85 163.8 1933.05 178.2 A 58.076 58.076 0 0 0 1939.037 192.061 A 48.743 48.743 0 0 0 1946.85 201.9 A 32.328 32.328 0 0 0 1963.794 210.444 A 46.27 46.27 0 0 0 1972.35 211.2 A 36.332 36.332 0 0 0 2000.502 198.813 A 48.715 48.715 0 0 0 2004.45 193.8 Z M 1454.85 125.1 L 1454.85 191.7 L 1454.85 204.3 A 143.6 143.6 0 0 0 1454.885 207.594 Q 1454.953 210.534 1455.15 212.7 A 147.363 147.363 0 0 0 1466.183 214.546 Q 1471.676 215.24 1476.605 215.37 A 85.056 85.056 0 0 0 1478.85 215.4 A 74.424 74.424 0 0 0 1492.895 214.156 Q 1501.066 212.585 1507.457 209.027 A 38.994 38.994 0 0 0 1514.7 203.85 A 36.12 36.12 0 0 0 1524.741 187.867 Q 1526.667 181.936 1527.224 174.7 A 79.556 79.556 0 0 0 1527.45 168.6 A 63.822 63.822 0 0 0 1526.287 155.982 Q 1524.823 148.734 1521.517 143.223 A 31.452 31.452 0 0 0 1514.25 134.85 A 40.162 40.162 0 0 0 1502.346 128.412 Q 1491.239 124.471 1474.835 124.217 A 147.621 147.621 0 0 0 1472.55 124.2 A 207.87 207.87 0 0 0 1469.199 124.229 Q 1466.916 124.266 1464.3 124.35 Q 1459.65 124.5 1454.85 125.1 Z M 1454.85 30 L 1454.85 111.9 Q 1457.231 112.198 1459.169 112.2 A 25.538 25.538 0 0 0 1459.2 112.2 L 1462.95 112.2 A 126.522 126.522 0 0 0 1477.075 111.47 Q 1491.481 109.845 1500.072 104.606 A 29.868 29.868 0 0 0 1503.9 101.85 A 32.709 32.709 0 0 0 1514.045 85.805 Q 1515.658 80.354 1515.974 73.765 A 68.358 68.358 0 0 0 1516.05 70.5 A 58.18 58.18 0 0 0 1513.817 53.625 Q 1508.19 35.076 1488.378 30.221 A 66.661 66.661 0 0 0 1472.55 28.5 A 80.814 80.814 0 0 0 1466.314 28.732 A 69.649 69.649 0 0 0 1464 28.95 Q 1460.219 29.37 1455.523 29.921 A 1963.173 1963.173 0 0 0 1454.85 30 Z M 319.65 201.6 L 320.25 156.6 A 183.748 183.748 0 0 0 307.528 158.681 Q 295.256 161.171 287.775 164.911 A 32.299 32.299 0 0 0 282.3 168.3 A 27.988 27.988 0 0 0 275.409 175.935 A 24.947 24.947 0 0 0 271.95 189 Q 271.95 199.5 277.5 205.05 A 18.735 18.735 0 0 0 290.54 210.583 A 24.74 24.74 0 0 0 291.45 210.6 Q 296.112 210.6 301.78 208.811 A 53.458 53.458 0 0 0 303.6 208.2 Q 308.241 206.55 314.087 204.049 A 304.972 304.972 0 0 0 319.65 201.6 Z M 754.95 201.6 L 755.55 156.6 A 183.748 183.748 0 0 0 742.828 158.681 Q 730.556 161.171 723.075 164.911 A 32.299 32.299 0 0 0 717.6 168.3 A 27.988 27.988 0 0 0 710.709 175.935 A 24.947 24.947 0 0 0 707.25 189 Q 707.25 199.5 712.8 205.05 A 18.735 18.735 0 0 0 725.84 210.583 A 24.74 24.74 0 0 0 726.75 210.6 Q 731.412 210.6 737.08 208.811 A 53.458 53.458 0 0 0 738.9 208.2 Q 743.541 206.55 749.387 204.049 A 304.972 304.972 0 0 0 754.95 201.6 Z M 1252.134 198.58 A 22.664 22.664 0 0 0 1250.25 207.9 A 25.771 25.771 0 0 0 1250.25 207.909 A 21.688 21.688 0 0 0 1256.55 223.65 A 24.987 24.987 0 0 0 1256.847 223.949 A 20.549 20.549 0 0 0 1271.85 230.1 A 28.56 28.56 0 0 0 1275.246 229.904 A 20.422 20.422 0 0 0 1288.2 223.5 Q 1294.35 216.9 1294.35 207.9 A 22.076 22.076 0 0 0 1292.999 200.172 A 23.627 23.627 0 0 0 1288.2 192.45 Q 1282.05 185.7 1271.85 185.7 A 24.855 24.855 0 0 0 1271.43 185.704 A 20.552 20.552 0 0 0 1256.55 192.15 A 21.939 21.939 0 0 0 1252.134 198.58 Z" vector-effect="non-scaling-stroke"/></g></svg>